/* XPM */
static char *f7403814a25f43c49ac3ac556c43eea9[] = {
/* columns rows colors chars-per-pixel */
"125 100 53 1 ",
"  c #202020",
". c #222222",
"X c #252525",
"o c #2A2A2A",
"O c #2F2F2F",
"+ c #323232",
"@ c #373737",
"# c gray23",
"$ c #3F3F3F",
"% c gray26",
"& c gray28",
"* c #4B4B4B",
"= c gray30",
"- c #535353",
"; c gray34",
": c gray35",
"> c #5F5F5F",
", c gray38",
"< c gray40",
"1 c #6A6A6A",
"2 c #6C6C6C",
"3 c #727272",
"4 c gray46",
"5 c #7B7B7B",
"6 c gray50",
"7 c #838383",
"8 c gray53",
"9 c #898989",
"0 c #8D8D8D",
"q c #929292",
"w c #959595",
"e c #9B9B9B",
"r c #9D9D9D",
"t c gray64",
"y c #A4A4A4",
"u c #A9A9A9",
"i c gray68",
"p c #B1B1B1",
"a c #B6B6B6",
"s c #B9B9B9",
"d c #BCBCBC",
"f c #C0C0C0",
"g c #C6C6C6",
"h c gray79",
"j c #CECECE",
"k c LightGray",
"l c gray83",
"z c gray85",
"x c #DDDDDD",
"c c gray88",
"v c gray90",
"b c gray92",
"n c #ECECEC",
/* pixels */
"79qeyipasdddsssasdfggffggggffdsapsddffffffdssppuuuuuyuyttrttre009888888888889889998998877667542111244323323567766799877777667",
"0qeyippasdddddaasdgghhhghhhggfddsdfdfdfffffdspiyyyyuuuuytrrrrw008877877778900989998998776665544211233432223677666788777899099",
"qeruppppasddssassdfggjjjkjjjjjhggfgggffddfgfdspiuyuiuytreeeew09998777765679999989898877665455432223332223345666677789000qweww",
"wetipapaaasssaaasddfghjkkzlllzlkhhhjhhgdsdfffdapiuuuiytrrew0909998777656666888878788877665455432224333223344456766780weeetrtr",
"rtuippasdssdsapaassfghhklzzlzzzlklllkhgssdfffdsspiiiuutteew008998777754565677886676767766544432123443333333345567780wrtyyiuut",
"rtyipasddsdsappipadddfhkzzlzlzzzzzxzkhgfddfggfssaiuuuyttew09889987665455666667665556767766554332122323344333445689qwtyuiiiiuy",
"rttyiadffdspipppipsdffgjllzxxxxxxcczkkhffghhhfddapuuytrrwq9767888765544545556666544666666655332111112245533344479qetyuiaapiiu",
"yyttypsdddspppipaasdffghkjlzzxxccvvczzkhgghhgfsaaiiyytrwq08667876665554544455555554455455543211111223344433444579wruiaaapppip",
"uyyyupasssaappiaaassfggghjkzzxccvbbvvcxkjhggfdssapiytrew009877655556554443334445453333343332111111222343444565670wtiasdsassaa",
"iuiiiippppipppipassddfgghkzzxccccbnbbvczjhhfdsaapiuyteq0009875434445444333322234443222222111122<<111233444577789qetupssdsddds",
"iuiiiiiiiuuiippppassdffghkzxxcxxxbnnnvcxlkhfsaapiytrewwq00976432234444332223233333211,,,<<,,<111<1<<124455790qwwrtupsfddffggf",
"puuuuuuuuuyyuiiiiaasdfddfjzzxcccvbnbvvcxzljfsapuyteewwqqq985433233422322223233332<11<>::::,<<<<<<,<<13333680werttupasdgffhhgf",
"puuuuuyuuyyytyiipppasdddfhlzxccccvvccxcxzlhgdsputwwwq00q087432222221111111123221<<,,,>-;;:>>,<,,,,,<<1223580wryippppadfghjkgg",
"appiuiiuuuyyyyuppiiipassfhklxxxccxcxcxxxzljhfspureq0980008531111<<<<<<1,,,122221<,>>>:;--;;::>>>>>>,,<<23579wtyipppppsfffhhgf",
"dddaappapiuyyuppppiuiiasfggklzllzzzxccczlkjhfaiyrwq989009851,,>>::::>,,,>>,1122<<,,>:;=-----;;::>>>>>,,13579qetupapppasdddfdf",
"fgffddssappiiiippiapppasffhjjhkkzzzxzzzlkkhfspuyrw9990998641,::;;-;:::::::>,,1<1<<,>;-=---=--;;-;;:::>><14670wtyuiaappipaapaa",
"hhhgfddddssaiipiiipppasffhjjjjjklllzllkkjhgspuyteq9999977531,:--=-=-;-;::::>:>>,<,>:;========--==-;:::>><2558qeryuipipiuiiuip",
"ghhggggffddapiiiuuyupsfgjhhjkkkjkjkllkjhggdaiyrw009987665431,:-=**===-;;::;;::::::::-=&%&***==--=-;:>:;:>,2469qwettyyiiuuiiip",
"fgghghghfgfsaiiuytyiadgjkkjkkkkkjjjkkjhgdsspute098877655543<,:;==*==--;;:::;;-;----==*&##$%&**==--;;:;--;>135780qeeerrttyuiip",
"fgghjhjjjhfsppiyuuuasghkzzljhjhjjhhhgffdapiuyrw988776655422<>;-==***---;;;;;--=*==**&&%@+#$%&****==;;-==;>,14678000qwwweryuui",
"fgjllkkjjhgdspppppasfhhkzzkjhhhfddfdfddapuuyreq876776445421<>:==*&&**-;;;-==-*%%%%%%$##++@#%&&%%&*====--::><1346789900qeettui",
"ggjlzzkkkjhgdsassdffhhhkklkhhffsaaasssapuuyteq976556554541<>;--*&&&**=-;;-**&%$##$$$#@@++@@$%%%%%&&***--:::>,135577680qerryyu",
"gjkzxxzlkjhhgfffgfghjjjhhhjgfdsppaaappppuytrwq864444444431,:--=**&*===---=*&%#@+++@###@@@@##$$$%%$%%&*=-;::;:<33466568qwrtuui",
"hklzxxxzlkkhgggfgghghhjhgggdsppuuipppppiuttrwq965433335421,:;-=&%&*=-;-==-*&$@OoO+++@##+++@#$$%%&%$%&==--::;>,123556680wetyup",
"jklzxzzzlkjhgghgfggggggghgfdpiiuuiiippiiuytee0876433344321<>:=*&%&*=;;--==*%$@oXXoOO+@@@O+#$%%%&&&&**-;--;;;:>,<1356789wrtyia",
"hkkzlkkklkjggggfffffgggggfdsaiuuyyuuiuuiytrewq9665222232221,:-=*&***-;;;;-=&$@oX Xo++@@+@#$$%%%***==--------::,,<236780wtyuip",
"jjkkkkjjjkjhgghfffgfgffgfdapiuyrtttuuyytrreww0875443321221<,>;-======;;--**%#@o    oO+@@##%%&*===-;;;;;;-----;:,<13579qwtyyip",
"jhjjjjjhhhjhhggggfgfddfddpiiytreertrtrewqq0099765544433321<,,>:;;----;;-=*&%#@+XX XoO++@#$%&*=-;;--;;:;;-;=---;,132469wrryuii",
"fhhjhjhhgfgfgggffgffdddsaiuttewqqwwwwq000988766554454453332<,,,>:>>::-=-=*&&%$#+OooXoOO#$$%*=;:>:::::>>:;;;=--:,<12468wruiiip",
"dfghgggfdddffdffgfddssapiyree0099999000988865655555444344321111<<1,,>:---=*&&%$#@@++OO+#$$&*=;::,,>>>>>>>:;;;;>><12368wtuppaa",
"ssdfdddsaasddssssspppiiytrewq977776880q09876667675553322333444443211,>;--==*=*&%###@@@@#%%&==;:>><<,>>>,,::>>>:>,13570wrupsss",
"aasssdsappassaapiyyyyuytewwq0755566780q099777778774332124456887654331<,:----==**&&$$%%%%%**==;:<<<<,>>:>>>>,>,,,,23580etupaas",
"paaaaaapiiiipuiytreeerrrewq08754456578889877778876332223466880998766431,>:;;-;--==&&&****=---><122<,<,>>><,<<<<<122580etuuiaa",
"ppaapiuyyyyyttrrweqqweewwqq976654344455545433577654233456689900qq0008642<,>:>>>>:;=***==-;:;:,134221<<,<12221<11123570qrtuuip",
"piipiytrtrrrewwwwq000q0qq0887765423333232322245664433446788qqweeerew097631<,,,<,,>;----:>>>>,<343331<<<1223332211245689qwrtyu",
"iiiiuyreewqqqwq00888888888877776532321<<<111112344434468990wertrttttewq086311121<,>>>:>,<1<<<2323321111<223443222344567800wet",
"tyiuyrreww09898877567666776666664432<,>>::>><<1222234569qwertytyyuuuytre09754443211<<,<122333343323221<<1<1343333344555679qqe",
"rtyyttrewq086766643444454554455443211,>:;;;;>,,,<1335680weertyuyyyuiiuyrew0986554332222334545544334221<<<,<13333443333335690q",
"wertrreeww98544543123222322345533332<<>::;-;:>>>,1345790qerttyyyyuiiiiuyewwq0865544433445445544444321<,,>>,<12344322222225667",
"9qerreeeew9764232<<<<,<<111344455421<,>>:;;>:::>,<35780qertttttttuiipiytttreeq98655555566665544443321<,>>>><133332221<1223356",
"90wwewqwq08653221,>>:::,<<2345556421,>:>>::>>>::><2690qqeryuyyteryuiiuyttyttrww9886666676765454543222<,>,,<1124432111<,<11255",
"8999000098865321,>:>>;;,<<1334564311,,,<<,>>,>>>,14700qwetyyytrertuuuutttrtrreeq09887888876544444321<,:>>,<123443311,,,>,1345",
"677898877766541,:;::>:>><<1124544421<<<<<<<,<,,><2470qwrertttreeertyyrrrerrrrrrrww088888765554455421,>>:>,,<1135431<,,>>,,134",
"456777654566531,::;:::>>,<<1124554321<111<111<,<23589wetrtrteewqqerrrtreewertyytrwq0998776455566542<>:;;:>>><133321,>>>>>,<13",
"23456643234432,>::>:>:>>,11<<2333221<<,<1<11211344680werrtrtrwqqqwwerreewertyuuytrewq09866554566642,:;--;;;:,<121<,::::>:,<1<",
"11233211113321<>>;;;:::>,,,,,123321<<,<,112233356680qwwrrrttewq0qqerreerrrtyuiiiuutrwq9756555677642,:-=====;::,<<,:;;;;;;>,,,",
",<<<,>>><11221<,:;-;;;:>>>>:,,1221111<<<<3334466789qwwertrewwwq00wertrryyyuuupapiutre097665446554321>===****=;:,,>:;--=-==-=;",
":>>:;--;:,<,<1<,::;;;;:::::>><<1221<<<<1223566789qqwwqweweewwqwqqertyyuuuiiiipaapiteq99876544444321,:;=*&%%&*=::>:;;=**&&%&*=",
"-=-=***=;;:>,<,>::>;-;;;;;::>,,111<<<,<243367880qwwewwwqwqqwwwwwweetyippppppppapiutwq999875543232<>:;-=*&$$%*-;::;--=&$$$$#%%",
"&***&&*=---:>:>>:::;-===*=-:>><11<,,,,133355690qqweeeewqq000qqweeertuiipaassappuuyrwqqqq976554211<>;=***&%%&*-::;;-*&&$##$###",
"%%%&&&**=---;:::>>:;-=*&%&=;:><121<,,<12456680qqqerrrwqq00000qweeertuiiaassaapiiyyrewwewq9865321<>;=*&%%%%&*=;;;-=*&%%$######",
"$$%$%&&&****=->,>>>:--=&&%&-:><1122<<11345699qwweetreew000q00wwweertyiipaasapppiuyrewereew96521<,:;=&&&%%%&=---;-*&%$$$###$$#",
"#$$$%%%&&&*=--:>>>>>:;-=*%*=:,123222224455680qwrrttrrwq09090qqqweerrtuupaaappppiiuyyrrew00976421<>;-=*&&&**=-=---*&%$$#@#@@##",
"$$$$%%%&***=-;:>:>:,>:;;-==-:,123333334566670qerttrtewqq009q0qqerwwrryuaapiipppappiutrwq099876631<,:;====*=**=-=-=*&%$$#@@@##",
"%$$%%&&==-=-;;;;::>,,,>::;;-:><12234444567789qettytreww00090qqqqwwqqwtyiiiuiipsfdaiutew08889986532<>;;==******==---=*&$#@#@##",
"*&%****=-;:;;-;;::::>>>>>>:;:><13344454567889qerrrreeewq90009000qqq00wryyiuippsdddputeq099899865431,::;=***&&****--==*&$$$%%%",
"***=---;;:>>::;--;;::::>,,>::,<23334555667890qqwwerrtrwq00999900q00990wrtuiiipsdfdpiteq999887655521,>:;====*****&*=-==*******",
"%*=-::>,,,><,>;===;:>>:>,,,>,,112234456667890qqqqertttre0099000q9988880wryuuipsdddaiteeq98866655331<>:;:;;-;-******=---;;;;-=",
"&*=;:>,<1<<<,>;-==-;:>>:>,,,,,<<13323566780qwqwweetyyyyte09988898777789qwtyyypasspiuyreq099876654321,,>,,,>>,:;-=--;;::;::;;-",
"&*-;:>,,<111<,:---;>>>>>>>>>,<<,<122345799wwerttyyyyuyyrreq976777666780qwetyyuippiuuyreqq00988765321<<<1111<<<,>>>>,,,>>>:;--",
"&&*;::>,12231<<>>>>,,,,<<,,<<,<<<<12344680eertyipiutrtrtteq976545556679qweeryyuuiiuuyreeeqqq09876422223343321222222211<>>::-=",
"&&=;::>,<22222<<<,,,<<<<<<<11<<<<<12345680wetyipppiyttytewq85433343466890qwrttyyyyuyyteewq000987543323456543345443443311,,>;=",
"*=-;:,<122244211<<11111<<11111<,,<13466790wwryipppiuyyteq97432221234567789qeeerrttttttewq0q008744433334676555665555543321,>:;",
"&*-:>,1234444333333221121232221,,1357990qqertyuiiiuutrew98531<<<<223456679qwweewrttrrreq0q09875432122346766667776765543111<>:",
"*=::,<234655544655443323433333212356890wqeertttyiuyyyrw08642<,>>,<<13456680qweweerewwwwq0000854311<124567888787777776433321,>",
"-;::,13445666788776767665554444344680000qwetttttyttttw085542<>>::>>><2357890qqqq0qq000q0098775421<1233457888888877777665421,>",
"-;>,1235667789990990q9887766555667899090qeryytrrreeeew864432,>:;:;-;:<25788900000998789998765532111123455788887666777767541<>",
":>><1246788000qqwwwwwwqq99878777990qqqwwertyyrwwqq0q09753221,:;;;==-:>157888899988666678864542221122333445677765555667766531,",
"1111236790wwewwwerrrrtrreew090090qwerrrttttttw09877887531<,:;--=**=-;><2466767766554455444332<1121<1233333445455454567766652<",
"33335679qweeeererrtttyyyyyyrewwqqertuuiiuyyyrq86655665432,:=***&***=-;,<134445554444423111<<<<,1111<1122323223333444466777754",
"5446789qwertrtrttryuiiippiiiuyteeryuippipiyte08654433432<,-*%%%&&&*&==;>,12224454433321,>::>,>,,,<<<,<<111<223222344456677777",
"76789qwwetyyyttyttuipaaassasppiuuippaapaiuyye965422<,121,:-&%$%$$%%%&*-;,<12223442221<,>:;;;:>,<<<<,,>,,,,,<12333334445566567",
"890qqerrtyuuuuyyuiiaasddddddddsasssdddppiytrw96531,>>>>>:;-*&%$####$%&=;:<<112222211<,>:;;--;:>,,<,,::::::><12445445445544467",
"90wwerttyuuyyuuiuiasdddfffddfdfdddddddaiyreew97641>>::;::;-=*&$#@##@$%*-:,,<<11211<,,,:;--=---:>>>>:;-==-;>,13455655543333467",
"qweertyyyuuuuuuiipsdffgggfffggggfffffsputeeww07532,>;;;:;-=*&%%#@@##$%*-::>,,<<<<,,,>:;;-=---;::>:;-====-;><24566666543234668",
"errryuuytyiiiiuuiaafghghjghgghhgggfffdauteeq0975421<>>:;-**%%%$$$#$$%&&=:;;>,<,>>>>:;--=**===;::::====---;,134566776543224689",
"tttyuytrryuipiuuipadgghhjhghghjhggggfdaiyrwq986666321,;--*&&%$$%&&%%&&&*--;:>>>>:::;-==*&&*=-;;;--=====;:>,124455565543234690",
"uyuuyyrrrtyuuuiuuipsdghhhhjhhjjkjggffsaiute0877775542<>;=*&%%%&**&%&&%%&&=---;;-----==*&&*=-;;-;------;:,<123434455556544570w",
"uuuutrreeertyyuuiuiiasdghjkjjjjjjhfggsapiyeq9999853221,:-*&$$&***&%%%%$$%&&&****=**=****=-;::::>>:;;:::<1<134554456545444570e",
"yiuyteeewwwerrtyuuiipaddghhjhhjhhgggfdsspureqq00865322<<>-=&&**==*&%%$$##$%&&*&&&&&***=-;:>::>>,>>>>,,<13333444455554444567qe",
"ytyteewwwqqqqwrrtyuuipadghjhghghghggfdddsiyteeq088653211<,:-=**--=&%%%$#$$$%%%%&&%%&**=;;:>:>,1<<<<<12345553333456755554669qe",
"ttrreeewq000qqweertyupsdghgggghhhhgggdddspyttrewqq9854332<,:;-===**&&%%%$$%$$$$$$#$%&&*=-::>,111112346677644334566776666779qr",
"reeerewwq9000qqwerrtuisgghggghhjjhgfddddsppuyytttew09755421<>;;-==**&&%%$%%$$$$###$%&*==-;>,<123334567809865344566777778889qw",
"ewweewq00990090qqwrtuiafgffgghhjjhgdddddaappiiuiiyteq98654321<>;-;;=*&%$$%$%$$$$#$$&*=--:>,122334568899009765555566677789890q",
"wewewq0000990000qqetupadfffgfgggggffddsssasaaasaiuyyrwq88764221<,>:-=*&%$%%&%&%&%%%*=-;::><24555678890qq008766665565567789998",
"qwqqwq00009999990qeyiaassdgggffggfdddddssdfdfdssaiuuyrww0075534322,;-=*&&%&&*&****&=;:>,<1235778999990qww09877654443445777788",
"0qq00q00099909990wtupaasddgfffdfffddffffdfhhgffdspiiuyreeq87665553<>;;-=***=-==----;:,<1245579990qq00900q00087555421134566667",
"009990qq000000090wtuppaasdddfffffdddfgffffgggfffdsapiyttew099888763<:;;---;:;;;:;:>><<12345680qqwwwqqqq9899976665423324434445",
"9988890qq0qqwwqqqeruppsssdssdfgffffffggfffgfffdfffsaiiuytewwqq009741>>::>:::>>::>>,<123346680weeeewewq08777766555433332222323",
"77788800qwereewwertuiadfddssddfggfddfggffffdddggffsappiyrrewwww08751<,,,,>:>,>,,,,<12345678qwewwerrreq877656655542333321<11<1",
"5667990wwerrtrrrrtyyupssdfdsdfgggfffdfgggffffffghggdaapyttrereww0853321<<,,>>>><<<113356789qweewerttwq0765544544323333321<<<1",
"4466800wwwettttyyyyuipssdddddgghhgfdfffgfgfggghhhjgfsaauyyytreww0755421121,,>>,<1<<22346880wwweerttreqq8655434432331123321<<1",
"556679qwweryuyuipiuiipsddddfggghgggfffdfffghhhjjjhhhfsiuyyyytewq9876543331<,>><<<<<1135790qwwweerttrwq9866555333322111333211<",
"4567790eettyuiupiiiipaassdssffgfggggdssdffffghhjhhgfdapuuuyutew09987754321<,>,,,<,<,125700qqqwweerrrwq86655655333322113443211",
"567789qryuiiiiiiiiiiipppaaaasfgfffdgfdssdsdsdggjhhgdapuuuyyyteww008765421<<,>>>,,>>,1367990qwqweeeewwq86556565544323334443321",
"66669qwtuiasaapiiippiiippsaasdffdfgffdsssdspaffggfssppuuyytytreqq09766431<,,,:>>,<,<13467800qwweewqq9765655677666655664322223",
"66669qryipssssaiipaapipppaaaasdddfffddsssssppsffddsapiuytrtrtrwq099765422<,>>>>><<<113466780qwwwwq097555555777666777654321123",
"56780wtupsassapaaaasasapaaaaadffffffddssasappsfffdsapiytttrreewq99888654431,,,<12211246678900qqqq9875433445666566777665433243",
"6679qetipaasaaasssddddsaasssssdfgffddsssasaaadffddsapiiiuyytrwq0009999755421<222222344679900999087554232345565545676666444555",
"7790qetupasssssassdsdfdsasdsssdfffffdddssddsassdsssspppiuuyytwq09990987754422344434446780000999875433322334555554665666555766"
};
