/* XPM */
static char *_f696c520e2d4741d69e414c611bd499[] = {
/* columns rows colors chars-per-pixel */
"100 60 247 2 ",
"   c #37311D",
".  c #33312E",
"X  c #494020",
"o  c #5A4E23",
"O  c #5E5123",
"+  c #635523",
"@  c #675925",
"#  c #6C5D25",
"$  c #6C5D28",
"%  c #6F6025",
"&  c #736326",
"*  c #786727",
"=  c #72632C",
"-  c #7D6B2A",
";  c #776833",
":  c #7C6C33",
">  c #766839",
",  c #4C4C4C",
"<  c gray32",
"1  c gray36",
"2  c #7F734C",
"3  c #756C51",
"4  c #79715C",
"5  c #636363",
"6  c #686765",
"7  c #6D6D6D",
"8  c #7C7668",
"9  c #717171",
"0  c #7B7B7B",
"q  c #D91707",
"w  c #D91807",
"e  c #D91C08",
"r  c #DA230A",
"t  c #DA2B0C",
"y  c #DB340E",
"u  c #DC390F",
"i  c #DC3D10",
"p  c #816E2A",
"a  c #857229",
"s  c #8A762B",
"d  c #8D792B",
"f  c #927D2C",
"g  c #8E7B3A",
"h  c #DD4312",
"j  c #DD4A15",
"k  c #DE5117",
"l  c #DF5819",
"z  c #E05318",
"x  c #E05D1A",
"c  c #E1641D",
"v  c #E26A1F",
"b  c #E36E20",
"n  c #E47422",
"m  c #E57A24",
"M  c #96812D",
"N  c #9B842E",
"B  c #9F882F",
"V  c #9E8730",
"C  c #9F8935",
"Z  c #998438",
"A  c #A38B2F",
"S  c #A58D31",
"D  c #AC9332",
"F  c #B09733",
"G  c #B49A34",
"H  c #B99E35",
"J  c #B89E3C",
"K  c #BDA135",
"L  c #E68127",
"P  c #E78528",
"I  c #E88629",
"U  c #E98C2A",
"Y  c #EB942D",
"T  c #EC992F",
"R  c #ED9D30",
"E  c #C2A636",
"W  c #C5A937",
"Q  c #C2A63A",
"!  c #C6AA38",
"~  c #CBAD39",
"^  c #CEB039",
"/  c #D3B43A",
"(  c #D7B83C",
")  c #DDBD3D",
"_  c #EEA332",
"`  c #F0A734",
"'  c #F1AC35",
"]  c #F2B237",
"[  c #F4B538",
"{  c #F5BA3A",
"}  c #E4C33F",
"|  c #F7C13C",
" . c #F9C53E",
".. c #F9C83F",
"X. c #988547",
"o. c #8D8058",
"O. c #95865A",
"+. c #AC9642",
"@. c #AA9649",
"#. c #B09947",
"$. c #A69354",
"%. c #AC9855",
"&. c #A8965C",
"*. c #AC995C",
"=. c #B29E5B",
"-. c #B8A258",
";. c #8E8364",
":. c #978D6E",
">. c #9F9163",
",. c #888172",
"<. c #938C77",
"1. c #A39465",
"2. c #AC9A64",
"3. c #AB9B6B",
"4. c #AA9E7A",
"5. c #B2A067",
"6. c #BAA669",
"7. c #AEA17E",
"8. c #B5A577",
"9. c #B1A47B",
"0. c #CAAF4B",
"q. c #CDB145",
"w. c #CBB25B",
"e. c #DBBE52",
"r. c #D7BC59",
"t. c #CCB468",
"y. c #D3BC6C",
"u. c #CAB678",
"i. c #E3C342",
"p. c #E8C740",
"a. c #EDCB41",
"s. c #F1CE42",
"d. c #FBCD41",
"f. c #F5D143",
"g. c #FCD443",
"h. c #FFDA45",
"j. c #F7D44E",
"k. c #FFDB4A",
"l. c #FFDB53",
"z. c #F7D558",
"x. c #FFDD5C",
"c. c #DCC26E",
"v. c #E1C568",
"b. c #FEDC63",
"n. c #F6D768",
"m. c #FEDE6D",
"M. c #E1C875",
"N. c #EBD07A",
"B. c #F5DA7F",
"V. c #FDDF7E",
"C. c #FFE075",
"Z. c #FFE17D",
"A. c #858585",
"S. c #8A8986",
"D. c #8B8B8B",
"F. c #999388",
"G. c #949494",
"H. c #9E9A90",
"J. c #9B9B9B",
"K. c #A29B87",
"L. c #AAA28A",
"P. c #B2A583",
"I. c #BDB08D",
"U. c #ABA593",
"Y. c #A3A29E",
"T. c #B6AE97",
"R. c #B8AD90",
"E. c #B5AF9F",
"W. c #B7B09F",
"Q. c #A4A4A3",
"!. c #ADABA4",
"~. c #ABABAB",
"^. c #B0ACA0",
"/. c #B0AFAB",
"(. c #B3B0AB",
"). c #B8B3A9",
"_. c #B4B4B3",
"`. c #B8B7B5",
"'. c #BEBCB6",
"]. c #BBBBBB",
"[. c #C3B58F",
"{. c #C3B692",
"}. c #C5BDA6",
"|. c #C0BDB5",
" X c #C0BFBA",
".X c #DBC582",
"XX c #E1CA83",
"oX c #E9D28C",
"OX c #F0D681",
"+X c #F7DB81",
"@X c #F1D88C",
"#X c #E7D294",
"$X c #FFE282",
"%X c #FFE38B",
"&X c #FDE393",
"*X c #F5E09F",
"=X c #FFE69D",
"-X c #DCCDA2",
";X c #C8C4B9",
":X c #D3CBB5",
">X c #DFD3B1",
",X c #EAD8A6",
"<X c #F1DFAE",
"1X c #E6D9B5",
"2X c #E0D7BF",
"3X c #FEE7A2",
"4X c #FFE8A5",
"5X c #F5E2AA",
"6X c #FFE9AC",
"7X c #F5E4B5",
"8X c #FAE7B1",
"9X c #FFECB5",
"0X c #F3E4BC",
"qX c #F7E8BC",
"wX c #FEECBC",
"eX c #C3C3C3",
"rX c #CDCAC2",
"tX c #CCCCCB",
"yX c #D6D1C6",
"uX c #D3D2CD",
"iX c #DAD7CF",
"pX c #D2D2D2",
"aX c #DCDBD7",
"sX c #DCDCDB",
"dX c #E2D9C2",
"fX c #FEEDC0",
"gX c #F9ECCB",
"hX c #FFF0C6",
"jX c #FFF1CC",
"kX c #EFE7D3",
"lX c #E5E3DC",
"zX c #EDE8DD",
"xX c #F7ECD1",
"cX c #FFF3D3",
"vX c #FEF4DB",
"bX c #E3E3E3",
"nX c #EBEBEB",
"mX c #F1EFE9",
"MX c #F7F2E4",
"NX c #FEF6E3",
"BX c #FFF8E5",
"VX c #F4F2ED",
"CX c #FCF7EC",
"ZX c #FFFAEC",
"AX c #F4F4F3",
"SX c #FEFBF3",
"DX c #FFFFFF",
/* pixels */
"DXDXDXDXDXDXDXDXDXDXDXDXDXDXDXDXDXDXDXDXDXDXDXDXDXDXDXDXDXDXDXDXDXDXDXDXDXDXDXDXDXDXDXDXDXbXDXDXDXDXDXpX[.CXDXDXDXDXDXDXDXDXDXDXDXDXDXDXDXDXDXDXDXDXDXDXDXDXDXDXDXDXDXDXDXDXDXDXDXDXDXDXDXDXDXDXDXDXDXDX",
"DXDXDXDXDXDXDXDXDXDXDXDXDXDXDXDXDXDXDXDXDXDXDXDXDXDXDXDXDXDXDXDXDXDXDXDXDXDXDXDXDXDXDXDXSX7 iXDXDXDXDXS.d t.ZXDXDXDXDXDXDXDXnX`.DXDXDXDXpXCXDXDXDXDXDXDXDXDXDXDXDXDXDXDXDXDXDXDXDXDXDXDXDXDXDXDXDXDXDXDX",
"DXDXDXDXDXDXDXDXDXDXDXDXDXDXDXDXDXDXDXDXDXDXDXDXDXDXDXDXDXDXDXDXDXDXDXDXDXDXDXDXDXDXDXCX1.E ; vXDXDXpXD h.a v.CXDXDXDXDXDXsX, eXDXDXnXF.X x.SXDXDXDXDXDXDXDXDXDXDXDXDXDXDXDXDXDXDXDXDXDXDXDXDXDXDXDXDXDX",
"DXDXDXDXDXDXDXDXDXDXDXDXDXDXDXDXDXDXDXDXDXDXDXDXDXDXDXDXDXDXDXDXDXDXDXDXDXDXDXDXDXDXCX-.E h.E 9.DXDX8 f.h.a.* B.SXDXDXDXpXA.0 SXAX/.H g.@ s.cXDXDXDXDXDXDXDXDXDXDXDXDXDXDXDXDXDXDXDXDXDXDXDXDXDXDXDXDXDX",
"DXDXDXDXDXDXDXDXDXDXDXDXDXDXDXDXDXDXDXDXDXDXDXDXDXDXDXDXDXDXDXDXDXDXDXDXDXDXDXDXDXZX5.W h.h.h.a lXtXK h.h.h.) s &XDXDXtX$.H.sXeX$.} h.h.G ^ 9XDXDXDXDXDXDXDXDXDXDXDXDXDXDXDXDXDXDXDXDXDXDXDXDXDXDXDXDXDX",
"DXDXDXDXDXDXDXDXDXDXDXDXDXDXDXDXDXDXDXDXDXDXDXDXDXDXDXDXDXDXDXDXDXDXDXDX].A.DXDXDXu.F h.h.h.h.) <.4 f.h.h.h.h.^ M 5X`.K ) : X.) h.h.h.h.K ! =XDXDXDXDXDXDXDXbXDXDXDXDXDXDXDXDXDXDXDXDXDXDXDXDXDXDXDXDXDX",
"DXDXDXDXDXDXDXDXDXDXDXDXDXDXDXDXDXDXDXDXDXDXDXDXDXDXDXDXDXDXDXDXDXDXDXDX_.% ].SXXXM h.h.h.h.h.h.* E h.h.h.h.h.h.K * / h.% D s.h.h.h.h.h.} M Z.DXDXDXDXmX`.6 pXDXDXDXDXDXDXDXDXDXDXDXDXDXDXDXDXDXDXDXDXDX",
"DXDXDXDXDXDXDXDXDXDXDXDXDXDXDXDXDXDXDXDXDXDXDXDXDXDXDXDXDXDXDXDXDXDXDXDX!./ : w.M f.h.h.h.h.h.h.) g.h.h.h.h.h.h.h.s.h.} } h.h.h.h.h.h.h.h.O l.SXAXrX4.K G P.DXDXDXDXDXDXAXsXDXDXDXDXDXDXDXDXDXDXDXDXDXDX",
"DXDXDXDXDXDXDXDXDXDXDXDXDXDXDXDXDXDXDXDXDXDXDXDXDXDXDXAXbXSXDXDXDXDXDXDXL.( a.d f.h.h.h.h.h.h.h.h.h.h.h.h.h.h.h.h.h.h.h.h.h.h.h.h.h.h.h.h.- W @.G } h.~ D cXDXDXDXDXbXQ., tXDXDXDXDXDXDXDXDXDXDXDXDXDXDX",
"DXDXDXDXDXDXDXDXDXDXDXDXDXDXDXDXDXDXDXDXDXDXDXDXDXDXDXSX9 2 >..XqXSXDXDX:.p.h.h.h.h.h.h.h.h.h.h.h.h.h.h.h.h.h.h.h.h.h.h.h.h.h.h.h.h.h.h.h.} } h.h.h.~ +.cXDXSXsX(.3.F.G.nXDXDXDXDXDXDXDXDXDXDXDXDXDXDXDX",
"DXDXDXDXDXDXDXDXDXDXDXDXDXDXDXDXDXDXDXDXDXDXDXDXDXDXDXDXnX8 ) ^ F C u.<Xp s.h.h.h.h.h.h.h.h.h.h.h.h.h.h.h.h.h.h.h.h.h.h.h.h.h.h.h.h.h.h.h.h.h.h.h./ &.NXbX/.*.( f.D ].DXDXDXDXDXDXDXDXDXDXDXDXDXDXDXDXDX",
"DXDXDXDXDXDXDXDXDXDXDXDXDXDXDXDXDXDXDXVXSXSXBXBXCXSXDXDXDXAX3 f.h.g.} F % a.h.h.h.h.h.h.h.h.h.h.h.h.h.h.h.h.h.h.h.h.h.h.h.h.h.h.h.h.h.h.h.h.h.h.} & 6.*.~ f.h.a.Z -XDXDXDXDXDXDXDXDXDXDXDXDXDXDXDXDXDXDX",
"DXDXDXDXDXDXDXDXDXDXDXDXDXDXDXDXDXDXDXnX7 M S G G Q q.r.M.@Xt.M h.h.h.h.h.h.h.h.h.h.h.h.h.h.h.h.h.h.h.h.h.h.h.h.h.h.h.h.h.h.h.h.h.h.h.h.h.h.h.} * K s.h.h.h.~ A qXjXqX,Xc.0.T.tXDXDXDXDXDXDXDXDXDXDXDXDX",
"DXDXDXDXDXDXDXDXDXDXDXDXDXnXeXmXDXDXDXDXnX> f.h.g.s.p.} ( W G S } h.h.h.h.h.h.h.h.h.h.h.h.h.h.h.h.h.h.h.h.h.h.h.h.h.h.h.h.h.h.h.h.h.h.h.h.h.h.} h.h.h.h.h.A @ S F F K ^ ( M I.DXDXDXDXDXDXDXDXDXDXDXDXDX",
"DXDXDXDXDXDXDXDXDXDXDXDXDXAX# M C R.dXZXDXyXM g.h.h.h.h.h.h.h.h.h.h.h.h.h.h.h.h.h.h.h.h.h.h.h.h.h.h.h.h.h.h.h.h.h.h.h.h.h.h.h.h.h.h.h.h.h.h.h.h.h.h.h.h.f...f.h.h.h.h.} M #XBXxX>X}.Q.sXDXDXDXDXDXDXDXDX",
"DXDXDXDXDXDXDXDXDXDXDXDXDXDXXXa h.a.Q B 7.2X9.G h.h.h.h.h.h.h.h.h.h.h.h.h.h.h.h.h.h.h.h.h.h.h.h.h.h.h.h.h.h.h.h.h.h.h.h.h.h.h.h.h.h.h.h.h.h.h.h.h.h.h.h.h.h.h.h.h.h.^ f ~ J D H ^ - :XDXDXDXDXDXDXDXDXDX",
"DXDXDXDXDXDXDXDXDXDXDXDXDXDXZX-.G h.h.h.s.~ M   / h.h.h.h.h.h.h.h.h.h.h.h.h.h.h.h.h.h.h.h.h.h.h.h.h.h.h.h.h.h.h.h.h.h.h.d.g.g.h.h.h.h.h.h.h.h.h.h.h.' T  .h.h.h.h./ N K } g.h.} X.1XDXDXDXDXDXDXDXDXDXDX",
"DXDXDXDXDXDXDXDXDXDXDXDXDXDXDXvXd ) h.h.h.h.h.s.^ g.h.h.h.h.h.h.h.h.h.h.h.h.h.h.h.h.h.h.h.h.h.h.h.h.h.h.h.h.h.h.h.h.h.] e q ` h.h.h.h.h.h.h.h.h.h...r w e n ' h.h.h.h.h.h.s.A {.CXDXDXDXDXDXDXDXDXDXDXDX",
"DXDXDXDXDXDXDXDXDXDXDXDXDXDXDXDX0X& ..h.h.h.h.h.h.h.h.h.h.h.h.h.h.h.h.h.h.h.h.h.h.h.h.h.h.h.h.h.h.h.h.h..._ R I m ..h.c q q [ h.h.......d.h.h.h.h.I q q q q q [ h.h.h.g.K a ) z.Z.Z.%X6X9X6XwXNXDXDXDXDX",
"DXDXDXDXDXDXDXDXDXDXcXwX9X9X6X9X=X) d g.h.h.h.h.h.h.h.h.h.h.h.h.h.h.h.h.h.h.h.h.h.h.h...' R [ h.h.h.h.h.h q q q q  ...r q q ....j q e q t h.h.h...t q q q q k g.h.h.h.) / / W H D S G G D F F A  XDXDXDX",
"DXDXDXDXDXDXpX`._.P.D D D D F F D D A ) h.h.h.h.h.h.h.h.h.h.h.h.h.h.h.h.h.h.h.h.h.g.U r q q q v g.h.h.g.r q q q q ..` q q t h.' q q q q L h.h.h._ w q q q e [ h.h.h.h.h.h.h.h.h.h.h.h.h.h.} F 9.AXDXDXDX",
"DXDXDXDXDXDXSXpXJ.*.( h.h.h.h.h.h.h.h.h.h.h.h.h.h.h.h.h.h.h.h.h.h.h.h.h.h.h.h.h.g.c q q q q q q n h.h.g.q q q q t h.v q q v h.m q q q q [ h.h.g.j q q q q U h.h.h.h.h.h.h.h.h.h.h.h.h.} B u.gXDXDXDXDXDX",
"DXDXDXDXDXBX&X$X%XB.^ M K s.h.h.h.h.h.h.h.h.h.h.h.h.h.h.h.h.g.| [ ]  .h.h.h.h.g.n q q q q q q q q [ h...q q q q c g.r q q U g.t q q q k h.h.h.] w q q q k g.h.h.h.h.h.h.h.h.h.h.h.g.K L.MXDXDXDXDXDXDXDX",
"DXDXDXDXQ.o.D D G G G D - % K s.h.h.h.h.h.h.h.h.h.h.h.g.] m t q q q q _ h.h.h.T q q q q q q q q q P h.[ q q q q I ' q q q _ ] q q q q _ h.h.h.v q q q w [ h.h.h.h.h.h.h.h.h.h.s.K A } k.b.b.Z.6XCXDXDXDX",
"DXDXDXDXAX`.X.) k.h.h.h.h.h.h.h.h.h.h.h.h.h.h.h.h.g.R h q q q q q q q i h.h...t q q q q q q q q q k h.' q q q q R n q q q { U q q q r ..h.h. .w w w w I h.h.h.h.h.h.h.h.h.h.f./ K F G G G D S D 3.S.D.tX",
"DXDXDXDXDXDXSX_.C f.h.h.h.h.h.h.h.h.h.h.h.h.h.h.h.| q w q q q q q q q q d.h.m q q q q q q q q q q e h.T q q q q ` r q q q ..u q q q n h.h.h.P q q w i f.h.h.h.h.h.h.h.h.h.h.h.h.h.h.h.h.h.h.} J U.eXnXDX",
"DXDXDXDXDXDXDXDXbX,.( h.h.h.h.h.h.h.h.h.h.h.h.h.h.] q q q q q q q q q e g. .q q q q q q r q q q q q g.I q q q q U q q q j [ q q q q ' h.h...r q q q ` h.h.h.h.h.h.h.h.h.h.h.h.h.h.h.s.! 7._.pXVXDXDXDXDX",
"DXDXDXDXDXDXDXDXDXm.G f / h.h.h.h.h.h.h.h.h.h.h.h.` q q q q q w q q q l h.U q q q q q R g.Y q q q q g.b q q q r n q q q n Y q q q y g.h.h.Y q q q l h.h.h.h.h.h.h.h.h.h.h.h.h.s.! S K N.BXDXDXDXDXDXDXDX",
"DXDXDXDXDXDXDXDXmXK S W a.h.h.h.h.h.h.h.h.h.h.h.h._ q q q q l P q q w Y g.y q q q q I h.h.g.r q q q g.j q q q u r q q q Y j q q q L h.h.h.h q q q ' h.h.h.h.h.h.h.h.h.h.h.h.h.g.~ d / h.h.%XvXDXDXDXDXDX",
"DXDXDXDXDXpX/._.eXzXjX%Xh.h.h.h.h.h.h.h.h.h.h.h.h.R q q w n h.{ q q e  .[ w q q q j g.h.h.h.j q q t g.q q q q q q q q q I q q q q [ h.h.[ q q q k g.h.h.h.h.h.h.h.h.h.h.h.h.h.h.h.h.K M s.h.h.hXDXDXDXDX",
"DXDXDXpX9 0 _._.^.W.8.G S p f a.h.h.h.h.h.h.h.h.h.R w q q T ..j q q m h.U q q q q ' h.h.h.h.z q q c | q q q q q q e q q v q q q y g.h.h.d.T x k | h.h.h.h.h.h.h.h.h.h.h.h.h.h.h.h.b.$XoXK.+.oXvXDXDXDXDX",
"DXDXDXAXDXDXDXjXl.f./ F F ) g.h.h.h.h.h.h.h.h.h.h.Y w w q L k w q y ..h.k q q q y g.h.h.h.h.z q q L ] q q q q q q z q e u q q q L h.h.h.h.h.h.h.h.h.h.h.h.h.h.h.h.h.h.h.h.( D G G 6.).!.~.G.G.pXDXDXDXDX",
"DXDXDXDXDXDXSXy.S G } h.h.h.h.h.h.h.h.h.h.h.h.h.h.I q q w w q q q ' h.g.e q q q L h.h.h.h.h.h q q ' T q q q q q q m q q q q q q ] h.d.T b U d.h.h.h.h.h.h.h.h.h.h.h.h.h.h.h.^ d ~ h.h.b.9XSXDXDXDXDXDXDX",
"DXDXDXAXuXJ.J.sXjX9X6X=Xm.h.h.h.h.h.h.h.h.h.h.h.h.P q q q q q q U h.h. .q q q q ' h.h.h.h...q q q ..P q q q q q l I q q q q q r d.d.k q q q b h.h.h.h.h.h.h.h.h.h.h.h.h.h.h.h.h.( d / h.h.=XDXDXDXDXDXDX",
"DXDXDXsXpXtX].~.~.U.&.2.+.G F K h.h.h.h.h.h.h.h.h.m q q q q q n g.h.h.{ q q q q [ h.h.h.h.' q q v h.l q q q q q R c q q q q q n h.b q q q q e d.h.h.h.h.h.h.h.h.h.h.h.h.h.h.h.h.m.wX'.O.-XCXDXDXDXDXDXDX",
"DXDXDXDXDXDXSXfX$Xk.h.a.E S K a.h.h.h.h.h.h.h.h.h.v q q q q v g.h.h.h.[ q q q q [ h.h.h.h.c q q ] h.r q q q q q | t q q q q q ` d.e q q q q j h.h.h.h.h.h.h.h.h.h.h.h.h.h.G * S %.~.Q.J.< G.bXDXDXDXDXDX",
"DXDXDXDXDXwXl.h.} E S W a.h.h.h.h.h.h.h.h.h.h.h.h.c q q q c g.h.h.h.h.[ q q q q ' h.h.h._ q w l h. .q q q q q z ..q q q q q q  .g.e q q e e ' h.h.h.h.h.h.h.h.h.h.h.h.h.h.f.% f.h.9XDXDXDXAXVXDXDXDXDXDX",
"DXDXDXDXSX) G F ^ a.h.h.h.h.h.h.h.h.h.h.h.h.h.h.h.h q q w d.h.h.h.h.h. .q q q q k | g._ e q q ' h.] q q q q q Y [ q q q q q x h.h.Y e q u ` h.h.h.h.h.h.h.h.h.h.h.h.h.h.h.h.^ D h.h.vXDXDXDXDXDXDXDXDXDX",
"DXAXaX/.~.pXqX6X=XZ.m.h.h.h.h.h.h.h.h.h.h.h.h.h.h.r q q y h.h.h.h.h.h.g.t q q q q w e q q q v g.h.] k n P U _ g.' q q r u k ' h.h.h.d.{ g.h.h.h.h.h.h.h.h.h.h.h.h.h.h.h.h.h.h.% ..g.Z.DXDXDXDXDXDXDXDXDX",
"bX_.Q.Q.~./._.~.~._.|.w./ ( ( h.h.h.h.h.h.h.h.h.h.q q q h h.h.h.h.h.h.h.m q q q q q q w w t  .h.h.h.h.h.h.h.h.h.g. ...g.g.h.h.h.h.h.h.h.h.h.h.h.h.h.h.h.h.h.h.h.h.h.h.h.m.9X3Xy.A h.x.DXDXDXDXDXDXDXDXDX",
"DXDXDXDXDXDXDXDXZXb.s.} B d } h.h.h.h.h.h.h.h.h.d.q q q h h.h.h.h.h.h.h.] w w q q q q q e ] h.h.h.h.h.h.h.h.h.h.h.h.h.h.h.h.h.h.h.h.h.h.h.h.h.h.h.h.h.h.h.h.h.h.h.a.s S #.tXsXAXD.dXSXDXDXDXDXDXDXDXDXDX",
"DXDXDXDXDXDXDXDX9X} F F } h.h.h.h.h.h.h.h.h.h.h...q q q j h.h.h.h.h.h.h.g.n w q q q w t ' h.h.h.h.h.h.h.h.h.h.h.h.h.h.h.h.h.h.h.h.h.h.h.h.h.h.h.h.h.h.h.h.h.h.h.h.h.D / f.,XuX_.Y.G.DXDXDXDXDXDXDXDXDXDX",
"DXDXDXDXDXDXDXnXE.!.0XvXSX*X} / / h.h.h.h.h.h.h.| q q q j h.h.h.h.h.h.h.h.g.U y q y L ..h.h.h.h.h.h.h.h.h.h.h.h.h.h.h.h.h.h.h.h.h.h.h.h.h.h.h.h.h.h.h.h.k.k.h.h.h.h.) N h.Z.DXDXDXDXDXDXDXDXDXDXDXDXDXDX",
"DXDXDXDXDXbX~.Q.uXtX_.!.*.W K & a.h.h.h.h.h.h.h.{ q q q n h.h.h.h.h.h.h.h.h.h.g. .g.h.h.h.h.h.h.h.h.h.h.h.h.h.h.h.h.h.h.h.h.h.h.h.h.h.h.h.h.h.h.h.} G ) +XCXBXjX6XZ.l.@ g.b.DXDXDXDXDXDXDXDXDXDXDXDXDXDX",
"DXDXDXnX`.J._.eXsXnXBXC.h.} M f.h.h.h.h.h.h.h.h.[ q h Y d.h.h.h.h.h.h.h.h.h.h.h.h.h.h.h.h.h.h.h.h.h.h.h.h.h.h.h.h.h.h.h.h.h.h.h.h.h.h.h.h.h.h.h.h.h.f N G 2.!.`.pXnXDXQ.yXSXDXDXDXDXDXDXDXDXDXDXDXDXDXDX",
"DXDXDXDXDXDXDXDXDXSXb.h./ V g.h.h.h.h.h.h.h.h.h...` g.h.h.h.h.h.h.h.h.h.h.h.h.h.h.h.h.h.h.h.h.h.h.h.h.h.h.h.h.h.h.h.h.h.h.h.h.h.h.h.h.h.h.h.h.h.4X%Xj.- p.h.hXAXsXeX~.G.~.DXDXDXDXDXDXDXDXDXDXDXDXDXDXDX",
"DXDXDXDXDXDXDXDXDX9Xh.W D h.h.h.h.l.b.h.h.h.h.h.h.h.h.h.h.h.h.h.h.h.h.h.h.h.h.h.h.h.h.h.h.h.h.h.h.h.h.h.h.h.h.h.h.h.h.h.h.h.h.h.h.h.h.h.h.h.S K sXAXSXkX8 oXZXDXDXDXDXDXDXDXDXDXDXDXDXDXDXDXDXDXDXDXDXDX",
"DXDXDXDXDXDXDXDXDXMX&.}.wXcXvXBXZXSX5X} / } h.h.h.h.h.h.h.h.h.h.h.h.h.h.h.h.h.h.h.h.h.h.h.h.h.h.h.h.h.h.h.h.h.h.h.h.h.h.h.h.h.h.h.h.h.h.h.h.+ s.uX`.Q.~.~.1 nXDXDXDXDXDXDXDXDXDXDXDXDXDXDXDXDXDXDXDXDXDX",
"DXDXDXDXDXDXDXDXAX0 ].tXeX`._./._.=.E K * s.h.h.k.l.h.h.h.h.h.h.h.h.h.h.h.h.h.h.h.h.h.h.h.h.h.h.h.h.h.h.h.h.h.h.h.h.h.h.h.h.h.h.h.h.h.h.h.h.o k.DXDXDXSXbXpXeXSXDXDXDXDXDXDXDXDXDXDXDXDXDXDXDXDXDXDXDXDX",
"DXDXDXDXDXDXDXDXuXtXsXnXnXDXDXDXDXl.~ A n.=XjXBXSXoX/ a.h.h.h.g.h.h.h.h.h.h.h.h.h.h.h.h.h.h.h.h.h.h.h.h.h.h.h.h.) =XwX$Xh.h.h.h.h.h.l.h.h.h.O l.SXDXDXDXDXDXDXDXDXDXDXDXDXDXDXDXDXDXDXDXDXDXDXDXDXDXDXDX",
"DXDXDXDXDXDXDXDXDXDXDXDXDXDXDXDXDXL.rXCXSXbX_.~.P.! + f.l.hXOXf h.h.h.h.h.h.b.9Xh.h.h.h.h.h.h.h.h.h.h.h.h.h.h.h.- o.].AXBX9Xm.h.i.S V.jXx.h.# C.DXDXDXDXDXDXDXDXDXDXDXDXDXDXDXDXDXDXDXDXDXDXDXDXDXDXDXDX",
"DXDXDXDXDXDXDXDXDXDXDXDXDXDXDXSXQ.~.].~.`.pXAXDXC.W W Z.ZXsX; M h.h.h.h.l.wXAXQ.F h.h.h.b.-X! h.h.h.h.h.h.h.h.h.S e.bX~.Q.eXAXNX7X. g nXCX5X= wXDXDXDXDXDXDXDXDXDXDXDXDXDXDXDXDXDXDXDXDXDXDXDXDXDXDXDXDX",
"DXDXDXDXDXDXDXDXDXDXDXDXDXDXnXJ.~.uXAXDXDXDXDXSXf.: 8XSXeX4.E E h.h.k.4XCXtXQ.pXd h.h.$X;X7 H h.h.x.6Xx.h.h.h.h.K ! BXDXDXbXQ.Q.sXJ.tXG.tXVX0 DXDXDXDXDXDXDXDXDXDXDXDXDXDXDXDXDXDXDXDXDXDXDXDXDXDXDXDXDX",
"DXDXDXDXDXDXDXDXDXDXDXDXDXDXAXDXDXDXDXDXDXDXDXDXR.tXVXJ.pX6Xa a.h.%XNXaXJ.aXDXbXB h.3X;X/.pXF h.h.5.eXVXcX%Xh.h.( A cXDXDXDXDXAX].0 D.DX_.G.A.DXDXDXDXDXDXDXDXDXDXDXDXDXDXDXDXDXDXDXDXDXDXDXDXDXDXDXDXDX",
"DXDXDXDXDXDXDXDXDXDXDXDXDXDXDXDXDXDXDXDXDXDXDXnXA.tXQ.VXDXqX- %XvXnXJ.pXDXDXDXnX,.vX].`.DXsXS h.} Y.bXQ.Q.sXNX4Xb.$ cXDXDXDXDXDXDXDXaXDXDXbXeXDXDXDXDXDXDXDXDXDXDXDXDXDXDXDXDXDXDXDXDXDXDXDXDXDXDXDXDXDX",
"DXDXDXDXDXDXDXDXDXDXDXDXDXDXDXDXDXDXDXDXDXDXDX_.9 ].DXDXDXsXY.DX]./.AXDXDXDXDXSX1 Q.tXDXDXnX;.6Xo.nXDXDXAXeXG.pXSX5 DXDXDXDXDXDXDXDXDXDXDXDXDXDXDXDXDXDXDXDXDXDXDXDXDXDXDXDXDXDXDXDXDXDXDXDXDXDXDXDXDXDX",
"DXDXDXDXDXDXDXDXDXDXDXDXDXDXDXDXDXDXDXDXDXDXnX1 uXDXDXDXDXeXQ.J.sXDXDXDXDXDXDXSX5 sXDXDXDXnXA.bXJ.DXDXDXDXDXDXuXG., nXDXDXDXDXDXDXDXDXDXDXDXDXDXDXDXDXDXDXDXDXDXDXDXDXDXDXDXDXDXDXDXDXDXDXDXDXDXDXDXDXDX",
"DXDXDXDXDXDXDXDXDXDXDXDXDXDXDXDXDXDXDXDXDXDXDXSXDXDXDXDXDXJ.].AXDXDXDXDXDXDXDXDXDXDXDXDXDXSX7 G.bXDXDXDXDXDXDXDXDXnXnXDXDXDXDXDXDXDXDXDXDXDXDXDXDXDXDXDXDXDXDXDXDXDXDXDXDXDXDXDXDXDXDXDXDXDXDXDXDXDXDXDX",
"DXDXDXDXDXDXDXDXDXDXDXDXDXDXDXDXDXDXDXDXDXDXDXDXDXDXDXDXDXAXDXDXDXDXDXDXDXDXDXDXDXDXDXDXDXDX1 Q.DXDXDXDXDXDXDXDXDXDXDXDXDXDXDXDXDXDXDXDXDXDXDXDXDXDXDXDXDXDXDXDXDXDXDXDXDXDXDXDXDXDXDXDXDXDXDXDXDXDXDXDX",
"DXDXDXDXDXDXDXDXDXDXDXDXDXDXDXDXDXDXDXDXDXDXDXDXDXDXDXDXDXDXDXDXDXDXDXDXDXDXDXDXDXDXDXDXDXDX6 nXDXDXDXDXDXDXDXDXDXDXDXDXDXDXDXDXDXDXDXDXDXDXDXDXDXDXDXDXDXDXDXDXDXDXDXDXDXDXDXDXDXDXDXDXDXDXDXDXDXDXDXDX"
};
