/* XPM */
static char *dfdcbc3a50f04278b3143469d576b37c[] = {
/* columns rows colors chars-per-pixel */
"170 60 15 1 ",
"  c #00CA00",
". c #00CB00",
"X c #00CD00",
"o c #00D000",
"O c #00D700",
"+ c #00DA00",
"@ c #00DF00",
"# c #00E300",
"$ c #00E700",
"% c #00EA00",
"& c #00EF00",
"* c #00F300",
"= c #00F500",
"- c #00F800",
"; c #00FC00",
/* pixels */
"==================-===-==-=-=====---=-=----=-----=------------------------;------;---;------;-;-;-;-;-;-;-;;-;--;--;-;;-;;-;;;;;;;-;-;-;;;-;;;;;;-;;;;;;;;;;;;;;;;;;;;;;;;",
"==========-=-===-=-=-==--==-------=-=---=-----------------------;----;-;-;---;-;--;-;-;-;;-;-;-;-;---;-;-;;--;;;;;;;;-;;-;;;;-;-;;;;;;;;;;;;;;;;;;;;;;;;;;;;;;;;;;;;;;;;;;",
"=-==-=-==-====-----=-=----=----=--------------------;----;----;---;-----;-;-;-;--;-;--;-;-;----;;;-;;;;;-;-;;;-;;;-;;;;-;;;;;;;;;;;;;;;;;;;;;;;;;;;;;;;;;;;;;;;;;;;;;;;;;;",
"===-==--=-----=-==-----------------------------;---;---;--;-;--;;;-;-;;;-;-;-;-;;-;-;;;;;;;;;;;;;;;;;-;;;;;;;;;;;;;;;;;;;;;;;;;;;;;;;;;;;;;;;;;;;;;;;;;;;;;;;;;;;;;;;;;;;;",
"=------=--=-=----------------------;----;----;--------;;-;-;-;-;-;-;-;----;-;-;;;;;;;;;;-;;;-;;-;;-;-;;;;;;;;;;;;;;;;;;;;;;-;;;;;;;;;;;;;;;;;;;;;;;;;;;;;;;;;;;;;;-;;;-;;;",
"--==-=--------------------------;----;-;--;----;;;;-;-;-;-;-;-;-;-;--;;;;;;;;;-;-;-;;-;-;;;-;;;;;;;;;;;;;;;;;;;;;;;;;;;;;;;;;;;;;-;;;;;-;;--;;-----=----=====****=***=*&**",
"-=--------------------;-;----;-;----;---;-;-;-;--;-;-;-;-;;--;-;;;;;;;;;;;;-;;;;;;;;-;;;;;;;;;;;;;;;;;;;;;;;;;-;--;-------===*==*&&&*&%%%%$$$$$#$#@@@@@@+++++++O+OOOOOOOOO",
"---------------;---;------;-----;--;-;-;-;-;-;-;;-;-;-;--;;;-;;;-;-;;-;--;;;-;-;-;;;;;;;;;;;;;;;;;;;;-;---====***&&&&%%$$$##@@@@+OOOOOOooOoooXXXXXXXXX..X.XX.X.X.X..X.....",
"--------------;------;-;;---;-;--;-;-;;--;-;-;;---;;;;;;;;;--;;;;;;;;-;;;;;;;;;;;;;;;;-;---=-=**==**&&%%%$$###@@++OOOOOoooXoXXXXX.X.......................X.X.X..X.X.X.X.X",
"-----;--;--;-;--;-;------;-;-;-;;-;-;--;;-;-;-;;;;;--;-;-;;;;;;--;-;;;;;;;;;;;;;-=;---=*=**&*%%$$#@@@@+OOOoooXXXXX..........X........................XX.X..X.X.XX.X.X.X.X.",
"--------;----------;;-;-;-;-;-;--;-;-;---;;;;-;--;;;;;;-;-;--;;-;;;;;;;-;-;=-===**&&&%$$$#$@++OOOoooXXXXXXX...................................X.X.X.X.X.X.X.X.X..X.X.X.X.X",
";-;--;-;---;-;-;-;-;-;-;-;-;-;-;;-;-;-;;-;-;;;;;;;;--;;;;;;;;;;;;;;---===***&%%%$###@++OOoooXX..X..........................................X.X.X.X.X.X.X.X.X.X.XX.X.X.X.X.",
"----;-------;-;-;-;-;-;-;-;-;-;--;;;;;;;;-;;;-;-;;;;;-;;;--;;----==**&&%%$$###@++OOXoXX.X... .........................................X.X.X.X.X.X.X.X.X.X.X.X.X..X.X.X.X.X",
";--;----;;;--;-;-;-;-;-;-;-;-;;;;;-;-;-;;;-;;;;;;--;;;;--;-=-=***&%%$$##@@++OooX....X................................................X.X.X.X.X.X.X.X.X.X.X.X.X.XX.X.X.X.X.",
"----;;-;-;-;;-;-;-;-;-;-;-;-;-;-;-;;;;;-;;;;;-;;;;;;---=-*=**&%%$###@++OoOooXXXX. ................................................X.X.X.X.X.X.X.X.X.X.X.X.X.X.X..X.X.X.X.X",
"-;;-;-;-;-;--;-;-;-;-;-;-;-;;;;;;;-;-;;;-;-;;;-;-----===*&%%$##@@@+O+oooXXXX.....................................................X.X.X.X.X.X.X.X.X.X.X.X.X.X.X.XX.X.X.X.X.",
"-;-;-;-;;-;-;-;-;-;---;;-;;;-;-;;;-;-;-;;;-;-----=**&*&%$$$#@@++OooooXXX...         ..........................................X.X.X.X.X.X.X.X.X.X.X.X.X.X.X.X.X..X.X.X.X.X",
";-;-;-;--;-;-;-;-;-;;;;;;;;-;;;;;-;;;;;;-;;----=**&&%$$##@@+++OOoXXXXX..  .       .............................................X.X.X.X.X.X.X.X.X.X.X.X.X.X.X.X.XX.X.X.X.X.",
"-;-;-;-;;-;-;-;--;;;-;-;-;-;;;-;;;;;-;-;;---=**&&&&$$$#@+++OOoXXXXX.....         ...........................................X.X.X.X.X.X.X.X.X.X.X.X.X.X.X.X.X.X..X.X.X.X.X",
";-;-;-;--;-;-;-;;-;;;;;;;;;;;-;;;-;-;-;---==*&&&%%$##@@+++OOoXXXXXX.....        .............................................X.X.X.X.X.X.X.X.X.X.X.X.X.X.X.X.X.XX.X.X.X.X.",
"-;-;-;-;;-;-;-;-;;-;;;-;;-;--;-;;;-;-;---=**&%%%%$#@@+O+OOooX.X.... ..         .............................................X.X.X.X.X.X.X.X.X.X.X.X.X.X.X.X.X.X..X.X.X.X.X",
";-;-;-;--;-;-;;;;-;;;-;;;;;;;;;;-;;-;--==*&%&%%%$#@++++OOoXXX..X..  ..         ..............................................X.X.X.X.X.X.X.X.X.X.X.X.X.X.X.X.X.XX.X.X.X.X.",
"-;-;-;-;-;;;;;;-;;;;;;;;;-;;;--;;-;---*=*&%&%&%$$@@++O+OOoXX.X.X..            ..............................................X.X.X.X.X.X.X.X.X.X.X.X.X.X.X.X.X.X..X.X.X.X.X",
";-;-;-;-;-;--;;;;-;-;-;-;;-;;;;--;-;--***&&%%%$$@@+O+O+OoXXXX.X...            ...............................................X.X.X.X.X.X.X.X.X.X.X.X.X.X.X.X.X.XX.X.X.X.X.",
"-;-;-;-;-;;;;-;;-;-;-;-;;-;;;-;--;-;-=**&%%&%%$##+++++OOOXX.X..X...           .................................................XX.X.X.X.X.X.X.X.X.X.X.X.X.X.X.X..X.X.X.X.X",
";-;-;-;-;;-;;;-;;;;;;;;;;;-;-;-;;-;--=**&&&%%%$##@+++O+ooXXX.XX...             ..................................................X.X.X.X.X.X.X.X.X.X.X.X.X.X.X.XX.X.X.X.X.",
"-;-;-;-;-;-;;;;;;;-;;;-;;;;;;-;--;---==**&%&%%$#@@@++O+OooXXXX.X..    ..       .................................................X.X.X.X.X.X.X.X.X.X.X.X.X.X.X.X..X.X.X.X.X",
";-;-;-;;;;;;-;-;;-;;;-;;-;-;;;-;;-;--==*&&&&%%$###@+++OOOOoXX.X....   ..        ...................................................X.X.X.X.X.X.X.X.X.X.X.X.X.X.XX.X.X.X.X.",
"-;-;--;;-;;;-;-;;;;;-;;;-;-;;;-;-;----==**&%&%$$$#@@@+++OooXXXXX..X.....        .....................................................XX.X.X.X.X.X.X.X.X.X.X.X.X..X.X.X.X.X",
";-;-;;-;;;;-;;;;;-;-;;;-;;;;-;;-;-;---=-*&*&&%$%###@@+@+OOOOoXXX..XX....         ......................................................X.X.X.X.X.X.X.X.X.X.X.X.XX.X.X.X.X.",
"-;-;-;;;-;-;;;-;-;;;-;-;;;-;-;;;-;;----===*&&&&%$$$##@@++O+oOoooXXXX....          .......................................................XX.X.X.X.X.X.X.X.X.X.X..X.X.X.X.X",
";-;-;;-;;;;;;-;;;;;-;;;;;-;;;;;-;;-;----==***&&%%$$###@@@@++OOooXXXX..X..           .......................................................X.X.X.X.X.X.X.X.X.X.XX.X.X.X.X.",
"-;-;;;;;;-;;;;;-;;;;;-;;;;;-;;;;;;-;-;-----==**&&%%$$###@@@++OOOoXoXXXXX...X....    .........................................................XX.X..X.X.XX.X.X.X..X.X.X.X.X",
";-;--;-;;;-;-;;;-;-;;;-;-;;;-;-;-;-;;--;----==***&&%%%$###@#@++O+O+XoXXXXXXX....    .............................................................XX.X.X..X.X.X.XX.X.X.X.X.",
"-;-;-;;-;;;;;-;-;;;-;;;;;-;-;;;-;;;;;;;-;----====**&%%%$$####@@@+++O+XXoXXXX..X.      .............................................................XX..XX.X.X.X..X.X.X.X.X",
";-;--;;;-;-;;;;;-;;;-;-;;;;;-;;;-;-;-;;;;-;----===*=*&&&%$$$###@@#+++++X+oXXXXXX..    ................................................................X..X.X.X.XX.X.X.X.X.",
"-;-;-;;;;-;-;;;-;;;;;-;-;-;;;-;;;;;-;;;-;;;-------==****&&%%$$$###@@+++OOOXooooX.XXXXX..... ..............................................................X..X.X.X.X.X.X.X",
";-;-;--;;;;;-;;;-;-;;;;;;;-;;;-;-;;;-;;;-;;;;;-;;---==*=*&*&&%%$$$####@@++++OoOo.XoXXX....  ................................................................X.X.X.X.X.X.X.",
"-;-;-;;;;-;;;-;-;;;-;-;;;;;;;;;;;-;-;-;-;;-;;;;;;-------*=***&&&&%$$$###@@#+++OO+Xo+XoXXXX......................................................................X..X.X.X.X",
";-;-;--;;;-;;;;;-;;;;;-;-;-;-;-;;;;;;;;;-;;;;;;;;;;;----=-==***&&&&%%$$$$###@@+++OOO+X++oX..XXXX....................................................................X.X.X.",
"-;-;-;-;;--;;;;;;;;;;-;;;-;-;-;-;-;-;-;-;;;-;-;;;;;;;;;------===**=*&&%&%%$$$###@@+++OOOoOooooooXXXX....................................................................XX",
";-;-;-;;;;;;;-;--;-;;;-;;;;;;;;;;;;;;;;;-;;;;;;;;;;;;;;;;;------====***&&&%%%%$$#$##@@+++++OOOoooooooXXXX.................................................................",
"-;-;-;;--;;;-;;;;;;-;;;;;-;;;-;;;-;;;-;;;-;-;-;-;;;;;;;;;;;;;;--=---==****&*&&%%%%$$$###@@+++++OOOOoooOoooXXXX.X..........................................................",
";-;-;--;;-;-;;;--;;;-;-;;;-;;;-;;;-;;;-;;;;;;;;;-;;;;;;;;;;;;;;;-;---=====*=***&&&&%%%%$$#$#@@@+++++OOOooOooooooXX........................................................",
"-;-;;-;-;--;;;;;;;;;;-;-;;;-;;;;;;;-;;;;;-;-;;;--;;;-;;;;;;;;;;;;;;;-;------====***=*&&%%%%%$$###@@+++++++OoOoooooooooXXXX...X............................................",
";-;--;-;-;-;;-;--;-;;;;;-;;;-;-;-;;;-;-;;;;;-;;;;;;-;;;;;;;;;;;;;;;;;;;;-;;---======****&*&&&&%%%$$$$##@@@+++++OOOOOoooOooooXX.X.X........................................",
"-;-;;-;-;-;-;;;;;;;-;-;;;-;-;;;-;-;-;;;-;-;;;-;--;-;;;-;;;;;;;;;;;;;;;;;;;;;;;-;-----=*===**&&*&&&%%%$$$$####@@++++++OOOOoooooooXXXoXXXX.X................................",
";-;--;-;-;-;--;--;;;;;-;;;;;-;;;;;;;-;;;;;-;;;;;;;;;;-;;;;;;;;;;;;;;;;;;;;;;;;;;;;;;--=======*==*&*&&&&%%%%%$$####@@+@++++++OOOOOoOoooooXXXXXX..........................XX",
"-;-;-;-;-;-;-;-;;-;;;;;-;;;;;-;;;-;;;;;-;-;-;;;-;;;-;-;;;-;-;;;;;;;;;;;;;;;;;;;;;;;;;;;;-;----=-====*=***&&&&%%%%$$$$###@@@+@+++O+OOOooOoooOoooXooXXXXXX.XXX..............",
";-;-;-;-;-;-;-;--;-;-;;;-;-;;;-;;;-;-;;;;;;;-;;;-;;;;;-;;;;;;;;;;;;;;;;;;;;;;;;;;;;;;;;;;;;;;;;---=-====*=*=****&&%&&%%%$$$$####@@@@@+++++OOOoOOooooooXXXXXXXX.X.....X....",
"-;-;-;-;-;-;-;-;;-;;;-;-;;;-;;;;;;;;;-;-;-;;;-;-;-;-;;;;;-;;-;-;;;;;;;;;;;;;;;;;;;;;;;;;;;;;;;;;;;;;----====**==*****&&&&%%%%$%$$$$###@@@@@++++O++OOOOoOOoooooooooXXXXXXXX",
";-;-;-;-;-;-;-;--;-;;;;;-;;;-;-;-;-;;;;;;;-;;;;;;;;;-;-;;;-;;;;;;;;;;;;;;;;;;;;;;;;;;;;;;;;;;;;;;;;;;;;-;;;--=--===*=**=***&&&&&&%%%%$$$$#$####@#@@+@++O++OOOOOoOoOooooXoX",
"-;-;-;-;-;-;-;-;;-;--;;-;;;;;-;-;-;-;;;-;-;-;;;;;;;;;-;;;-;-;;;;;-;;;-;;;;;;;;;;;;;;;;;;;;;;;;;;;;;;;;;;;;;;;;;----------===*=**=***&&&&%%%%%$$$#$$######@@@@+++++OOOOOOOO",
";-;-;-;-;-;-;-;--;-;;--;-;-;;;;;;;;;-;;;;;;;-;-;-;-;;;-;;;;;-;-;;;-;;;-;;;;;;;;;;;;;;;;;;;;;;;;;;;;;;;;;;;;;;;;;;;;;;;-;-----=====********&*&&&&%%%%%$$#$########@#@@@+@++",
"-;-;-;-;-;-;-;-;;-;-;-;-;;;-;-;;;-;;;-;-;-;;;;;-;;;-;;;;;-;;;;;-;;;;;;;;;;;;;;;;;;;;;;;;;;;;;;;;;;;;;;;;;;;;;;;;;;;;;;;;;;;;-;------=--=======*****&*&&&%%%%$%%$$$#$######",
";-;-;-;-;-;-;-;--;-;-;-;-;-;;;-;;;-;;;;;;;-;-;;;-;;;-;-;;;-;-;;;-;-;-;-;;--;;;;;;;;;;;;;;;;;;;;;;;;;;;;;;;;;;;;;;;;;;;;;;;;;;;;;;;;;--------=-=-====*********&&&&%%%%%%$$$",
"-;-;-;-;-;-;-;-;;-;-;-;-;-;-;;;;;;;-;-;-;-;;;-;-;-;;;-;-;-;;;-;--;-;-;-;;;-;;;;;;;;;;;;;;;;;;;;;;;;;;;;;;;;;;;;;;;;;;;;;;;;;;;;;;;;;;;;;;;;-;-;;=--------=-=====*=**&***&&",
";-;-;-;-;-;-;-;--;-;-;-;-;-;-;-;-;;;;;;;;;-;;;;;;;-;;;;;;;-;;;;;;;;;;;;;;-;;;-;-;;-;;;;;;;;;;;;;;;;;;;;;;;;;;;;;;;;;;;;;;;;;;;;;;;;;;;;;;;;;;;;;;;;;;---;-------===-====**",
"-;-;-;-;-;-;-;-;;-;-;-;-;-;-;-;-;;;-;-;;;;;;;-;;;;;;;-;;;;;;;-;;;;-;;;-;;;;;-;;;-;-;;-;;;;;;;;;;;;;;;;;;;;;;;;;;;;;;;;;;;;;;;;;;;;;;;;;;;;;;;;;;;;;;;;;;;;;;;;;--;------=-",
";-;-;-;-;-;-;-;--;-;-;-;-;-;-;-;--;;;;-;-;-;;;-;-;-;;;-;-;-;;;-;;-;;;-;;;-;-;;;-;;;;;;;;;;;;;;;;;;;;;;;;;;;;;;;;;;;;;;;;;;;;;;;;;;;;;;;;;;;;;;;;;;;;;;;;;;;;;;;;;;;;;-;;--"
};
