/* XPM */
static char *_f7c83027ce44804f3374e8c726a5bff[] = {
/* columns rows colors chars-per-pixel */
"100 60 74 1 ",
"  c #5A340E",
". c #5B340E",
"X c #5B350E",
"o c #5F360E",
"O c #60370E",
"+ c #62370E",
"@ c #63380E",
"# c #64380E",
"$ c #64390E",
"% c #663A0E",
"& c #673B0F",
"* c #683C0F",
"= c #693C0F",
"- c #6A3D10",
"; c #6B3E11",
": c #6D3F11",
"> c #6C3F12",
", c #6E4013",
"< c #6E4113",
"1 c #704214",
"2 c #714315",
"3 c #724315",
"4 c #734416",
"5 c #734516",
"6 c #754618",
"7 c #774819",
"8 c #794A1B",
"9 c #7B4C1D",
"0 c #7D4E1E",
"q c #7D4E1F",
"w c #7F5020",
"e c #7F5021",
"r c #815222",
"t c #815223",
"y c #825222",
"u c #845424",
"i c #845425",
"p c #865627",
"a c #875727",
"s c #895929",
"d c #8B5B2B",
"f c #8C5B2B",
"g c #8C5C2B",
"h c #8E5E2D",
"j c #8E5E2E",
"k c #916030",
"l c #936332",
"z c #966535",
"x c #986837",
"c c #996837",
"v c #9B6A39",
"b c #9E6D3B",
"n c #9E6C3C",
"m c #A06F3E",
"M c #A37140",
"N c #A37240",
"B c #A57342",
"V c #A57442",
"C c #A77644",
"Z c #A77645",
"A c #A87644",
"S c #AA7846",
"D c #AA7847",
"F c #AC7A48",
"G c #AC7A49",
"H c #AE7C4A",
"J c #B07E4C",
"K c #B3824F",
"L c #B4814F",
"P c #B4824F",
"I c #B58351",
"U c #B78452",
"Y c #B88553",
"T c #B88653",
/* pixels */
"YYYYYYYYYYYYYUYYYYYYYYYYYYYYYYYYYYUUUTTTYYYYYYUYYYYYYYYYYYYYYYYYTYYYTTYYYYYYYYYYYYUUTTTTYYYYYYYYYYYY",
"UUUUIYYYUUYIUUUUUYYIYYUIYUUUUIUUYYUUUUUUUUUUUUUIUUUUIYYIYYUUUUUUUIUUUUYIIUUYUUUUUUUUUUUUYIIYIYYIUUUU",
"IIUIIIIIULUIIIUIIIIIIIIIUUULIIIUUULUUUUIIIIUUULUULUUIIIULUULULUUIIIIUYIIUUULIIIUUULUUUUUIIIIYUIIULUU",
"KKKKLLLLKKKKLLKKLLJKLKLLKLLLKKKLKLLKKLLKLLLLKKKKKKKKLKKLLLLLKKKKIKKKIJILKLLLLLLLKKKKKKKKKKKILLKKKKKK",
"JJKJLKKJJKLJJKJLKJKKJKHKKJKKJKKJJKJKKKKJKJKJJKJKKKKHLKKJKJKLKJLKKJKJKJKKKJKKJKKJJKLJHKHKKJKJKJKKKKKJ",
"JJJJJJJJJJJJJJJJHKJJJJJKJHJJJHJJJJJJHHJJJJJJJJJJHHKHJJJJJJJJHJHHJJJJJJJJJHJJJHJJJJJJKHHKJJJJJJHKJHJJ",
"JGHHGHHHHHGJJGGJHHHJHHHHHHHHHHHHHHHHHHHHHHHHHHHHHHHHGHHHGJJGGJKDHHJJDJHHHHHHHHHHHHGJJGDKJHHJDJHHHHHH",
"GGGGFFFFFFFFGGGFDHDDHDGDGGGFGGFGGGFFFFGGGGFGGGHSDHDHGGGFFFGFGGGGJDDDHDHDGGGGGGGGFFGFGGGDGGDGGDHDGGGF",
"SSSSSSSSSSSSSSSSSDDSSSSSSSSSDSSSSSSSSSSDSSSSSSSSSSSSSSSFAFHSSDDDDSDSSSSSDDDDSSSSSSSDSSSSDDDDSSSDSSSG",
"SZZZZSVZAAAAAAAZVZZZZSZSSZZZSZVZAAAAAAZAZZAAAASAAAAAAASAAAAAZVASVZSZSZSVAAAZZZZZAAAAZSZAAAZDZVSZAAAA",
"VVVVVVVVVVVVVVVVVVVVVVVVVVVVVVVVVVVVVVVBVVVVVVVBAVVVBBBBMMAMZMVZVVVVVVVVVVVVZVVVVVZMVVVVVVVVVVVMVVVV",
"MmMMMMMMMMMMMMMMMMMMMMMMMMMMMMMMMMMMMMMMMMMMMMMmMMMMMMmmMMNNMMMMMMMMMMMMMMMMMMMMMMMMMmVmMMMMMVMMMMMm",
"mmmmnMmmmnmmmmmmmmmmmmmmmnMmnMmmmmmmmmbmmmmmmmmmnmmmmmmmmmmmmmmmmmmmmmMnMnmmnMnMMnnMnmmmMnnMnmmmmmmm",
"mbbbnnnnnbbbnbnbbbbbmbbnbnnbbnnnnnbnbbnnnnbbbbnnnnnmmmvmnmnnbnnnbbbnnnnnbnnnnbnnnnnbnnbmnnnbnnbmnnnn",
"vvvvvvvvbvvvvvvvvvvvvvvvvvvvvvvvvvvvvncnvvvvvncnvvvvvvvvvvnvcnvvvvvvvvvvvvvvvvvvvvvvvvvvvvvvvvvvvvbv",
"cccccxcccccccccccccccxccxccxcccbvvxxxxxxvvxxxxxxccccccxxxxxxxxxxccxvxxcccxvvxxcnvvxcvxccvvxcvxcccccc",
"zzzzzzzzzzzzzzzzzzzzzzzzzzzzzzzzzzzzzzzxzzzzzzzzzzzzzzzzzzzzzzzzzzzzzzzzzzzzzzzzzzzzzzzzzzzzzzzzzzzz",
"lllllllllllllllllllllllllkkzlklllllllzkkllkzlllkllllllllllkzlllllkllllkzllllllllllllllllllkzllllzkll",
"kkkkkkkkkkkkkkkkkkkkkkkkkkkkkkkkkkkkkkkkkkkkkkkkkkkkkkkkkkkkkkkkkkkkkkkkkkkkkkkkkkkkkkkkkkkkkkkkkkkk",
"hhhhhhhhhhhhhhhhjjjjjjjjhhhhjjjjjjjhhhhhjhjjhhhhjhhhhhhhhjjjjjjhhhhhhhjjjjjhhhhhjjjjhhhhjhjhhhhhhhhh",
"hdshhdddggfffgggffshffffhhshdhdfhdddhhsfhdfffhshdddhddhsfshfhddfhffffffhhdhfffksfhffgfffhdffhshshddh",
"sssssssssssssssssssssssssssssssfsssssssssssssssssssdssssssssssssssssssssssssssssssssssssssssssssssss",
"iaiaspppaaiaaaaiapppspaasiisppaaapppsiisisppaaapaaaaisispspapppsaaapissippsiiasipappsaisisppaaasipaa",
"iiuiiiiiiiiiiiiiiiiiiiiiiitiiiittiiiiiiiiiiiiiiitiiiiiiiiiiiiiiiiiiiiiiiiiiiiiiiiiiiiiiiiiiiiiitiipr",
"ttttrrtrrrrrrrrrtttrttttttiqqttttitttiirqtttttttttttttqttttititttttttttttttttttritiitiiiyyyytyttirtt",
"eeeewweeeewwwwr0tqqrqrqrqr0rrqrqqrqqtqrqrqtqqrrqtqrqtqrr0tqtqqqreqeeeteetqtqqtqqqrqqqqq0wweeeteeeeqt",
"00000000000000000000q9qq00r0qr0000q00000qqqqrq0qqqqrqqtq0009q00qq9qqeqeq9qqttqqrq0q0q0qq00099w9e000q",
"999999999900999999000998099908989090999990979098999q797909099990q9989898999q7997909099909999w7w79090",
"8888888888888888888888888898888888888888797997979797797988889797888897979797797979799888888888887988",
"7777777777767776777777777777777777777777777777777777777777777777777777777777777777777777777777767777",
"6666666666666666766667676767677766776676776737776776772747474774777766773776667772777766776766664477",
"6555555563366655633633333333333333336336333733333363622722733437423233363733662262333333326622557342",
"33223315222261,551515115515133353353353133313333316133,161223223333331222223133133311331333515221313",
"1111111,1,,2,111,<<1,,11,5,<,5,,3311,111311,11311,11335,1,221,11>3,33,,21,11133111311111,3,,1,,21111",
">,,,,,>1,:2,,,,,,1,11,1,,,,,,,,,>,,,,,,,>11>>1,,,1>,3>,>,,,,,,:,>31>>,,1,,,,>31>>>31>1>1,3>3,;,1111>",
":,>>>,>>-,,*,:>,,,,,-,-,,,,;,,;,,,;;,;,,>>>>>>>>>>>>>>>>>>,:*,:,>>>>>>,,,-,:>>>>>>>>>>>>>>>>,,,,>>,*",
";,>*::*>,,,*>>::*,---,-,*,-,;;;;,**,*,*,*>>:;1>1>::*>>*>>>::,,**>*>:;;;;,-:*>>:*>>::>::*>*>>*,;>>>>:",
"**,**:*>*-**>*%>*-,**--*-*,*;;;;**,*,***:>%>**%*>*%:%:::***>,*:*>>*>&;=;**:*>*%:>%*>*>>%,**:;**&**>*",
"$:**:$$:******%*****-**-****=&%;**,$***************:*>$**%**********;$&=******::$%>%$:*:******==$>$%",
"%%%%**$**$***%*%*$$*%*%%*%$$==%%$*$*$*$**%*%$*%%$%%%%%%**%%*%$**%**$**==****$%$%:%%%%%%$$*$***=%%*%*",
"%%%%%%%%%%%%%%%%%%$%%%%%%%%%%%%%*%%%%%%%%%%%$%%%%%%%%$$$%%$%%%%%%%%%%%%%%$%%%%$$$%%%$%%%%$%%$=$%%%%%",
"%%$$%$%%$##%#%$$%%$%%%$$$$#%#%$$$%%%%$#$%#%%$$%$%$%$%#%@%%#%%%%#$$$%$%$$%$%$%#%$%%#%#$$%%$%%@$$$%%$$",
"%$$@$$###%#O#$$@$$$$$$$%@@@@#$#@$$$$@@@@$@##@$@@##$$$#@@#$$$#$#$@$@@#$$@$#$$##@@#$$#@@@@$@$$@@@@$#@$",
"$@#@#@@@O######@$$OO##O#@@@@#@#@@@@@@@@@$@@@@@@@@#@@@#@@#$#@@@@#@@@@#@#@##@@@#@@#@##@@@@$@##@@@@$#@@",
"@@@#@@@@##+O#OO#O####O####@@@@@@@@@@@@@@#@@@@@@@@@@@##@@o@@@@@@@@@@@o@@@@@@@@@@@@@##@@@@#@@@o@@@@@@@",
"o@o@@o@oO+O+.++#OO+OOO#O.@o@o@.@@o@.oo@.o@o@oooo@@oo#.o@o@@.@oo@o@oo@@oo@@ooo@.@@o.@o@@.o@@ooo@oo@.@",
"@o@.@@o@OO+O#OOOO#+.OOoO@@@@o@@oo@o@@@o@@@o@@@@@@@o$@@.@@o@@.@@o@o.@@o@oo@@o@@@o@@@@o@o@@@o@@@o@@@@o",
"oo@o.ooo+#.#.++OO.+++OOO.@.oooooo@o@ooo@oooooooooooo.@@@ooo@o@ooo@o@ooo@o@oooooooo.o@oo@ooo@ooo@o.@@",
"oooooooooooooooooooooooooooooooooooooooooooooooooooooooooooooooooooooooooooooooooooooooooooooooooooo",
"ooooooooooooooooooooooooooooooooooooooooooooooooooooo@oooooooooooooooooooooooooooooooooooooooooooooo",
"oooooooooo ooo oooooooooooo oooooooooooo oooooooooooo oooooooooooooo oooo@oooooooooooooooooo @oooooo",
"o oo o ooo@ooo ooo @ o oo o@o@ o o o o @ o@ oo o o ooo oo o  o o@ ooo o o ooo oooo @ o o o o ooo @ o",
"  o @ @ o @   o o o o o  oo o o @.@ o o o @ o @ o @ o o o o @ o @ o o @   o o o   @ o @ o o @ o o o ",
" @ o o o o o @ o @ o o oo  o o o ... o o o o O o o o o @ o @ o o o o o o o o o o o.. o o @ o o o o @",
"  o  o   @   o @  o @  o  oo@ o  @.@ o @ o o            o o @ o    o @     oo  o @.@   o o @        ",
"o o o o   o o    o o    o      o .  o     o o o oo Ooo o o     oo o    o@ o o o     @   o   o o oo o",
"o  oo  o        o  o  o  o  o  o  o  o  o  o  o o  oo  o  o  o          o  o            o  o  o     ",
"   .    ..o. oo .     .    o   .....    ..    ..   .   . o..    o. oo         o ..o. oo ..    .   o ",
"   .    .... o     oo     ..  ......  o ....o  .  ..  .. ...  o ....   o    o o ....    ... o   o o ",
"        ....                    ....                      .                     ....                "
};
