/* XPM */
static char *_c13582bc9224e2986a9348ed0e59854[] = {
/* columns rows colors chars-per-pixel */
"100 60 203 2 ",
"   c black",
".  c #010101",
"X  c #020202",
"o  c gray1",
"O  c #040404",
"+  c gray2",
"@  c #060606",
"#  c #070707",
"$  c gray3",
"%  c #090909",
"&  c gray4",
"*  c #0B0B0B",
"=  c #0C0C0C",
"-  c gray5",
";  c #0E0E0E",
":  c gray6",
">  c #101010",
",  c gray7",
"<  c #131313",
"1  c gray8",
"2  c #151515",
"3  c #161616",
"4  c gray9",
"5  c #181818",
"6  c #191919",
"7  c gray10",
"8  c #1B1B1B",
"9  c gray11",
"0  c #1D1D1D",
"q  c #1E1E1E",
"w  c #202020",
"e  c gray13",
"r  c #222222",
"t  c #232323",
"y  c gray14",
"u  c #252525",
"i  c #272727",
"p  c #282828",
"a  c gray16",
"s  c gray17",
"d  c #2F2F2F",
"f  c gray19",
"g  c #323232",
"h  c gray20",
"j  c #343434",
"k  c #353535",
"l  c gray21",
"z  c #393939",
"x  c gray23",
"c  c #3C3C3C",
"v  c gray24",
"b  c #3E3E3E",
"n  c #3F3F3F",
"m  c gray25",
"M  c #414141",
"N  c gray26",
"B  c #434343",
"V  c #444444",
"C  c gray27",
"Z  c #464646",
"A  c gray28",
"S  c #484848",
"D  c gray29",
"F  c #4C4C4C",
"G  c gray30",
"H  c #4E4E4E",
"J  c gray31",
"K  c #515151",
"L  c gray32",
"P  c gray33",
"I  c #555555",
"U  c #565656",
"Y  c #585858",
"T  c gray35",
"R  c #5B5B5B",
"E  c gray37",
"W  c #5F5F5F",
"Q  c #606060",
"!  c gray38",
"~  c gray39",
"^  c gray40",
"/  c #676767",
"(  c #686868",
")  c DimGray",
"_  c #6A6A6A",
"`  c gray42",
"'  c #6C6C6C",
"]  c gray43",
"[  c #6F6F6F",
"{  c gray44",
"}  c #717171",
"|  c gray45",
" . c #747474",
".. c #767676",
"X. c #777777",
"o. c #797979",
"O. c gray48",
"+. c #7B7B7B",
"@. c gray49",
"#. c #7E7E7E",
"$. c gray50",
"%. c #808080",
"&. c #818181",
"*. c gray51",
"=. c #838383",
"-. c #848484",
";. c gray52",
":. c gray53",
">. c #898989",
",. c gray54",
"<. c #8B8B8B",
"1. c #8E8E8E",
"2. c gray56",
"3. c #909090",
"4. c gray57",
"5. c #939393",
"6. c gray58",
"7. c gray59",
"8. c #979797",
"9. c #989898",
"0. c #9A9A9A",
"q. c #9D9D9D",
"w. c gray62",
"e. c #A0A0A0",
"r. c gray63",
"t. c #A2A2A2",
"y. c #A4A4A4",
"u. c gray65",
"i. c #A7A7A7",
"p. c gray66",
"a. c #A9A9A9",
"s. c gray67",
"d. c #ACACAC",
"f. c gray68",
"g. c #AEAEAE",
"h. c #AFAFAF",
"j. c gray69",
"k. c #B1B1B1",
"l. c #B2B2B2",
"z. c gray70",
"x. c #B4B4B4",
"c. c #B6B6B6",
"v. c #B7B7B7",
"b. c gray72",
"n. c gray73",
"m. c #BBBBBB",
"M. c #BCBCBC",
"N. c gray74",
"B. c gray",
"V. c gray75",
"C. c #C1C1C1",
"Z. c #C3C3C3",
"A. c gray77",
"S. c #C5C5C5",
"D. c gray78",
"F. c #C8C8C8",
"G. c gray79",
"H. c gray80",
"J. c #CDCDCD",
"K. c #CECECE",
"L. c gray81",
"P. c gray82",
"I. c LightGray",
"U. c gray83",
"Y. c #D5D5D5",
"T. c gray84",
"R. c #D7D7D7",
"E. c #D8D8D8",
"W. c #DADADA",
"Q. c gainsboro",
"!. c #DDDDDD",
"~. c gray87",
"^. c #DFDFDF",
"/. c gray88",
"(. c #E1E1E1",
"). c #E2E2E2",
"_. c gray89",
"`. c #E4E4E4",
"'. c #E7E7E7",
"]. c gray91",
"[. c #E9E9E9",
"{. c #EAEAEA",
"}. c gray92",
"|. c #ECECEC",
" X c gray93",
".X c #EEEEEE",
"XX c #EFEFEF",
"oX c gray94",
"OX c #F1F1F1",
"+X c gray95",
"@X c #F3F3F3",
"#X c #F4F4F4",
"$X c gray96",
"%X c #F6F6F6",
"&X c gray97",
"*X c #F8F8F8",
"=X c #F9F9F9",
"-X c gray98",
";X c #FBFBFB",
":X c gray99",
">X c #FDFDFD",
",X c #FEFEFE",
"<X c gray100",
/* pixels */
").%X*X%X*X*X*X*X%X*X*X%X%X%X*X%X*X%X%XoX%X*X*X%X%X*X%X%X%X%X%X%X*X%X%X*X*X>X*X%X*X*X*X*X*X%X*X*X%X! B r 2 5 5 5 2 5 5 2 5 5 2 5 5 q 2 2 5 2 2 5 5 2 5 5 5 5 5 5 5 2 2 5 5 5 5 q 5 5 2 2 5 5 5 5 2 2 5 2 ",
"[.>X>X>X>X>X>X>X>X>X>X>X>X>X>X>X>X>X>X>X>X>X>X>X>X>X>X>X>X>X>X>X>X>X>X>X*X*X>X>X>X>X>X>X>X>X>X>X>X/ v 2 O                               O   O                                     O   O           O   O ",
".X>X>X>X>X>X>X>X>X>X>X>X>X>X>X>X>X>X>X>X>X>X>X>X>X>X>X>X>X>X>X>X>X>X>X>X>X>X>X*X>X>X>X>X>X>X>X>X>X( v 2       O                 %     O                         O O       O                             ",
"[.>X>X>X>X>X>X>X*X>X>X>X>X>X>X>X>X>X>X>X>X>X>X>X>X>X>X>X>X>X>X>X>X>X>X>X>X>X>X>X>X>X>X>X>X>X>X>X>X( v 2 O         O   O O   O       O         %   O       O   O       O       O             O O       O ",
"[.>X>X>X>X>X>X>X>X>X>X>X>X>X>X>X>X>X>X>X>X>X>X>X>X>X>X>X>X>X>X>X>X>X>X>X>X>X>X>X>X>X>X>X>X>X>X>X>X( v 2                         O O                                   % O O                             ",
".X>X>X>X>X>X>X>X>X>X>X>X>X>X>X>X>X>X>X>X>X>X>X>X>X>X>X>X>X>X>X>X>X>X>X>X>X>X>X>X>X>X>X>X>X>X>X>X>X( v 2     O O                   O     %                                             O O         O   O ",
"[.>X>X>X>X>X>X>X>X*X>X>X>X>X>X*X>X*X%X>X>X>X>X>X>X>X>X>X>X>X>X>X>X>X>X>X>X>X>X>X>X>X>X>X>X>X>X>X>X] v 2                                     %                       O       O                           ",
"[.>X>X>X>X>X>X>X>X>X>X>X>X>X.Xc.] H H <.P.*X>X>X>X>X>X>X>X>X*X*Xz.+.V H <.K.*X>X>X>X>X>X>X>X>X>X>X( v 2 O                           a :.z.y.+.5                 O   O a &.f.a.$.2 -                 O   ",
".X>X>X>X>X>X>X>X>X>X>X>X>XU.V O       O O <.oX>X>X>X>X>X>X>X!.D       % O O &..X*X>X>X>X>X>X>X>X>X( v 2                     O   % w.oX>X>X*X>X[.<.  O       O   O   w.[.>X>X>X>X[.4.      O             ",
"[.>X>X>X>X>X>X>X>X>X>X>XP.q O     %         { oX>X>X>X>X>XP.i O   O O       O ( %X>X>X>X>X>X>X>X>X( v 2 O             %   O   q S.>X>X>X>X>X>X>X*Xf.            > N.>X>X>X*X>X>X>X>Xz.O   %             ",
"[.>X>X>X>X>X>X>X>X>X>X).f O %   -   O O   O   <.>X%X>X>X.Xv O   O     -       O &.*X>X>X>X>X>X>X>X( v >             O       O N.>X>X*X>X>X>X>X>X>X>Xy.  O O   % c.>X>X>X>X>X>X>X>X>X>Xy.      O       O ",
".X>X>X>X>X>X>X>X>X*X>X<.      O               % G.>X>X%X&.O   O   O   O O   >   O S.>X>X>X>X>X>X>X( B 2         O     O O   :.>X>X>X>X>X>X>X>X>X>X*X%X/       &.>X>X>X>X>X>X*X>X>X>X*X%X..              ",
"[.>X>X>X>X>X>X>X>X>XU.  O   O       -         % z oX>XS.    -       O   O         D %X>X*X>X>X>X>X( B >           %       q [.>X>X>X>X>X>X>X>X>X>X>X>X!.% % v [.>X>X>X>X>X>X>X>X>X*X>X>XP.O   O         ",
"[.>X>X>X>X>X>X>X>X*X+.O   O   O   O       O     O 6..XB       O O   O O   O O   %   G.>X>X>X>X>X>X( v 2               O   y.*X>X>X>X>X>X>X>X>X>X>X>X>X>Xy.  N.>X>X>X>X>X*X*X>X>X>X>X>X>X>X&.          O ",
".X>X>X>X>X>X>X>X>XoX-     O         %   O   -       !   % O       O   O             { >X>X>X>X>X>X( v 2 O                 ).>X>X>X>X>X>X>X>X>X>X>X>X>X>X%X4.*X>X>X>X>X*X>X>X*X>X>X>X>X>X>XS.  O         ",
"[.>X>X>X>X>X>X>X>Xz.      O                   O   O   O     O           O   O       > [.>X>X>X>X>X( v 2                 / >X>X>X>X>X>X>X>X>X>X>X>X>X*X>X>X>X>X>X>X>X>X>X>X>X>X>X>X>X>X>X>X*Xs           ",
"[.>X>X>X>X>X>X>X>X:.    O                                                             G.>X>X>X>X>X( B >                 z.>X*X>X>X>X>X>X>X>X>X>X>X>X>X>X>X>X>X>X>X>X>X>X>X>X>X>X>X>X>X>X>X>X2.          ",
".X>X>X>X>X>X>X>X*Xv   O       O                                                       f.>X>X>X>X>X( v 2 O               K.>X>X>X>X>X>X>X>X>X>X>X>X>X>X>X>X>X>X>X>X>X>X>X>X>X>X>X>X>X>X>X>X>Xc.          ",
"[.>X>X>X>X>X>X>X.X    O                                                               &.>X>X>X>X>X( v 2               O [.>X>X>X>X>X>X>X>X>X>X>X>X>X>X>X>X>X>X>X>X>X>X>X>X>X>X>X>X>X*X>X>X>XW.        O ",
"[.>X>X>X>X>X>X>X).      O   O                                                       O R >X>X>X>X>X( v 2           O   i *X>X>X>X>X>X>X>X>X>X>X>X>X>X>X>X>X>X>X>X>X>X>X>X>X>X>X>X>X>X>X>X>X>X.X          ",
".X>X>X>X>X>X>X>XU.%         O                                                       O v >X>X>X>X>X( v 2           O   H >X>X>X>X>X>X>X>X>X>X>X>X>X>X>X>X>X>X>X>X>X>X>X>X>X>X>X>X>X>X>X>X>X>X%X-         ",
"[.>X>X>X>X>X>X>XU.  O     O                                                           f *X>X>X>X>X( v 2               ( >X>X>X>X>X>X>X>X>X>X>X>X>X>X>X>X>X>X>X>X>X>X>X>X>X>X>X>X>X>X>X>X>X>X%X5         ",
"[.>X>X>X>X>X>X>XW.                                                                    l >X>X>X>X>X( B > O             / >X>X>X>X>X>X>X>X>X>X>X>X>X>X>X>X>X>X>X>X>X>X>X>X>X>X>X>X>X>X>X>X>X>X>X5       O ",
".X>X>X>X>X>X>X>XW.%     %                                                             B >X>X>X>X>X( v 2               R >X>X>X>X>X>X>X>X>X>X>X>X>X>X>X>X>X>X>X>X>X>X>X>X>X>X>X>X>X>X>X>X>X>X*X>         ",
"[.>X>X>X>X>X>X>X).O       O   O                                                 O   % / >X>X>X>X>X( v 2           O   l >X>X>X>X>X>X>X>X>X>X>X>X>X>X>X>X>X>X>X>X>X>X>X>X>X>X>X>X>X>X>X>X>X>X.X          ",
"[.>X>X>X>X>X>X>X%XO %                                                                 6.>X>X>X>X>X( v 2                 oX>X>X>X>X>X>X>X>X>X>X>X>X>X>X>X>X>X>X>X>X>X>X>X>X>X>X>X*X>X>X>X>X>X!.%       O ",
".X>X>X>X>X>X>X>X*XR   O     O                                                     O   z.>X>X>X>X>X( v 2           O O   !.>X>X>X>X>X>X>X>X>X>X>X>X>X>X>X>X>X>X>X>X>X>X>X>X>X>X>X>X>X>X>X>X*XG.          ",
"[.>X>X>X>X>X>X>X>X0.O   O                                                       O     W.*X>X>X>X>X( v 2 O         O   O C.>X>X>X>X>X>X>X>X>X>X>X>X>X>X>X>X>X>X>X>X>X>X>X>X>X>X>X>X>X*X>X>X>Xy.          ",
"[.>X>X>X>X>X>X>X>XS.        O                                                     O l oX>X>X>X>X>X( B > O       O       +.>X>X>X>X>X>X>X>X>X>X>X>X>X>X>X>X>X>X>X>X>X>X>X>X>X>X>X>X>X>X>X*X>XP           ",
".X>X>X>X>X>X>X>X>X%Xs O     O                                                       6.*X>X>X*X>X>X( v 2             %   i oX>X>X>X>X>X>X>X>X>X>X>X>X>X>X>X>X>X>X>X>X>X>X>X>X>X>X>X>X>X>X>X[.%           ",
"[.>X>X>X>X>X>X>X>X>Xy.    O                                                     O O W.>X>X%X>X>X>X( v 2               O   b.>X>X>X>X>X>X>X>X>X>X>X>X>X>X>X>X>X>X>X>X>X>X>X>X>X>X>X>X>X>X>Xy.  O       O ",
"[.>X>X>X>X>X>X>X>X>X.Xi     O O                                                   :.>X>X>X>X>X>X>X( v 2             O     P >X>X>X>X>X>X>X>X>X>X>X>X>X>X>X>X>X>X>X>X>X>X>X>X>X>X>X>X>X>X[.f O           ",
".X>X>X>X>X>X>X>X>X>X>Xa.O O           O                         O     O     O   r !.*X>X>X>X>X>X>X( B >         O     O     N.*X>X>X>X>X>X*X>X>X>X>X>X>X>X>X>X>X>X>X>X>X>X>X>X>X>X>X>X>Xy.              ",
"[.>X>X>X>X>X>X>X>X*X>X>X!   O             O O                             O   O f.>X>X>X>X>X>X>X>X( v 2 O         O         z .X>X>X>X*X>X>X>X>X>X>X>X>X>X>X>X>X>X>X>X>X>X>X>X>X>X>X>XU.% O O O         ",
"[.>X>X>X>X>X>X>X>X>X>X>XU.> O     O O                           O   O         ! %X>X>X>X>X>X>X>X>X( v 2                 O     +.>X>X>X>X>X>X>X>X>X>X>X>X>X>X>X>X>X>X>X>X>X>X>X>X>X*X%XW O O             ",
".X>X>X>X>X>X>X>X*X>X>X*X>Xw.  O         O     O                           % > ).>X>X>X>X>X>X>X>X>X( v 2             O   O   O % N.>X>X>X>X>X>X>X>X>X>X>X>X>X>X>X>X>X>X>X>X>X>X>X*X>Xf.O     O           ",
"[.>X>X>X>X>X>X>X>X>X>X>X%X>XP   O         O                           O O O w.*X>X>X>X>X>X>X>X>X>X( v 2         O     O   O     v .X>X>X>X>X>X>X>X>X>X>X>X>X>X>X>X>X>X>X>X>X>X>X>X!.2   O               ",
"[.>X>X>X>X>X>X>X>X>X>X>X>X*XK.>     %     O                       %       P >X>X>X>X*X>X>X>X>X>X>X( v 2           O   O       O   :.>X>X>X*X>X>X>X>X>X>X>X>X>X>X>X>X>X>X>X>X>X>XoX..    O   O           ",
".X>X>X>X>X>X>X>X>X>X>X>X>X>X>X0.%   O O   O   O                 O   O O % W.>X>X>X>X>X>X>X>X>X>X>X( B > O         O     O   %   O % S.*X>X>X*X>X>X>X>X>X>X>X>X>X>X>X>X>X>X>X>X*Xc.    O               O ",
"[.>X>X>X>X>X>X>X>X>X>X>X>X>X>XoXD %   O                           O     4.>X>X>X>X>X>X>X*X>X>X>X>X( v 2                   O         D %X>X>X>X>X>X>X>X>X>X>X>X>X>X>X>X>X>X>X*X[.i   O         O         ",
"[.>X>X>X>X>X>X>X>X>X>X>X>X>X>X>XK.O         O     O         O       % H oX>X>X>X>X>X>X>X>X>X>X>X>X( v 2                         O     6.>X>X>X>X>X>X>X>X>X>X>X>X>X>X>X>X>X>X>X..                        ",
".X>X>X>X>X>X>X>X>X>X>X>X>X>X>X>X*X<.% O O       O     %       O   %   K.>X*X>X>X>X>X>X>X>X>X>X>X>X( v 2                         O   O O K.>X>X>X>X>X>X>X>X>X>X>X>X>X>X>X>X*Xb.O                       O ",
"[.>X>X>X>X>X>X>X>X>X>X>X>X>X>X>X>XoXB   O   O   O     O   O         4.%X>X>X>X*X>X>X>X>X>X>X>X>X>X( B > O                         O   % P .X>X>X>X>X>X>X>X>X>X>X>X>X>X>X*X.Xf                           ",
"[.>X>X>X>X>X>X>X>X>X>X>X>X>X>X>X>X*XS.O   O       O           O   z .X>X>X*X>X>X>X>X>X>X>X>X>X>X>X( v 2                                   y.>X>X>X>X>X>X>X>X>X>X>X>X>X>X>X$.O                           ",
".X>X>X>X>X>X>X>X>X>X>X>X>X>X>X>X>X>X%X$.    O           O     O % G.>X>X>X>X>X>X>X>X>X>X>X>X>X>X>X( B >                           O       O W.>X>X>X>X>X>X>X>X>X>X>X>X>XN.    O                         ",
"[.>X>X>X>X>X>X>X>X>X>X>X>X>X>X>X>X>X>X.Xl     O     O           &.%X>X>X>X>X>X>X>X>X>X>X>X>X>X>X>X( v 2 O                       O         O ! %X>X>X>X>X>X>X>X>X>X>X>X'.D     O                       O ",
"[.>X>X>X>X>X>X>X>X>X>X>X>X>X>X>X>X>X>X>Xz.% %             %   v [.>X>X>X>X>X>X>X>X>X>X>X>X>X>X>X>X( v 2                           O   O O     f.*X>X>X>X>X>X>X>X>X>X>X6.    -                           ",
".X>X>X>X>X>X>X>X>X>X>X>X>X>X>X>X>X>X>X>X*X..  O   O   O     O N.>X>X>X>X>X>X>X>X>X>X>X>X>X>X>X>X>X( v 2                             %       % 2 '.%X>X>X>X>X>X>X>X>XG.O                                 ",
"[.>X>X>X>X>X>X>X>X>X>X>X>X>X>X>X>X>X>X>X>X[.r       O     O { >X>X>X>X>X>X>X>X>X>X>X>X>X>X>X>X>X>X( B >                                         ] *X>X>X>X>X>X>X>XoXP     O                             ",
"[.>X>X>X>X>X>X>X>X>X>X>X>X>X>X>X>X>X>X>X>X*Xf.% O     O   a [.*X>X>X>X>X>X>X>X>X>X>X>X>X>X>X>X>X>X( v 2 O                                       O z.>X>X>X>X>X>X>Xw.  %     O                           ",
".X>X>X>X>X>X>X>X>X>X>X>X>X>X>X>X>X>X>X>X>X>X>X(   O   %   c.>X>X>X>X>X>X>X>X>X>X>X>X>X>X>X>X>X>X>X( v 2                                           q [.>X>X>X*X>XU.%   O                               O ",
"[.>X>X>X>X>X>X>X>X>X>X>X>X>X>X>X>X>X>X>X>X>X*X!.r %     ( %X>X>X>X>X>X>X>X>X>X>X>X>X>X>X>X>X>X>X>X( v 2                                         O   ..*X>X>X>X%XP     O                                 ",
"[.>X>X>X>X>X>X>X>X>X>X>X>X>X>X>X>X>X*X>X>X>X>X>Xy.  O r ).>X>X>X>X>X>X>X>X>X>X>X>X>X>X>X>X>X>X>X>X( v 2                                         O     C.>X*X*Xw.  O   O   %                             ",
".X>X>X>X>X>X>X>X>X>X>X>X>X>X>X>X>X>X>X>X>X>X>X>X*X!   y.>X>X>X>X>X>X>X>X>X>X>X>X>X>X>X>X>X>X>X>X>X( v 2                                               f .X>X).>         O   %                         O ",
"[.>X>X>X>X>X>X>X>X>X>X>X>X>X>X>X>X>X>X*X>X>X>X>X>XU.( *X>X>X>X>X>X>X>X>X>X>X>X>X>X>X>X>X>X>X>X>X>X( B > O                                             O $.*XP   O O     O     %                         ",
"[.>X>X>X>X>X>X>X>X>X>X>X>X>X>X>X>X>X>X>X>X>X>X>X>X>X%X>X>X>X>X>X>X>X>X>X>X>X>X>X>X>X>X>X>X>X>X>X>X( v 2                                             O   O ]         O                                   ",
".X>X>X>X>X>X>X>X>X>X>X>X>X>X>X>X>X>X>X>X>X>X>X>X>X>X>X>X>X>X>X>X>X>X>X>X>X>X>X>X>X>X>X>X>X>X>X>X>X( v 2 O                                                                                               ",
"[.>X>X>X>X>X>X>X>X>X>X>X>X>X>X>X>X>X>X>X>X>X>X>X>X>X>X>X>X>X>X>X>X>X>X>X>X>X>X>X>X>X>X>X>X>X>X>X>X( B 2                                                                                                 ",
".X>X>X>X>X>X>X>X>X>X>X>X>X>X>X>X>X>X>X>X>X>X>X>X>X>X>X>X>X>X>X>X>X>X>X>X>X>X>X>X>X>X>X>X>X>X>X>X>X/ v 2       O                                                                                       O ",
"W.[..X[.[..X[.[..X[..X[..X.X[..X.X[..X.X.X[..X[.[..X[..X[..X.X[..X[..X[..X.X[..X.X[..X[..X[..X[..X! B 2                                                                                           O   O "
};
