/* XPM */
static char *_c6b60afec884f83b3e68295534aef1a[] = {
/* columns rows colors chars-per-pixel */
"100 60 67 1 ",
"  c #5F5E5A",
". c #605F5B",
"X c #62615D",
"o c #656462",
"O c #686764",
"+ c #6B6A66",
"@ c #6E6D69",
"# c #706F6B",
"$ c #73726E",
"% c #767571",
"& c #787773",
"* c #7A7976",
"= c #767779",
"- c #7D7D7A",
"; c #807F7C",
": c #7F807B",
"> c #82817E",
", c #7D7E81",
"< c #7F8082",
"1 c #848483",
"2 c #888783",
"3 c #878883",
"4 c #8A8986",
"5 c #858688",
"6 c #87888A",
"7 c #8C8C8B",
"8 c #908F8C",
"9 c #8F908C",
"0 c #91918E",
"q c #8E8E90",
"w c #8F9092",
"e c #949594",
"r c #989795",
"t c #969896",
"y c #999996",
"u c #959699",
"i c #979999",
"p c #9B9C9B",
"a c #A09F9B",
"s c #9FA09C",
"d c #A1A19E",
"f c #9D9EA0",
"g c #A19FA0",
"h c #9FA1A0",
"j c #A4A4A2",
"k c #A8A7A2",
"l c #A7A8A3",
"z c #AAABA5",
"x c #A7A9A8",
"c c #ACADAA",
"v c #B0AFAA",
"b c #AEB1AA",
"n c #B2B2AD",
"m c #AFB1B0",
"M c #B4B4B3",
"N c #B8B7B3",
"B c #B7B8B3",
"V c #B9B9B6",
"C c #BDBDBA",
"Z c #C0BFBB",
"A c #BFC0BB",
"S c #C1C1BE",
"D c #C4C5C2",
"F c #C8C7C3",
"G c #C7C8C3",
"H c #C9CAC5",
"J c #CCCDC8",
/* pixels */
" .X. oooooOOOO++@@@@#$$$$$%&;$;;;;>>>>>>3388888888a88aaa8aaakkkkvkvvvvnnNNNNNNZNZZZZZSFFGGGGGHHHJJJJ",
".XXXXoooooOO++++@@@#$$$%&&%*$;;;$;>>>>>>33388888a88aaaaaakakkkkkkkvvvvnnnNNNNNZZZZZZZZFZAGGGGGHHHJJJ",
".XoXooOOOOO++@@###$$$%$%%&**%;;;>>>>>00>3899888a88a8a8aaaakakkkkkvvvvvnnnnnNNZZNNZZZZFZFDDGGGHHHHJJJ",
"ooooOOOO++++++@##$$$%%%&&*%>;%;;>>>>>>>038388888aa8aa8aaaaakkkkkvkvzvnnNNNNNNNNZZZZZZZSZDDGGGGHHHHJJ",
"oooOOOOO++++#+#$$+$%&&&&**&>;;;>>24>>8>0399899998aaa8aaaaaakkkkkkvvvbbbBvNNNNNZNZZZAZAZGDDDDDHHHHJHJ",
"XoOOOO+O++#@##$$$$%%&&&*&>&>&>>>>>>40>>8399899a9a88aaaaakakkkkkvvbvvbnnbvNNNNNNZBAAAZGAGDDDDDDHHHHJJ",
"oOOOOO+@@####$$%%%%%&&***;*&>>>>224>8>8899909r9a8a88aaaaaakkkkkvbzbbnnnBNNNNNNZNZAAAAAAGDDDDDHDHHHHH",
"OOOO+@@@+###$#$%%%&&*&**>*>;>>>>>2>8>8>8990099r9a8aa8aaaakkkkkkkzvbbbbbBvNNNNNNZBAAAAAAADDGDHDHHHHHJ",
"OO@O+@@@#$$$%$%%%&*****---::>>>>424433848888999aaa9aaaaaakkkkkkkzbbzbbbbnBBmBVVVAAAAASSDSSGGDDDHDHHH",
"O@O@@@@@#%$$%%$%&&***-*:>->:>>33224493888888a9a999aaaaaaaaakkkkkbzbbbbBbnnBBBVVVABBAAAASSSSSDDDDHHHH",
"@+@@@@#$$$%$%&&&&***:*::>>:1>3>32444999900r8a99aa99l9kalkkkkkkvvbbzbbbBbnBBBBAVVBAAACCCDADGDDDDDDGHH",
"@@@###$$$%=%%&&***:*---:>>>13>3344449999000r99a9aal9aaakakkakkkvzzbbbbbBnnBmBBVVABAADCSSDSSDDDDDGGHH",
"@@#$$$$$%%%&&***-*---,-1>>31<34344998899009r9a9a99laaaaakakkkkkbzbbbbbbbBnBBVVVVBBAVSCCSSSSDDDDDDGGF",
"@@@$$$$%&&&&****--;;>:->>>13134428>89>9000r0a9aaaa9aaaaaaakkkkkkbzbbbbBnnBBmMVVVBAVSCSCZSSSDDSDDDDFD",
"@$$$%$%&&*&**&;;---:1-1>31134444848890000r9r9a99aalaaaaakakkkkbkzbbbbbnnnmmBMVVMBBZBCCCSCSSSSDDDDDDD",
"$$$$%&&&&***;;*;>>>>:1>13111444448880000r0a9a9aa99aaaakkakkkkbkbbbbbbbnnnBmBMMVVVZBSCCCCSCSCSCCDDDDD",
"$$=%%&&*%;;;;;;;;;;1>1111355744999999909r90rryysaaaaassallallblbzbbzbbnnnBBbMVMVCCMCCCCCCCCDCSSSDDDD",
"%&&&&&&-;;%;;;;;;>1>111133344474999999yr9rrryyyyaaaaaslllallllllzbbbbbbbBbBBMMVVmMCCCCCCCDCCSSSDCDSS",
"%=*=-&*---;;;;;;>>22122233447777990r0tr9yrryyyypl99lasssllsllbblzbbzbbbbnnnnMMMMMCMCMCMCCCCCCSCDDCDD",
"&***---;;;;>;;;;>2>22222347777999990009r0rryyyppaaaaalslsllllllbzzbvbbbbnnBmnBMBCMCMMCCCCCCCCCCDCDSS",
"-*;*---;;;;>;;>>112224464474788899tt9tr9yrryyysps9ssssslakkllllbzcczzbbbbnnnBnMMmCMCMCCCCCCCCCCCCSSS",
"****-;;;;>2;222222252664499788889909r99ayy0ayyysslslssslllklllllbzzvvcbbnnnnnmMMMMCmCMMCCCMCCCCCCCCS",
"-;;;;;;<;>2;2222224444744778888800t0rtrrrtarypsysssssslsallllzzbzzzczbbbbbnnnBBBMMMMMCCMMCCCCCCCCCCC",
"-;;<>;<>2;22;24222447777778808ee000t9ttrtyryppys9lsslsslalllllllzbzzzvzvbmmnnnmnMMMMMMMMCMCMMCCCCCCC",
";;;11;11111242424274774778888800t0tt9rtryyyyysysssssslsllallllblzzcccczvvvmvvvvMmMMMMMMMMMCMCCCMCMCC",
";>;1111122246444777777887w8wwee00ytyrrtyyyysyssyassssslsllalllllzzczzcvvvvvmvvMvmMMmMMMCMCMCMMCCCCMC",
">;221212444444477777q7888ww80e0e00y0trtryyyysyssssassllsalllzlzzzzzczvzvvcvvvMMMmMMMMMMMMMMMMMMMMCCM",
"22>112444464477777878q8800000er0yttttrryytsyyssssaalsssllalllzllzzzzczvzcvvvvMmvmmmMmMmmMMMMMCMCCMMC",
"22>44444464847887888qw0e0e0e0eeereterryyysysayassssslasllaakllllzzzxzzzzcccvvvvmcMvMMMMMmMMMMMMMMMCM",
"224244444787778888880008e0e0ereerrtttryyyysyyaasssslsllsallllllzzkkxvzzzxccvmcvvmvvvmmmmMMMMMMMMMMmC",
"2444444487778888880ee0ee00reeerrtryyyyysysytsasssssssslsllllkkklkzkkckzcvzccvccvcvmmmmmmmMmMMMmMmMMM",
"244448887887888880e80e0eeeee0rrrttytyyyyyysstsalsssslsslssakklllxkkckkkkczzkcccccvcmcmMmmmmmMMmmmMMm",
"8428777878880000q0e0e0e0eeeerrrrttayypyppppppadpdpddjjdjajjjjjkkkklllllzllzczzvzvzcmccmmmmmmmmmmmmmm",
"4484878888we00000e0reeerrerrrrryyyyyyyypppppappsdaddpjjdjjjjjjjjjkllllzlzllzxccxcccccmmcmmcmmmmmmmmm",
"8888888ww800000ee0e00reererrurruyyyyypyappppppsppdddjgdjfjajjdjjkkkjkjllllzlxxxxccxcccccmxmmmmcmmmvm",
"884888880000000eer0eerrererrurryyyyypyypipsppapdjpdadjpgjdjjdjjjjjjjkkkjlllzkxkxcxxccxcccxxxxccccmvm",
"8888080000e0e0r00eeeereeererrrrryyypypyppisphppspdgdajajjapjjgjjjgjjjjjjjjjxjxxxxcxcxxxxxxcmcxmxccxc",
"888800000eee0eeereerrrrrrrerrpupysyyapppppisppspapapjpjppjjdajjajjjjjjjjjjjjjjgxxgxxxxxxxxxxxxxxxxcc",
"0088000000ee0e0erererrrrtttyyyyyyipiypyppppphssppajjpdpjjpjgjagajdjjjgjgjjjjjxgxggxggxxxxfxxxxxxxxxx",
"000000e0eer0ererererrrutyytyrpyrppippppypppfppppdpppafdadgpgajaggapdjpajgggjgjxggxxgxxggxjxxfxhxxxxg",
"0e0eee00ee0rreeerrrreryyyyryppppipppppppipppsfffafpagagapdjpdsfdaagjpgjagjfjhjjhgxgghjjjjxgjxxhxggxf",
"e00e0e0reerrererterryyytyyryupuppppppippppffispppgpgpffgafpgpgjpappggffgfpgjffhhggggjghfjfhjffhhggjj",
"0e00e8reeeeer0rrtrrryttyyypuppuppipppffpipippppppffpfppppfpgpgppafpfpfafpgfppfphgfgggfgghhhhffffgggf",
"rererrerererrrrrrttptttyypupppppippiifipfpppfipffppppgfgpgppfpfpfppppppppppjppfpfffgppfghfffffffffff",
"r0err0rrrrrrrrrryyyyyryyipppipppppppipippiipissipppppppppppppppppppppppppppppppfuufugugupffffuffffff",
"rreeerrrrrerrrrtuyiyypyyiiipppiiipisippipppiiipippppppppppppppppppppppppppppppppguufppupuffufufuuuuu",
"rreerr0rrrrrruryryyyyyyypiippiippiiiipppipppisisppppppppppppppppiiupupiiiiuppiipuufuuuuuuufuuuuuuuuu",
"rrrreeerrrrrrrtyyryypyppippppippippiipiiiiiiiiiiiuuupupupuppuupuuuurrrruruuuuuuuuuuuuurruuuuuuuuuuuu",
"rrrrrrrerrrrprprtypyppippippiiptiipiippppippiiiuipiitiiipiyiiyiruuurrueeuuuutwuuwueueuuuuuuwuuwwwwwu",
"rrrrrperrrrrrrrrrrryrpippppiippippiipiiiiitiiiiupituttiittyyyuuueereeeeeewertuwuuuwewwwwqwqwwwwqwwww",
"uprrrryruyrryyrutyrpptyipyupipiipiiptpiiiiiiiituuuturryuiururuureeeeeeeeweqeuwwwwwwwwwqwwwqqqqqqqqqq",
"rrrrrpryyyyyryurttryrpyiupupipipiitiitiiyiiittuuuuttuuuuuurueeeewee8weqwwwwwwwwwqqqqqqqqqqqqq6qqq6q6",
"prryrrprpyprpruyyyrryiytprpruutiiiyiitiitiuuuuwutwwuuttwuureeeweeewe00qqwwqqqqqqqqqqq6qq6qq666q66666",
"rpprypyyryrirrryyyrrriiuyuuriyitiyitttiuiuuuuuuuuuuuuwtwrweweeewweqw0qqqq9qqqq6qq666q666666655556656",
"ppypyypryyryrppryyrrruurrpruiritttttutuuuutwwuwuwuwwwwuteweeew8eqq8qqqqqqqqq6q6q66q655656565555<<6<5",
"prpyprrprpprpryyyyryyyruuururiuuuuttuuwuuuwtuwuuuwwuwuwwwewewwqqqqqqqq6q6666666666665555555<55<<<<<<",
"pyypypyiyiyyyryryytrtyuruituttttwtttwttutwuwuwuwwwwwuwwqwwwwqq9qqq7q6qq5q66666666666<6<6<5<<<<,,,,,,",
"ypyyyyyyyypiypryttrrrtutuwtttwttwueetwuwtwwuwwwwwuwwwwqqwqq8qqq99776656565556<65<<<<<<<<<,<,<<,,,,=,",
"yyypypprpyyrriirttettetttettwttwueeetwwwtwuwtwwqwwqqqqqqqqqqq888q566q655<665<5<<<<<<,,<,,,,,,,=,====",
"yyyyyyyiryryyryrtteerrreeuwtwtwtwuwewwtwwwwwwwwwqwqqqqq7qq7776q8qq6551556<<5<<<<<<<<,,,,,,=,,======="
};
