/* XPM */
static char *_78c776448294d2e87c46701f5b0bfb1[] = {
/* columns rows colors chars-per-pixel */
"50 50 60 1 ",
"  c black",
". c #010101",
"X c gray1",
"o c #060606",
"O c #111111",
"+ c gray7",
"@ c #131313",
"# c #151515",
"$ c #161616",
"% c #282828",
"& c #2C2C2C",
"* c gray22",
"= c gray27",
"- c #4C4C4C",
"; c #4E4E4E",
": c #585858",
"> c gray35",
", c #5A5A5A",
"< c #5F5F5F",
"1 c gray38",
"2 c #626262",
"3 c gray39",
"4 c #6A6A6A",
"5 c #6D6D6D",
"6 c gray44",
"7 c #767676",
"8 c #777777",
"9 c gray47",
"0 c #797979",
"q c gray48",
"w c #7C7C7C",
"e c #7E7E7E",
"r c #838383",
"t c #848484",
"y c gray52",
"u c #888888",
"i c #898989",
"p c gray54",
"a c #8B8B8B",
"s c gray55",
"d c gray56",
"f c #979797",
"g c #9B9B9B",
"h c gray61",
"j c gray62",
"k c #A0A0A0",
"l c #A2A2A2",
"z c gray66",
"x c #AFAFAF",
"c c gray70",
"v c #B4B4B4",
"b c #B6B6B6",
"n c gray72",
"m c #B9B9B9",
"M c gray73",
"N c #BBBBBB",
"B c #BCBCBC",
"V c gray74",
"C c gray",
"Z c None",
/* pixels */
"ZZZZZZZZZZZZZZZZZZZZZZZZZZZZZZZZZZZZZZZZZZZZZZZZZZ",
"ZZZZZ                                        ZZZZZ",
"ZZZ                                            ZZZ",
"ZZ                                              ZZ",
"ZZ                                              ZZ",
"Z                                                Z",
"Z                                                Z",
"Z                                                Z",
"Z                                                Z",
"Z                                                Z",
"Z                                                Z",
"Z                    oooooooo                    Z",
"Z                 $hCCCCCCCCCCh$                 Z",
"Z                 wCCCCCCCCCCCCq                 Z",
"Z                 pCCCCCCCCCCCCp                 Z",
"Z                 pCCCCCCCCCCCCp                 Z",
"Z         ;gkkkkkkcCCCCCCCCCCCCxkkkkkkf;         Z",
"Z        +cCCCCCCCCCCCCCCCCCCCCCCCCCCCCb+        Z",
"Z        >CCCCCCCCCCCCcgsshcCCCCCCCCCCCC>        Z",
"Z        >CCCCCCCCCCz3      3zCCCCCCCCCC>        Z",
"Z        >CCCCCCCCCp          pCCCCCCCCC>        Z",
"Z        >CCCCCCCCy            yCCCCCCCC>        Z",
"Z        ,CCCCCCCk      ;-      kCCCCCCC,        Z",
"Z        ,CCCCCCN;    qcCCcq    ;CCCCCCC,        Z",
"Z        ,CCCCCCz    wCCCCCCw    zCCCCCC,        Z",
"Z        ,CCCCCCp   %NCCCCCCN%   sCCCCCC,        Z",
"Z        ,CCCCCCq   4CCCCCCCC4   qCCCCCC,        Z",
"Z        >CCCCCC7   6CCCCCCCC6   7CCCCCC,        Z",
"Z        >CCCCCCy   =CCCCCCCC=   yCCCCCC,        Z",
"Z        >CCCCCCh    hCCCCCCg    hCCCCCC,        Z",
"Z        >CCCCCCN&   %kCCCCk%   &NCCCCCC,        Z",
"Z        >CCCCCCCs     3ry3     sCCCCCCC,        Z",
"Z        ,CCCCCCCN>            >NCCCCCCC>        Z",
"Z        ,CCCCCCCCb>          >bCCCCCCCC>        Z",
"Z        ,CCCCCCCCCNr+      +rCCCCCCCCCC>        Z",
"Z        ,CCCCCCCCCCCbs5,35dbCCCCCCCCCCC>        Z",
"Z        *CCCCCCCCCCCCCCCCCCCCCCCCCCCCCN*        Z",
"Z         qNCCCCCCCCCCCCCCCCCCCCCCCCCCNw         Z",
"Z           oooooooooooooooooooooooooo           Z",
"Z                                                Z",
"Z                                                Z",
"Z                                                Z",
"Z                                                Z",
"Z                                                Z",
"Z                                                Z",
"ZZ                                              ZZ",
"ZZ                                              ZZ",
"ZZZ                                            ZZZ",
"ZZZZZ                                        ZZZZZ",
"ZZZZZZZZZZZZZZZZZZZZZZZZZZZZZZZZZZZZZZZZZZZZZZZZZZ"
};
