/* XPM */
static char *_0576b35b04e4aa2dc07eaed9247cf4b[] = {
/* columns rows colors chars-per-pixel */
"100 60 256 2 ",
"   c #FD3E1B",
".  c #F73D2A",
"X  c #ED3F35",
"o  c #EB3E3B",
"O  c #E43C3B",
"+  c #F53B35",
"@  c #EE3F2E",
"#  c #DF3A3E",
"$  c #BB6C3D",
"%  c #B3713F",
"&  c #DC5D1D",
"*  c #FC4B0A",
"=  c #EA5908",
"-  c #F85408",
";  c #EC4A1B",
":  c #F34C1C",
">  c #F84918",
",  c #EC551C",
"<  c #E45B1C",
"1  c #E95816",
"2  c #F55316",
"3  c #DB5D27",
"4  c #DA5D36",
"5  c #DC483A",
"6  c #ED4524",
"7  c #ED432C",
"8  c #E94A28",
"9  c #F24524",
"0  c #F34B23",
"q  c #F2432B",
"w  c #F94626",
"e  c #EC5324",
"r  c #E65827",
"t  c #F25425",
"y  c #EC4133",
"u  c #EB4139",
"i  c #E74837",
"p  c #F24537",
"a  c #E55737",
"s  c #F25333",
"d  c #CB662D",
"f  c #D66329",
"g  c #CC6535",
"h  c #C5663C",
"j  c #C2693C",
"k  c #CA6738",
"l  c #D46336",
"z  c #C1713C",
"x  c #E2612D",
"c  c #DF6214",
"v  c #DE345C",
"b  c #DC3A58",
"n  c #DA3154",
"m  c #E63A45",
"M  c #E93B42",
"N  c #E5374D",
"B  c #E53A4B",
"V  c #EA3849",
"C  c #E43756",
"Z  c #F03649",
"A  c #D82D6B",
"S  c #DC3363",
"D  c #D93569",
"F  c #D52C73",
"G  c #D62B78",
"H  c #D93576",
"J  c #CB3072",
"K  c #E43564",
"L  c #E42A6E",
"P  c #9A7A5B",
"I  c #B46E4B",
"U  c #BB6C4C",
"Y  c #BA6C44",
"T  c #AB734A",
"R  c #B6724A",
"E  c #AC6F59",
"W  c #B66C56",
"Q  c #AB725B",
"!  c #A77357",
"~  c #B47257",
"^  c #AD6F4B",
"/  c #987969",
"(  c #8C7D77",
")  c #967A77",
"_  c #8D7D6D",
"`  c #A57466",
"'  c #BA6A75",
"]  c #A47677",
"[  c #B56E69",
"{  c #D95A46",
"}  c #D95857",
"|  c #D74951",
" . c #E64445",
".. c #E55746",
"X. c #E84B51",
"o. c #C66847",
"O. c #D66347",
"+. c #C76856",
"@. c #D56457",
"#. c #D85866",
"$. c #D34B6E",
"%. c #E3486D",
"&. c #C66775",
"*. c #CA6466",
"=. c #E26156",
"-. c #7C877C",
";. c #84827B",
":. c #8E8370",
">. c #7B7E95",
",. c #6B3BFD",
"<. c #7836FB",
"1. c #7A2DF4",
"2. c #3878FC",
"3. c #3671F9",
"4. c #7678D3",
"5. c #5958FA",
"6. c #5751F8",
"7. c #6748FB",
"8. c #7747F8",
"9. c #6655F8",
"0. c #7755F6",
"q. c #754DEA",
"w. c #4868FD",
"e. c #5768FA",
"r. c #4777FB",
"t. c #5776F9",
"y. c #5371EB",
"u. c #6C6FF0",
"i. c #7E58DC",
"p. c #BF2993",
"a. c #BC17B7",
"s. c #B91AAC",
"d. c #B92CB1",
"f. c #9C31BF",
"g. c #C81D9B",
"h. c #D11D90",
"j. c #CC2789",
"k. c #D52885",
"l. c #C92597",
"z. c #CF328F",
"x. c #C61CA6",
"c. c #C518B7",
"v. c #CF15B0",
"b. c #C722A6",
"n. c #C735AA",
"m. c #C931B2",
"M. c #E22798",
"N. c #B6578E",
"B. c #897D87",
"V. c #927B90",
"C. c #A57588",
"Z. c #B06D8D",
"A. c #AF52AC",
"S. c #9075B0",
"D. c #A56BAB",
"F. c #9E5FAE",
"G. c #CD4F8E",
"H. c #C66286",
"J. c #CE43A3",
"K. c #B816C9",
"L. c #B60BD8",
"P. c #AC15D9",
"I. c #B614D6",
"U. c #B010CF",
"Y. c #982EDA",
"T. c #AF2ECF",
"R. c #9718F9",
"E. c #9615F3",
"W. c #AA09E8",
"Q. c #B508E7",
"!. c #A606F8",
"~. c #AC13EC",
"^. c #8728F8",
"/. c #9426F5",
"(. c #8837F8",
"). c #912EEA",
"_. c #AB28EC",
"`. c #9A1DDB",
"'. c #C412CC",
"]. c #C11DE0",
"[. c #9251D6",
"{. c #AD4EC9",
"}. c #8F68D5",
"|. c #8B4BED",
" X c #A352E2",
".X c #3A9EBC",
"XX c #31A3BE",
"oX c #5A9399",
"OX c #788588",
"+X c #6A8A98",
"@X c #768697",
"#X c #688C8F",
"$X c #5C8EA9",
"%X c #5793A9",
"&X c #4798B9",
"*X c #5693B6",
"=X c #588FB3",
"-X c #668BA6",
";X c #678BB5",
":X c #7786B6",
">X c #6F8AA9",
",X c #359ECD",
"<X c #3B9CC7",
"1X c #2D9FD8",
"2X c #339DD2",
"3X c #399BD7",
"4X c #2E9CCB",
"5X c #19A9D8",
"6X c #2BA4CB",
"7X c #32A0CB",
"8X c #2CA2D3",
"9X c #24A4DC",
"0X c #2BA2DB",
"qX c #25A6D6",
"wX c #35A1D6",
"eX c #149EFE",
"rX c #1B9BFD",
"tX c #1B95FC",
"yX c #1595FD",
"uX c #2C9DE5",
"iX c #379CE7",
"pX c #2989FC",
"aX c #3788FA",
"sX c #2798FB",
"dX c #3797F7",
"fX c #388BEC",
"gX c #18A9E8",
"hX c #0CA5FD",
"jX c #04ACFE",
"kX c #0BABFD",
"lX c #0BABF5",
"zX c #14A3FE",
"xX c #18A7F7",
"cX c #03B2FD",
"vX c #05B2F6",
"bX c #0BAFED",
"nX c #24A4E4",
"mX c #24A4EB",
"MX c #28A3E5",
"NX c #24A3F6",
"BX c #37A3F0",
"VX c #4697C6",
"CX c #5593C7",
"ZX c #4597D6",
"AX c #558DCF",
"SX c #6C87CC",
"DX c #588AE7",
"FX c #4687F9",
"GX c #498FEE",
"HX c #6586E9",
"JX c #48A0C6",
"KX c #848285",
"LX c #848395",
"PX c #958183",
"IX c #8982AB",
"UX c #8187C1",
/* pixels */
"i . . 9 6 6 w 0 s > > e O.*.x s , , * - O.' Z.' +.l - * 2 4 k t * 2 1 0 w w t a 0 6 8 y y u u u u u u u u X o o X u y 7 7 6 q 6 y * > 0 * > r , 2 - - - a , - = - - - - - 2 - - = r ; 1 1 = & c f d g h ",
"; 6 9 q i w : 1 } r ; e { } 3 1 > : * , 4 4 2 - s , * 1 r 4 l s 2 > 0 q 7 ; 8 i 0 7 y u o o o o M o u u u X u X y u @ p 7 7 q 7 > 1 t & < a [ +.l - 1 s W f , 2 - - - - - - = < - 1 c e < 3 h & & 3 3 d ",
"w 0 e r r 8 e < a , w w w p w > 7 9 > > a a t 0 t ; > * > t l { 0 0 9 q u 7 @ X y p o o O o o o M o o o o X 7 7 X u u u @ @ 7 7 i 0 > > , 4 4 x +.+.' R ~ c 2 - - - 1 = - - , < = 3 o.W h l o.f f d l k ",
"k a t 0 > 9 w q , ; . +   6 7 y + w > 3 O.x 0 w > 6 8 8 9 : r r 0 9 7 u X o o o o o o M M M M O o O M o o o X p o o X @ y 7 7 q 7 8 .   : - - - 4 ~ [ U & < r x 1 2 1 , < , < 1 < 1 1 f o.Q ] o.k h k g ",
"4 s w > 9 6 7 8 7 X 8 8 X y 8 8 7 6   9 a 0 * ; . y i i 8 6 > : 8 w . . y 5 o Z o O M M o Z O O o M M M M o o u o X u y 7 7 q q > >   w t 2 2 r x c 4 o.z r & < o.< 1 < x l l 1 r 3 & h [ :.LX` Y Y I U ",
"0 9 6 8 @ . . . . O 7 i o . + o i u 6 ; 9 q . M o X q + @ @ @ 8 e 8 8 7 7 O o o M M M M m m m m M M o M o M o u u y p y 7 7 q 6 e 0 , * * , > 2 = t l k / a l % ) g < 3 f R ~ k l o.l d g o.B.LXE E Q Q ",
"w w   q X X y 8 6 X y u O 7 M Z @  .y 6 8 i @ O y X o M m @ . e ..O.{ a q + Z # M m m V m V V V M M o o o X u y 7 y 7 q 9 6 6 0 0 3 k x - c k 4 +.' PXR ` o.^ ) ( o.k +.R ` ) ~ k E Y k Q / KXLX@XB.B.( ",
"e 0 w 9 8 7 @ + M O . o u y O 6 . m  .. u u X Z M O u O i 7   r +.#.} a 8 X M O m V V V N N N N m m O o y 7 7 7 y 7 7 7 6 6 9 : 2 * x O.l +.' PXC.=.Z.CXLXPXB.) P R Q C.:.LXKXQ T ( ~ $ E ` ) OX/ / ` ! ",
"0 t 0 t 9 @ X o u u o u u u o o M M M o M o o o o M M o M M y y t 8 e , o + y u o m B N N N N N N Z O i 0 e 8 > 6 9 w ; , > e * 2 r x [ H.@.[ H.n.D z.#.H.LXCX@X+XOXIX@X:X@.C.LX-X>XLXV.:./ KX-./ ` ^ T ",
"e 6 t 9 7 p X X u o X u X o o o O o o M M M O O M M M V M o X y X 7 9 t 0 e 8 8 o m m N N N N N # N o M p e ..e 9 6 q w * =.{ l = 2 o.C.C.&.} 4 ..u i y  .A.:XUXDXSX:.R V.C.Z.Z.D.' ] >X;XLX@XB.P E P / ",
"6 6 7 7 7 X y u X X o o o o o M o Z o M M M m m M V M m M M o y w 9 - { { #.t p m B C N C C C v o Z . i 8 a *.@.- t a , - 2 ..+.O.R V.H.s = t 0 u q 9 r s X.x O...O.U l o.f O...w a F.GX&X@XOX;.B.OX) / ",
"7 @ 7 y 7 u u u o u u X o M O M O M M m M m m V V m m N V M u u i 5 { @.A.#.{ i B N C v v C C C m  ...{ i 6 8 : 9 ; * < x & O.` ` KXSXZ.s , 9 7 w + > 0 2 ..< O.t o.z , < < 1 2 3 r o.IXCX*XoX*X;X+X( / ",
"@ @ y y X o u u o X o u O o M m O M M O M V m N N N m N N m M M B u 5 i s 0 i C N v v S v v C C Z X  .5 @ O M  .+ i 4 @.C.V.#.Z.SX[ a M u 8 ; + q 7 9 > * > - = - , 1 t c - c I r 0 #.u.ZX7XCX$X#XKX( _ ",
"7 @ X X o p o u u u o X o M M M M M o m m M N V N m N N N C N m m B B B Z @ 7  .N v v S v v v v v O K C Z K # i . : < *.n.n.v N H K B a 8 q 7 + M ; u s ..< - = = - , 1 1 x x 4 f +.) @XSXiXGX*X%X-XV.#X",
"7 7 X X X o X y X X u o u M M M M o o M M M V N N N N N C C C C C H N v v C ; 7 N b v S S S S S D N K K v S b V y s =.D.n.L k.L n N m u o Z  .w w 9 > * 1 +.O.x , r t = f l < k [ ` P R G.:XCX-XZXSX;X&X",
"7 7 X o o o X X o u o u o u o M M M M o M m B m B m m C C v C n b v K N S n b C m N C S A A A F D n A D b b  .q r { H H.5 b L J D A b b M q 5 ; 6 e r < ..*.~ U k k o.f o.:.W z R T / ) C.OX;.-X;XS.:X&X",
"7 X X X X o X o X u u u y X o u M Z M o 7 q o M m N Z N C N K v K S S L K v v v  .X.K b n A F F F A F A A K C C y s *.{ 8 # K S A n S B M u s r r 4 +.' $.#.IX@XLXC.) / / V.P E ^ Y I ! ` Q ! KXIXPXSXBX",
"7 7 7 X u y y u X o X o X o o p u q 7 8 8 i M Z  .O m O O m m v n v S S A S v K  . . .C S A A F G F A F F K C M u 7 & o.G.X.C A G S L A C 8 { Z.&.Z.#.; w   s #.+.U &.Z.;X@X) ^ ^ T E P T ! R Y [ l #.S.",
"q q 7 y 7 X X 7 X y u o p X o o i 7 9 8 a a q 9 M y 9 a a y M C C v S A A A A A b  .u b S A F G k.G A A D A C M 8 r e [ G.b L k.n J J K  .X...D v n  .6 9 1 4 1 , r o.H.JX-XB._ ) E ` P ! / _ ` Q ' Z.4.",
"q @ 7 @ y y 7 y X X y X o o X X 7 7 q 8 i r r 8 e 8 a } } i O N b v A A A A A F D S S b v F k.k.h.G G D S K b  .u a #.F.n.j.A k.M.b b B a @.$.L K D X...O.O.Z.W o.` W ] ( >XAX-XB.OXB./ ( B./ ` R IXHXNX",
"@ . 7 y p @ y 7 y 7 u p y X X 7 @ 7 6 : 2 t ..} ..t p u M Z m D S S A F F F F F F k.G A S D G J G h.G D b b S b M G.{.m.h.j.l.x.G H S 5 G.d.p.J K  .} $.K 2 & #.D.IXP P P [ S.AX%X$X>.( #X>X@X>X}.t.FX9X",
"7 7 q 7 @ 7 7 7 7 7 7 7 7 7 9 6 q . 6 0 > , a } a 8 i m B M b S v S A F F F F F G G k.G D S D F j.h.j.J D D G G K 5 {.l.a.g.l.s.s.j.J b D b.g.h.D H p.J $.#.&.PX:.LX*X@X>.:XdX<X%X#X+XOXOX$X+XC.u.FXBXmX",
"9 q q q q 7 q 9 7 9 7 7 6 9 9 0 9 9 w 9 t e e , p X 6 i i X C C v C S A F A F F F F j.j.G D H H j.g.g.j.j.l.h.k.D { G.K J g.s.c.x.c.h.%. .l.x.b.J n.b.z.v.d.SXCX%XSXJX+X-X&XDXZX%X#X>.@X#X%X*XAXAXDX5X<X",
"9 9 9 9 0 9 9 9 9 9 9 6 9 : : : > > > 0 e e 0   ; . @ y i o y i  .C v S A A F F F G h.h.j.j.k.J j.g.x.g.g.x.x.j.k.k.C X.N.b.x.c.c.j.G $.T.~.L.K.d.m.P.'.T.(.u.FXHXGX6X,X=XS.AX9X*X%X+X@X+X+XoX,XBX}.iX3X",
"; w w > ; 9 > * t ; 9 > w 0 2 l f * 2 > a O.> 2 r > 1 a O.H.%.e + m C B D S L | C H G H p.g.x.l.G l.x.c.s.g.x.c.h.J K  .G.f.c.L.c.a.K.M.n.s.'.W.U.T.Y.R.(.q.0.t.FXgX5XiXu.dXxXuXwX*X$X%X+X>.>X;XSXAXGXiX",
"; > > 6 > w > < O.1 > * = - - { @.a - - = r - 2 f l W } r } G.' #.p i 8 | N m Z | L D h.k.l.v.g.l.J l.s.a.'.a.s.g.z.H D T.~.L.L.W.P.Q.'.p.$._.E.P.R.I.T.0.|.|.zXy.u.SXu.dXnX6X7X.X,XZX&X%XoXKX` }.iX5X3X",
"0 > > e 0 > * 1 ..g & 2 x 2 = O.Y e * = 1 O.x < &.C.V.} u B C z.H.l , i Z 8 C n D A j.g.v.b.s.a.c.x.j.x.'.a.c.p.k.n.x.z.n.m.I.P.!.Q.!.P.s.l.).^.R.(.^.).8.8./.i.u.t.fXaXrXgX8X,X8XiXwXZX{.4.}.4.HXiX8X<X",
"> * * : < 2 - - x +.O.{ R U ' C.+.~ o.l $ [ o.) Z.} J.H C A L m 5 } } 0 y p i X.L | k.k.g.v.a.a.c.K.a.g.c.U.U.K.v.U.a.a.n.J.l.T.Q.W.!.I.P.!.T.m.d.Y.0.w.5.w.r.t.pXhXhXzXxXgX3X,XnX5Xu.|.e.r.NXsXxXMXiX,X",
"* * * - - < r t +.&.&.*.&.D.H &.C.S.~ [ LXC.KX:X=. .D n J J m } =.[ :.` *.*.N.$.K G.| G p.x.x.b.c.a.L.K.b.K.L.L.K.!.I.U.a.b.z.#.T.R./.R.^.E.~.!.I. Xy.7.(.t.e.sXrXhXaXsXuXBX9XqXBXDXHXu.bXiXGXbXiXnXnXiX",
"2 2 - - - t x d R @XZ.&.*...8 q r t x #.:.SXiX4.}.z.M.k.h.l.z.J.m.|.u.S.n.b.l.b.h.m.$.A k.j.l.z.l.s.a.L.U.K.Q.W.!.!.W.!.L.c.b.J.q.^.^.^.1.1.,.^.~.^._.Y.).K.{.NXNXFX3. Xf.}.SX:X}.u.HXdXlXlXMX5X8X9X0XuX",
"o.4 , - - 2 < d ] ' l ..a < p : 9 r @.#.{ F. X_.P.a.s.c.b.x.s.l.'._.R.Q.L.a.K.b.k.$.#.M L G h.b.c.c.L.W.W.Q.a.U.W.!.W.P.U.K.U.d.{.T.!.`.^.^.7.<.).6.9.q.q.<.(.[.[.i.|.e.8.r.e.t.dXsXkXsXNXuX3X7X7X8X7X8X",
"~ 4 2 = = 2 x o.PX] ~ s t 2 t + . q e [ %.H l.l.c.c.j.j.l.v.c.P.U.W.~.a.L.!.Q.d._.S.' $.| %.k.z.K.a.L.!.!.!.W.L.W.!.!.!.K.W.~.!.a.T.T.J.).1.<.5.5.5.w.w.w.6.8.w.r.aXw.tXaXaX2.GXNXlXmX8XqX<X6X4X<XVX&X&X",
"l l < - < k U o.! B.*XIXG.i u 8 y B 8 B b $.H j.s.b.l.l.b.a.b.I.I.U.Q.Q.~.!.E./.(.q.i.P.K.f.K.T.z.'.~.!.W.!.R.!.P.E.^.E.R.R.R.R.!.!.K.d.A.u.9.w.3.w.3.3.w.r.r.e.pXeXxXlXjXeXfXGXFXdXNXgXqX,X<X<X<XVX.XVX",
"g f < 3 < o.` ` PXPX>XJXD. .p 0 i B v D S D k.g.v.k.j.a.c.a.x.a.Q.Q.!.E.!.E.E.R.^.Q.(.E.~.Q.c.d.H a.K.I.a.W.!.!.R.~.!.^.1.1.1.1.^.R.E.L.T.aXu.e.7.7.7.w.r.2.pXpXsXeXzXcXkXjXcXzXlXgXgX5X9XwX,X6X4X4X,X<X",
"E ` o.o.U f k U U / LXIXZ.c t X 5 D n B F J z.K D h.v.v.b.p.k.c.c.a.U.K.P.^.^.<.,.^.,.^._.|.J.#.k.c.a.'.P.~.~.R.^.R.R.E.^.<.,.<.1.R.~.^.Y.].f. X`. X[.9.u.t.sXzXlXhXjXjXjXvXvXgXbX5X8X8X8X8X6X<X2X1XuXuX",
"1 d U ) ] R E I U T KXCXCX] V.{.H H A b K m B G z.j.J J z.H D z.T.z.n.K.T.!.^.R.8.7.^.w.e.y.ZXN.m.z.J.'.P.!.R.1.^.<.1.^.R.,.,.,.,.^.).7.<.1._.)./.Y.K.d.BXrXtXlXhXrXtXaXaXsXsXNXdXBXmX0X8X,X,XqXqX9XnXuX",
"3 f f Y o.k ! ` ) _ B.-XCXiXu. Xc.g.G D A n G A J v B X.%.n.{.q.(.9.|.|.A.K.~.).q.w.6.9.5.6.e.8.(././.f.].W.E.<.,.<.,.,.1.^.<.6.6.7.<.6.w.q.6.7.1.^./.K.}.6XuXGXpXaX2.aXiXmXxXxX9XgXmXuX6X6X7X0X8X0XnXnX",
"1 3 3 d h $ $ E ^ _ -X%XSXDXy.T.J.D b S L N B F A C X.} G.P.W.`.).0.aXfXDXu.|.|.9.w.3.r.e.9.t.w.8.)._.f.d.I.R./.1.^.<.7.7.<.).q.w.3.e.w.w.3.w.w.9.7.(.1.[.4.}.u.}.0.5.[.T. X}.F.*XwX1X3XJX<XwXgXmXxXxXkX",
"k 3 U o.Y Q P ! :.@X;X` :.%XIX#.$.$.X.C v m B D  .B 5 #.z.v.b.T.DXSXFXsXNXAXA.`.,.9.5.tX2.2.pX9.u.[.z.d.I.!.!.R.~._./.8.6.5.5.9.8.5.3.w.2.3.3.w.5.9.9.w.9.9.q.0.y._.8.q./.^._.m.DX0XwXCXwXiXGXsXsXsXrXsX",
"O.O.` Q ) >X) B.V.&XSX' [ :.*.+.} { 8  .i i i # M q e O.*.z.v } O.) AX3X2X,XBXu.8.t.fXtXrXFXsXbXuXSX*.J.g.L.~.^.(.,.,.7.5.3.w.5.<.q.w.r.3.2.2.5.9.8.9.w.2.e.2.9.e.e.2.e.0.6.7.8. X{.LXOXLX:XDXi.u.u.t.HX",
"3 & 3 k O.$ ^ @XIXC.x x l a f x { * + i u 8 9 5 . O + s &.C.*.H.] :XCX+X;XCX4.u.0.r.jXhXcXNXsXFXNXzXt.9.u.m.Y.K./.,.6.w.w.w.3.w.w.5.5.w.2.aXpXpXaX9.0.2.pXtXtXu.sXpXpXr.9.w.2.w.9.|.iXu. X|.y.sXCXS. Xw.",
"& 1 3 h ! P / @XD.O.O.t x < - - * & < w p 2 p ; r 2 : e j f [ PX] ] ) #X$XKXD.|.r.dXsXzXlXcXsXFXxXdXfXw.e.9.8. XE.(.7.w.w.3.2.r.2.2.e.5.w.2.pXpXtXpXaXtXrXeXhXsXeXhXpXaX2.aXr.t.r.t.u.DXy.pXu.y.t.t.aXhX",
"< < l g o.U ` :X) Z.C.! f z 4 < 3 2 a p O  . .  8 t 4 = - , x o.W ! ` C.%XJXuX4.FXNXdXNXbXgXdXbXbXzXt.i.9.5.0.}.).(.9.e.w.2.3.3.pX2.2.w.9.0.FXtXpXhXeXsXzXjXjXzXhXcXkXeXhXtXaXpXeXeXzXjXdXsXvXlXFXFXrXvX",
"o.U U ` ` ;.) +X#.S.LX% W ] A.} *.~ D.A.z.D } i a 2 - k { { f R Q _ Q } [.DXHXHXdXmXmXMXMXuXmXgXmXFXGXFXY._.Y.~.^.1.7.5.w.5.9.w.2.pXtXpXr.e.r.pXyXeXeXkXjXjXjXcXcXcXkXhXeXsXaXFXaXNXcXjXxXdXlXbXlXdXmXnX",
"3 f l $ +.E +.` OX=X:XIX;XGXiXZX:X:XDXt. XF.' @.' r < x l 1 { C.C.;.@XAX0.aXzXNXmXwXqX,X4X0XgXZXZXuXSX` | x.'.E.^.<.<.7.7.|.9.e.r.pXtXyXtXtXpXaXpXtXhXkXkXcXcXcXcXkXcXxXFXt.t.u.pXkXgXgXbXnXnXbXxXdXgXnX",
"1 & 3 3 d % R ( ! ! / @X-.=XoX;X%X*XwXnXAXVX>X>XP $ R U H.m.m.SX%X@X-X:XFXgXmXmX0X<XXX.X<X0XmX3X<X<X>XV.H.T.d.`.^.^.8.w.9.8.5.e.e.r.pXeXrXrXyXpXt.t.aXtXNXcXcXkXcXcXxXxXzXkXlXsXFXdXgXbXqX5X8X9X9XmXgXqX",
"1 & 3 3 o.W o.U ~ o.T / OXB.LX-.-X=XoXJXHX;XLX^ ! / [ IXSXfXFXGXGX>XSXHXBX3XMX2X8X.X&X&X*X9XnXAXqXJX<XZXHXFXy.T.P.`.<.w.2.2.pXpXaXpXpXeXjXhXzXjXpXt.r.NXzXkXcXcXvXvXlXlXbXxXxXxXFXGXBXnX5XqX8XZX6X6X7X7X",
"< 3 3 & r j d Y U E I T / :.KX@X@XOX;.-XZXAX` ) LX:.:Xu.3X0XiX4XMX3XZX6XAX%X&XiX3X&X*X*X<X3XuXMXMXqXiXNXNXFXNXHXu.|.|.(.5.w.r.yXhXzXkXhXhXjXcXkXsXrXzXpXsXcXcXxXlXgXbXbXbXxXgXbXmXxXzXxXnX0X5X6X3XqXZX6X",
"3 f 4 d l j $ Y ] OX:.` ) ( +X@X_ ( #X-X*XCX:XIXIXSX;XwX4X&XZX&X&X=X$X$X%X+XoX&X%X#X$X<XiXVX&X.X.X3X8XgXxXcXsXdXfXw. XSX8.0.t.pXaXeXjXjXkXcXcXcXcXcXcXkXdXFXsXkXvXlXlXgXgXgXgXnX5X9XnXMX0X0X7X,X,X,X,X<X",
"3 g o.P ` Q W W ) B.LX@XKX) ) P ` ( +X@X;.KX>XCX;X&X-X@X+XoXVX%X=X+X#X#X+XOXOX+X-X$X%X4X&X$X=X4X0X0XmXdXrXsXrXlXhXiXHXY.9.2.pXpXeXjXcXjXjXjXcXcXvXkXkXcXzXxXsXFXlXxXNXgXuXnX5X5XqXqXqX0X8X7X,X,X,X,X<X<X",
"$ E ] V.V.IX@X( KXV.LXOX_ T ! ! Q ) ( / ! / KX$XB.OXOX@X-X*XCX=X-X#XOXOXOX;.OX@X>.$X%X%X+X+X=XZXZXDXDXZXu.u.e.2.r.}.}.(.3.FXpXrXhXjXhXhXcXcXcXkXlXlXvXvXvXlXkXzXfXt.FXNXbX9X1XqX8X7X2X7X2X7X7X,X<X<X.XVX",
"r l U _ ) ) Q Q ` ` PX@XB.T ^ ` E ^ E ! P / / _ P P _ ) +X*X=X%X+X#XOXOXOXOXOXOX$X<X<X$XOX#X+X-XDX%XAXZXy.i.8.w.|.`.7.8.q.w.9.r.aXzXjXkXzXkXcXkXvXlXbXgXgXbXvXxXGXu.DXmXbXgX9X0X0X8X8X7X,X2X3X2X<X<X<X&X",
"d Y I U o.E U $ h o.) OX( P ^ U Y ^ ^ ^ E E ! ! ` ! ( -.oX$XB.B.OXOX;.;.;.OXOXOXOX-X$X+XKX>.OXoX>XPX] N.m.T.).[. X,.w.y.w.2.aXyXeXzXhXhXrXrXrXzXxXbXbXbXMXMXgXmXgXmXxXgXBXBXmXnXMX9XqX4X7X,X,X,X<X<XVX&X",
"k d f $ l d f h $ W ] E ^ ^ I U R ^ U I I I ^ E Q / ( V.B.+X( / / ( ( _ _ OXOX>.+X=X$X+XOXOX;._ ! ] O.i z.c.I./.(.7.w.w.3.pXr.pXtXtXtXpXaXr.dXcXlXxXbXbXgXgXgXMXnXnXgXgXmXNXbXlXnX9XqX8X6X4X<X<X,X<X<X&X",
"r f f f f g g d g Y E Y $ U o.$ W I o.Y Y I ! I E P P ^ P _ / _ / ( ( ( ;.@X-X+X=X&XVX=X$XoX@XB.P C.=.$.J.I.~.E.1.6.w.5.w.t.6.u.2.r.r.t.t.r.sXkXvXxXxXxXgXgX9X0XqX5X5X9X0XnXmXdXmXuXMXuX0X0X8X8XwX,X<X.X",
"3 f 3 d l g g h g d Y h h Y g ^ o.I I ^ Y U ^ I R ! ` E P ` / P ( OXOXOX@X$X&X=X=X=X*X$X+XOXKX-.;XCXO.S.u.y.{.Y./.8.e.3.2.2.tXeXtXeXsXt.u.t.FXFXGXFXBXxXMX9XqX5X8X8X8X8X8X9XgXmXdXsXBXsXBXNXMXmX8X,X<XVX",
"3 3 f f g l d h g k h h h h $ $ I Y Y Y I I I ^ E ! ^ E E ! _ / >.;X;X=X-X+X#XoX@X#X+X-X$X$X+XOXoX<XGXGXdXNXrXu.i._.7.5.8.e.r.FXzXjXeXaXsXcXlXdXFXGXNXxXgXnX0X8X8X8X8X8X7X8X8X6X9XgXiXHXFXmXnXnX8XVX<XVX",
"d g g d g g d h g h h h $ h h $ Y U Y o.I W E ^ I E ^ / _ _ ;.;.>.>.-X+X>.( ( B.-.-.OX+X$X=X$X+X-X&X.XXXiXmX3X}.T.~.(.7.5.r.tXhXhXcXcXkXxXlXlXbXBXmXgXgXgXgXqXqX8X6X2X7X2X2X8X8X0X9XmXGXmXnXnX0XqX,X6XJX",
"h U Y h g g d h h h $ h h o.$ $ Y Y Y U E ` ` ` E / / ( B._ ;.B.( ( ( ( _ _ ( B.;.;.-.@X-X$X=X%XAXZX7X6X0X8X&XLXA.F.T.Y.|.u.w.sXhXkXlXlXxXxXgXgXgXgXgXnXMX0X8X8X,X,X,X3X,X,X4X7X2X9XgXMXgX0X0XwX9X8X9XwX",
"U ` E Y h h g h h h h $ h h Y Y Y I I ^ E / ) _ ( ;.-.>.>._ / ` ! P / / / _ ;.#XKXOXOX@X+X-X$XoX&XVX8X0XuXMX3X3XFXsXpXFXfXu.q.t.eXsXdXNXNXmXnX9XnXMX1X1X3XwX2XwX,X,X,X,X,X,X,X,X<X8X0X9XwX,X,X2X9XiXMXZX"
};
