/* XPM */
static char *_20f5f69c2374fa0f79e30830bd937b2[] = {
/* columns rows colors chars-per-pixel */
"125 100 81 1 ",
"  c #848484",
". c #959595",
"X c gray64",
"o c #A9A9A9",
"O c gray67",
"+ c #ACACAC",
"@ c #AEAEAE",
"# c gray70",
"$ c #B4B4B4",
"% c gray71",
"& c gray72",
"* c gray73",
"= c #BBBBBB",
"- c #BCBCBC",
"; c gray74",
": c gray",
"> c gray75",
", c #C0C0C0",
"< c #C1C1C1",
"1 c gray76",
"2 c #C3C3C3",
"3 c gray77",
"4 c #C5C5C5",
"5 c #C6C6C6",
"6 c gray78",
"7 c #C8C8C8",
"8 c gray79",
"9 c #CACACA",
"0 c #CBCBCB",
"q c gray80",
"w c #CDCDCD",
"e c #CECECE",
"r c gray81",
"t c #D0D0D0",
"y c gray82",
"u c #D2D2D2",
"i c LightGray",
"p c gray83",
"a c #D5D5D5",
"s c gray84",
"d c #D7D7D7",
"f c #D8D8D8",
"g c gray85",
"h c #DADADA",
"j c gray86",
"k c gainsboro",
"l c #DDDDDD",
"z c gray87",
"x c #DFDFDF",
"c c gray88",
"v c #E1E1E1",
"b c #E2E2E2",
"n c gray89",
"m c #E4E4E4",
"M c gray90",
"N c #E6E6E6",
"B c #E7E7E7",
"V c gray91",
"C c #E9E9E9",
"Z c #EAEAEA",
"A c gray92",
"S c #ECECEC",
"D c gray93",
"F c #EEEEEE",
"G c #EFEFEF",
"H c gray94",
"J c #F1F1F1",
"K c gray95",
"L c #F3F3F3",
"P c #F4F4F4",
"I c gray96",
"U c #F6F6F6",
"Y c gray97",
"T c #F8F8F8",
"R c #F9F9F9",
"E c gray98",
"W c #FBFBFB",
"Q c gray99",
"! c #FDFDFD",
"~ c #FEFEFE",
"^ c gray100",
/* pixels */
"QQQQUULvBLWQQQUUUGBvhhGGUWLLLUUGdzZLGZGBZUQWWWWWGWWWQQWWGZGZZZGGZZGLLGLLBvzvZUUULLUQQQWWQWUWLzdZGLLWULUULLLLLZvvzZvZZQQQQQQQQ",
"WQQQUUUZvGLWWULLGGZBhhzzZUUGGGLZhvGUZvBBZLWWWWWULWWUWWWULGGZBZZGZBGUUULLBBBBZGULLLLWQQWQQQULGhzzZGLULUUUGGULGZvvvzihZQQQQQQQQ",
"QQQQWWWZhGLULUGGvvBBzhiizZUGBBLZhZGLGzzvGLUUUWWLBLLGLUULLLZBvBZZBZLWWUULZvZGBZLLULLWQQQQWQUGUhBzZGULGLUGGGLLBBBzd3,0zQQQQQQQQ",
"QQQQWWUZiGLGBGGZhzBBBzeedBUGBzGvzZGLGzzvGLWWWULZzvBBGLLLLLGvvBGGGGLWWWUGBvBGBBZGULLWQQQQUWULGzBvZGUGZLULGBZZzvvhe,eivQQQQQQQQ",
"QQQQQQUBhZBvhvvZBvZBZBiezGUZzhvhzZZGGvzzZLWWWLZzBvvBGGGULLGvZGLUULUWWWUZBvBZZZGGGGGWQQQQQWWLBhhBGUUZZGULGvZGBvzdeezzGQQQQQQQQ",
"QQQQQQWZZBvBzhhZGZGZGGzezZBzddzhvBBGGBvzvZUWUGvdBvzBGGGULUZBZLLUUUUWWWUGBBBZGGGLZZGUQQQQQUULzdhBGLUGBLWUGBGWGvdeedvzLQQQQQQQQ",
"QQQQQQQLGGZUGBzZGGZGGGB0dvhddzhBBBBGGGZvhvLWWGvhhzhzZGLUGLZvGUUUUUQQQWUGZLZZLGGLLZZLWQQQQQUGhdBGGLLLGLUUGBLQUz03ihvvWQQQQQQQQ",
"QQQQQQQWLUUUUUZZZLGLGZB3ivdzzvzZBBBLLGLZdvLUWGBzzzzhvLLGZLZzGUULLUQQQWUZBULZGGZUULZLWQQQQQUBheGZZGULGLWWZZGWUh33evvBQWQQQQQQQ",
"QQQQQQQQWQQWWWLZZBLLGGvhhhvZzGBGBBGLLULLhhLWLGZBhhBvZGLGGzZBBLQLLUWQQQULGZGGZZLULUGZUWWQWQLhzhvGBGLWLGUWGLLGUh3ddBZGWQQQQQQQQ",
"QQQQQQQQWQQQQWUZGBZZZGZvvzZGZGZLBZGULUULvhZLZGGBddvzBGLGZdvZUUULLUUWQQULGGZZZGLWUULLUWUWUWZdhhvGBZLULLUUGBvBLdiBdBZGWQQQQQQQQ",
"QQWQQQQQQQQQQQWGBzhvGZGZGvZLGGZLGZGUUWUUZhvZBZZBhzZvBGLGvizZULLLLUUUQQQULGBBGGLQUWWUWULUUGvidzBGZGLULLLGBi,0zvvBzZGGUWQQQQQQQ",
"QWWQQQQQQQQQQQQUZzehBvZBLBBUGZGLGZLLUWWULzzBBGZBBBGvBGGZdhBvZGUUUUUUQQQWULBvLLUQWWWWWUUULvhidBLGZGLUWLLBvi3>dZLvBZLUWWQQQQQQQ",
"WUUWWWQQQQQQQQQQUZiehvZBLBzUGLGULGLUUWWWLBBvBGZZBBGzvZZvzBLBBZUUWWUWQQQQWUZBLLLQWWUWUULUBhhhdBLLLGGLUWLvhdhehBULGGLUUWWWQQQQQ",
"UULWWWQQQQQQQQQQWUzdvBBBGZzLLUGULGUUUWWUUGGvvZGGBzBzvZZBBzGZZGLWQWWUQQQQQWGGLUUWWUWULLLZhzvzdvLUUGZGWWUZ00dhzBUWLGLUUUWWQQQQQ",
"LLUUWWQQQQQQQQQQLUZvGLZBGLvZLWLLULUUUWWWUULvzZGGZzvhvZGGZhZGGZLLWQWWQQQQWWULLLUUWUUUGLZzzvvvhBGWWUGLWQQL33ihGLWQUGUWUUWWWWQQQ",
"LUUWWQQQQQQQQQQQWWLZLWZLGUBBWWULUUWWWUWWUWUvzGGZGvzhvZGGUvGLZvGGWWWWQQQQLUULGUWWWUUGZLZdBBzvzGLUWWUWQQQL0eedLWQWWLUQUUWUWWQQQ",
"WLWQQWWQQQQQQQQQQQULUULGLUBzLWUGLUWWUWQWWWLBvZGZGZvvBGLGUZGZBZLGWWWWWWQQBWUWLLWUWQGGBBBvGBvzGLUQQQQQQQQWzhieGUUWUWWULUUWWUWQQ",
"UUWWUUWWQQQQQQQQQWUUUULGULzhLULLGLUUUWQQUULZBZZZZBBBZGLLLGBvvGZZGWQWUUQUZLGLGLUWUUGZZBGGGGZvGUWQQQQQQQUGzBheBWWLUWWWUUUWUUWQQ",
"UWWULUQWQQQQQQQQQWWUWWLLLUBhBULGGLUWUWWQUWULZZZZGZBZGLLLLLZdZBvZLUQQLUWLvBvGLUUUULGZGBLLGGZzLUWUQQQQWUGBvLveBULZLWQQWULUGLWQQ",
"UWQULWQWQQQQQQQQQWWWWWULGWUBBZZZGLLWWUUQWUULGZZZGZGLUULUUZBiZvZZWWWQWUGZvzdvGUULWLZGGBGLLGBzLUWWQQQQWULLZLBivvvZGWQWWUGGBLWWQ",
"WWQQWWWUWQQQQQQQWWQQQQWULGGLZhdZBZGUWUUWWWUUULGGGGLUUUUWGdhhvBLZvWUWWLzzZBhdzLUUUGBLGZZGLGvzGUWQQQQQWUWQLWGvvdhZGUWWWUZvvGUWQ",
"WQQQQWULWQQQQQQQWWWQQQWULBZGGvivzBZGUWUQQWUWQQUULLUUWUUWZdiBdGGZeUUBzZvzvZBhiZGUGLZUGGZBBvhdZGUQQQQQWUUQUWLvZZBBGUWWQUZzhZLUQ",
"WWQQQWWLWQQQQQQQWWWQQWWWGvZGGGzzBLGZWWWQQWUWQQWWGUWWWWWUvddZiLLv0ZZi=hZBvBZzdBBZBLLLLLGBvvhivZUQQWWQWLUUQWZBUULBGUWUWUGvhZLLQ",
"QQQQQQWGQQQQQQQQQWWWWWWUZhZLUGzBLUGGWQWQQWWWWQWUGUQWUWULdizvzUUvezz0OiGZZZBhdBzzBLWLUGLBBZBhvZWQWUWQWUUWQULGLLGBGUUUUWLGzZGUQ",
"QQQQQQWUWQQQQQQQQQQQWUUUvhGUWGhzZLUUUGLWQQQQQQWULUQQQQULhedGGGUz3GLGGvLZzzBhzBdBLUWWULGGGGLBBLWQUULQQUUUQWLLGBBGLUUUWWULzzLLQ",
"QQQQQWULWQQQQQQQQQWWULLGBzGUUZdzzGUWWZBWQQQQQQWUGUQQQWWLBhdGUGZ0,ZGzQGWLzivihvzGLUWULLLLLLGvBUQQUUWWWGUQQWZBvvvLUUUUWULBBhBLQ",
"WQQQQWULQQQQQQQQQQQWLGGZZZGUUZvvhZWWQLzUQQQQQQUULUQQQQWUGvdZWLv0eGLGGLQLvivdzzBUUWWULLUUWULBvUQWWWQWWBUQWWBzdvZUULUULLZzZvvUQ",
"UWQQWWULWQQQQQQQQQWULZGLLLLWUGGGBZUWQWzZQQQQQQUUGUQQQQWWGBdBQUBdvUUWzGQLBdBBBvZLUWQWUUWQWUUZhGWQUWQWWZWWWWBhhZLULGUUZZBdZGBQQ",
"UWWULLLLUQQQQQQQQQWUGGGUUWUWUZGLLGUWQQBzLWQQWWUULUQQQQQQGZdBWULvUQWGGLULGvGLGZZLWQQWUUWQWUUZhZWQLUQQLZUWWWBzvLLLUGLLvvvdvGZQW",
"UUULZGZZUQQQQQQQQQWUGGLWWQWWUGLLLZWWQQUZZUQWWWWLLUQQQQQQUGhvLUGdUQWULUWWUZGLGGZUWQQQWUQQWLZZhGLULWQUvvUWQUBvBGGLGGLZvzvzhZLWW",
"LUUGGZZGLWQQQQQQQQQWLGLUWWWWWUULZGUQQQWUZLUWWWWULWQQQQQQQLvzBLL3ZQQQZWUUWLLGUGGUWWQWQQQQWLZBzBZUUWQGzhUWWLvBBGZLGLGBvzBGvBLUQ",
"UUWULLLULWQQQQQQQQQQUUUWQWUWWULGZLUQQULULLGUUUWULWQQQQQQQLvhhGU3vQWBWWLULGGBUGLUWQQWWQQQWLZZhvzLLLWBzzWWULBZGGZULULBvzBUGBLLQ",
"UUWWUUWUQQQQQQQQQQQQWUWWQQQWWULLGLUWQQUULLGUWWWLLWQQQQQQQQGhzGZGvQUUWUZBGZLvLZGGUWQUWWQWUGZGzihZLGZzhBUWWBGGGULUUUULzzZGZLUWQ",
"LLUUUWWQQQQQQQQQQQQQWUWQQQQQWUULGLWQQQUUULLZUUQULUQQQQQQQWUGZBBLBZdZULzzdzBBZGZBLZGWQWWUUGGBhizZZGBihGUWUBGLLULUWWUGvzGGZUWQQ",
"BGLUWWQQQQQQQQQQQQQQWWQQQQQQUUUULUWQQQWWULLvLUQWUUQQQQQQQQWWLvzLGGzUULhGZhiZGUGLBihUWWWWGGZviihZLGZizUUWUZLUUULLWWULBvZZGUQQQ",
"zGULWQQQQQQQQQWWQQQQWWQQQQQWWWUULUWWQQQWULGzZUQUULUWWWQQQQQUGZvZGUUQWGvWQZhLUQWWLzzQWULLGGLZhhBZGhBzvULWLZLLULZGUUWUZBGBLWQQQ",
"dGULWQQQQQQQWWWLQWQQQQQQQQQQWUUUWQQQQQQQWULvvUUWULLLUUUQQQQWLGBBLUWWWBZWWWUQWQQUhizQUWLGZLLZvzvB0%ihzUWUZZZGLULLWQQUZZLGUWWWQ",
"hZLLWQQQQQQQWULGWWQQQQQQQQQQWWWWQQQQQQQQUWUGhZGWWULLLLWQQQQLZBvLUUWWQhGQUWWWQQQLGLWQUUUZZZGBzzzhvevzdLLBBBvBGUULWQWUZZLGUWUWQ",
"BBBLWQQQQQQQUZBBLUQQQQQQQQQQWWQQQQQQQQQQUUULvZvUUWLLGLUWQQWGBvvLLUUWWiGQQWGUQQQULUWULUWLvBZZZZZvvdhddZLZBZvhBUUUQQWLZGUGLLUWQ",
"LzzLQQQQQQQQLhdvGUWQQQQQQQQQQQQQQQQQQQQQWLUUGGzZWWUGZGUWQQWLZBzvZUGWUiGUUQUUQQQUGUWLUUUGdhvGGULZZzzBGGZZGLBhvLWLQWUUGGUZZLUUQ",
"GvdLWQQQQQQWGzvZBGUQQQQQQQQQQQQQQQQQQQQQLZUUGUGBWWWLZGLUQQULZZGvBUBBL3ZLWUWQQQQUvGGLLUUGBzhBGBGUZhBZGZLZLLBZGLUUQQUUQUZvvBLQQ",
"GviLWQQQQQQWZZZZBGWQQQQQQQQQQQQQQQQQQQQQZBZGLUGvZZLULGLLWQWGLZLBZUZ03iLGLUWQQWUZdZZLLUZzzBBhvGLLGzBZGGULLLZLGLLUWWWQWUvhzvZUQ",
"GBdZQQQQQQWGZLLGBLWQQQQQQQQQQQQQQQQQQQQUGvBZGWUBddvZZZGLLULGLLGGGUB3.GLLGUWQQWLz>vLUZZZBdBZizLLUUZBvZGWULGGWLLGLUQQQQUBhhvZUQ",
"LZdGQQQQQQUZGUUGGLWQQQQQQQQWQQQQQQQQQQWGZvZGLWULUGGGZZLUUUvGLWGLWGB3XUUWLWUWULGvedhBZULZzBZdBUGWWLvhZLWUGBLQUUUUUQQQQUZvvBGWQ",
"WGhGQQQQQQLBGLLLWQQQQQQQQQQWWQQQQQQQQQLBZvGLLUUUWLGvzvBBLBihGWLWQZz,,ZLUUUUULZGBZdeBUQWZLGUzLLGUULvhZLUWZBUQQQQQWQQQQWLZBZLWQ",
"WLzLQQQQQWGBGGZUWQQQQQQQQQQQWQQQQQQQQUBBBvGULGLULGGvzvvzd3,>BGWWLv0=eBZULLLUGBZBZhhUQQUGUUQvLLLLUGBhGUUUZBWQQQQQQQQQQQULZLUWQ",
"WGvUQQQQQWZBZvBLQQQQQQQQQQQQWQQQQQQQQGvzzdBLLLLULGZvzhd0,>>#iZWUBe,+BvGGLLLLGBZBBhhWQQQZGQQGZZLUUGBvLUUUGzQQQQQQQQQQQQWULUWQQ",
"QLBUWQQQQUGBBvzLWQQQQQQQQQQQQQQQQQQQQGhzzdvLUULULZvvhde30i0,>LLLv0>>BZBZLWULZGLZvzzQQQWGUQQWBBGWUZZBLUWUGhUQQQQQQQQQQQWWUWWWQ",
"WWvLWWQQWQLBvGBZWQQQQQQQQQQQQQQQQQQQWGzhh0BLLULUZZddi3eedh3idhBBd0OevZZZLUGUUZZhedhLQUZZWQQWLvBWUBvBUWLUGhZQQQQQQWQQQQQQWWWWQ",
"QWvBLWQQUUUBBBBZUWQQQQQQQQQQQQQQQQQQWUZziivZGLGLZvdZBidhdhizBvzi3% dZZBGLLLULZvei33hGGZGWQQQUBvLZvvvUUUUGhBWQQQQQWQQQQQQQWWWQ",
"WLzvGWWULGUZZdZBUWQQQQQQQQQQQQWWQQQQWWLvdBvvBBZBvzzULhzvhdizGZBi,O zGZBZGGUUULz3i,ehvvBUQQQQWBhBBvBvLULLGzBWQQQQQQQQQQQQQQQQQ",
"LGBBGWUUGZGvvdZzGQQQQQQQQQQQQWWWUWWQQQLvvZhhhdhdvZGUUZvzzdehGLLBd>=BGGBZLGWWUUz0e,zGZZBQQQQQQZzzzBZzGUGLLvZWQQQQQWQQQQQQQQQQQ",
"ZGUZZUULZZvhdhBdZUQQQQQQQQQQWWULGBGWQQLBzZehhdhvGUWUUGBzhddBZUUUGzBGLGGGULQQWLBhe,hZUUZUQQQQULBvhBBdZGGGLZGQQQQQQQWQQQQQQQQQQ",
"GUUGBZLZBBddivzdGLQQQQQQQQQWWULZBhvUQQLBvZivBvZLWWWWUGBBhdhZZLUWULBGGBLGUWQQLGZZvidvLUGWQQQWLLZvzZZdBGZLGZGQQQQQQQUQQQQQQQQQQ",
"LUUZBvGvzzidiBzvGLQQQQQQQQQQUUGBzizUQQUvvZhzzBGUQWWWWLBBhdzZZUQQQWBGZZZLWWQQLBZGGZzzZLUQQQWUGGGBvGZdvZBGLLLQQQQQQQUQQQQQQQQQQ",
"UWLLZzGzhhdidvzBLLWQQQQQQQQQUUZvzizUQQWBBLhdevGWQWQWLGvzvdZZLUQQQWQGGGBUWQWQGzZZZLvhGGUQQWWUUULGzBvivBBLLLUQQQQQQWLQQQQQQQQQQ",
"LULGGGBvdezhdzzGUGGUQQQQQQQQWWZzd0zUQQWGvZvhhBLWWQWLLBhddvZGLWWQQQQLLUULQQQWGBBZLBBvBZWWQQWUUWWLZihevvBZLLUWQQQQQWUUWWUWWWWWQ",
"ZULZZZZZzezzhvBLWLGUQQQQQQQQULBzdiBUWQUZhvBBvGUUWQWLGvdhizvBLWQQQQWLGUWUQWWLZBBZGvBhZZWWWWQWUWWULzhizBvZGGLWQQQQQQWWWWWWWWWWW",
"BLLZZZZGZdzvvvBLWULUQQQQQQQQULBvddZUUWGBvBZBvGUWQQWLBzzBvvBBUQQQQQUGLWWQQWULZBZGZvBdZBUWWWWQUWWWLvhdhBvBGGUWWWQQQQWUUWWWWQWUU",
"BLULGZZLLhzZBvBGQWUWQQQQQQQQUGGGzzZLWUZZGBBvvZUWQQWGBBZLLGZZWQQQQQULLWQQQQULZZZGLZzivvGUWWWUUQQWLvzdhBBZLUWWUUUWWQWUUUWWWWULG",
"ZUWULZZGLvBGZBZLQWWWWQQQQQQQWLGLGzBLWUGLZzBBvZLWQQWGBZLLUULLWQQQQQWLLWWUWWWLZBGLLGvhzvBZLLUUUQQULvvdzvGGUWWWWUWWWQWLLLWWWLZZZ",
"BUWUUGBGGBBZBZLUWWWWWQQQQQQQWULLGhzGUULULzBGBZGWQQWLZLWUWWWQWQQQWQWWUWWUUWWUGZGUGLZZBGvzvZLUUWWUGBBhBBUUWWQWUWWQQWWLLUUULZvBZ",
"BLWUUZBGZBBvzBLLLUWQWWWWQQQQQQWUGhzGLLLLWBLGvGLWQUUUGGWUWQQQQQQQUQWWUWWWWWWLGGGULLGLLULBvzvLUWWUGZZvGLQWWWQWWWWWWWWUULUUGBvZL",
"vLWWLBBLZGZzdvLLLUWQQWQQQQQQQQQULzvGGLULUBLGvGLLQLLWLZLWUWQQQQQQWQWWUUWWWWULGZLLUGLGUWWGBddBUWWUGLZGLQQWWWQWWQQQWWWWWLGGGvBLW",
"BLUWWGZLGLLBzvLULLWQQQQQWWQQQQQWGBBLLLLUWBZUBUULUGGLLLLUWWWQQQQQQQQQQQQQQQWLGGLLLLLWLQUGZzezUWWWLLGGLWQQQWWWQQQQQQQWWUGZBBLGW",
"ZZLWUZZGLUUGBGUUULWQQQQQWWQQQQQWLGGZGLULLvGWGLUGULLLUUUUUWQQQQQQQQQQQQQQQWUULLLUULLGGWUWZzezLWWUUULGLWQQQQWWQQQQQQQQWULGGZUUQ",
"GZGUULGGLUULLLLUULLWQQQWWWQQQQQQUUGZBGLGGZGWLLUUUUUUUUUUUWQQQQQQQQQQWWQQQWUULUUUULUUWQWWGBdzGUWWWUULUQQQWWWWQQQQQQQQWULGZBWQQ",
"BzBLULULUWLGUULUUGLUWQQWUWQQQQQQUULBBGLGvZZUGUUWUUWWUUULWQQQQQQQQQQQWWWWWWUWUUUUUULvGWWQGZzhvGUWUUWWWQQQWUWWQQQQQQQQQWUUBvWQQ",
"BhzLWUUUUWLGUWUWGGGUWWQWQQQQQQQQWLLGZZGGzZGZLUWLUUWWUULZLWQQQQQQQQQQWWWWWUUUWUUWUUGdBLQWLGBhzZUWUUWWQQQQUWWWQQQQQQQQQQQWZBWQQ",
"vzzGUULUWLZGUWWWZZGUUWWWWQQQQQQQWUULZvBZvvLhGLQLLLUUUUGBLWQQQQQQQQQQQQQQWWUUUUUUUWLzvUWUQUZdzZZGGLLUQQQUULLWQQQQQQQQQQWWBBWQQ",
"BzzZULGUUGZGLWWUGZGLUWWWWWQQQQQQWUULBhvZBvUdvUWULUUULLZBGUQQQQQQQQQQQQQQQWUUWUUUQWLBzGUWWLBeevvBGZZGWQWLULLUQQQQQQQQQQWWBBQQQ",
"vhhvGZZUWGZLLWWLZZZGUUWWUWQQQQQQUUUGzhzBvvUZBQLLUUWWLZBvGWQQQQQQQQQQQQQQQWUWUWUUUWQQZLLUWUGi0zvZUGBZUQWGULGUQQQQQQQQQQQUZLQQQ",
"BvzzzvBLLLLLUUWUZBULLUWUUQQQQQQQWWZzvvvZvvULLGLUUUWLUUvBLUWQQQQQQQQQQQQQQQWWWWWUWUWQWULLLUB3dzBZUGLBLQWUUGLUWQQQQQQQUQWGZUQQQ",
"vZvvzBBZULLLLUULGBULGGUUWQQQQQQQWWGBBBBGZZULGGGLUWWLUUBBGUQQQQQQQQQQQQQQQQWWUWULWWWQQQUWZBhihvvGZBBGUWLLWUULGQQQQQQWUULBZUQQQ",
"vZZBBvZGLLLGLULLZvGZBZGUUWQWQQQQWUGvvBZGGLULZGGGUUWLUUZBGUQQQQQQQQQQQQQQWWQWUULLUUWQQQQQUBdhdzBWvvBLLUZGLUUGvWQQQQWLUGBhZUQQQ",
"BBvBBzBLLLLGLUUGZhZZZBZLWWWWQQQWWUZzhhBLUUWLBZZLLGLLUUGGGUQQQQQQQQQQQQQQWWWWWULULLUQQQQQLBvLBvBLvZGLZLGZGLULBQQQQQULLZzhLWQQQ",
"GBzZBdhvGLLLLULLGhBZULGLWWUWQQQQWUZzidvLUWWUvZZLUZGUWUGGGLWQQQQQQQQQQQQQWWUUWWUULGLUWQQQLZLLZzZLZGUGGZGZGGLUZWWQQQLGLGvvUQQQQ",
"UBdGGzdvGLLUUULLGzZLQQULUUUWQQQQULGBihZUWWQWBBZLUZGUWLGGGLUWQQQQQQQQQQQQQWUUUWUULGGLUWQQULWZvhGULGGGGzBGLLLUGWWQQWLGLGZZQQQQQ",
"GveGGZzvZLWUUWULZzGUQQWWUUWWQQQQWLGZhzGUQWQWGBZLWGLWUUUGGGLUQQQQQQQQQQQQQWUUWWUWUGZGLUWWGUQUZBGGLGBGZzBGLLUULUWWWLGGGGLLQQQQQ",
"Bh>vBBzvGLWWUULLZvUWQQWQUUWWWWQQWLGBzvGWQUQWLBZUULLUUWWZZGLUQQQQQQQQQQQQWUUWWUWWWLGZGGUULWWUZLLWUUBZvvZLGGWULWQWWLGLZGLUQQQQQ",
"eh0dvBvvGUWUWWULGGUQQQQQWWWWWWUUUULBvLWWWWQWWZLLULLUUWWGBGLLQQQQQQQQQQQQWUUUQQQQUUZGGLGLULWUGLWQUBGZzBLLGGWLLWUULLLWLGLUQQQQQ",
"dzedvvzhZGUWWWUUULWQQQQQUUWWWWWWUULGZUQQWWQQQGUUWULUWQUGvLLLQQQQQQQQQQQQUULUQQQQWWBBZLUULLWULUWWLLUZzZGLLZWULUUULLWQULUWQQQQQ",
"vvzdzze3hvBGGLWQQUWQQQQQWWWUWWWWWWULLUWQQQQQQULLWUUUWWWGvLLGWQQQQQQQQQQQLLLWQQQQWWvvZUWULLWWLULUGUWZvZLLLZUWLLUULWQQWUUQQQQQQ",
"Bzzedi>%edzzvGUWWUWQQQQQWUWWUWWWWWUUWWWQQQQQQLGLUUUWWWWLZZZLWQQQQQQQQQQQULUWQQQQWWvvZLULLLWUULLLGUWBvZGLGZUQUGUUWWQQQUUWQQQQQ",
"Bihihd0idzBZBBZGQWQQQQQQWWWWWWUUUUUWQWQQQQQQQUBGUUWWUUWULZBGLWWWQQQQQQQQUULUWWWQQWBBZLLLLUQWWWLLGGGzBZZGZBGQUGLLWQQQQQWUQQQQQ",
"ZdhhvBBLLLWQLBBUWWQQQQQQUWUWUUUULLUWQQQQQQQQQUBLLUWWUUWWULZBZUQWQQQQQQQQWULUWQQQQWZZBBZLLWQQWQWWLGBhBZBGZZZULZLUQQQQQQWWQQQQQ",
"BidvBZGQQQQQQLLULUQQQQQQUUWUUUULGLUWQWQQQQQQQWBLUUWWUWWWWLZvvLQQQQQQQQWWULLLWQQQWUBZvvvZZUQWQQUQWGBzBZBZZZvGGBGUQQQQQQQQQQQQQ",
"vidZGULQQQQQQQUvzBWQQQQQUUUUUULLLWQQWWQQQQQQQQvLQUWWWWWWWGBBvBWQQQQQQWUUUGGLWQQWWUBGBzzZZUQWQQWQQLZBBGZBGGvvZBZUQQQQQQQQQQQQQ",
"ZzvGWWWWQQQQQQQG03UQWWUWWLGLLLGLLWQQWWQQQQQQQQGZWWWQQUUQWGhvZvQQQQQQQUUULGLLUWULGLZZZvvBZLUWWWWWWULvBLZZZLBhzGGWQQQQQQQQQQQQQ",
"ZBZUQWWQQQQQQQQLzdLUWULLULLLGGLUUWQQWQQQQQQQQQGLWWWWQWWQUBhBZZQQQQQQWWWULZGLUWWUGZZZGZvBGLGLLWWWWWLzzGLGUUZhhZGQQQQQQQQQQQQQQ",
"GGUQQQQQQQQQQQQWGBGGULLLGLLGGGLUUWWWQQQQQQQQQQZUWWUWUWWULzdGGLWQQQQQUUWULGGUWWWUGBBZZZBBLUGZLWUWQQUvhZLLUUGvzLUWQQQQQQQQQQQQQ",
"GUWQQQQQQQQQQQQUZLGZLBGGZGGGGLUULUWWQWQQQQQQQUZLWUUUWWWUGdzLGUUQQQQWLUUWLGGLUUULZBBGGGGBUWGZUQWWQQUvzBGULUUGBUWWQQQQQQQQQQQQQ",
"LQQQQQQQQQQWQWUGBULGUBZBvBZLUUUUUGLWQQQQQQQQQGGWUWWUUUUUZdBGLUQQQQQULUWWLGGLLLLGGBZLGLGBLWLZUWWWQWGBvvGUUUUGvUWQQQQQQQQQQQQQQ",
"WQQQQQQQQQUWWWLBZUUUWGGvhzZLUUUUWGZUQQQQQQQQWGUQWUUUULGLBhZLUUQQQQQUGLWUZZLLLLLGZZGLLLZZLQWZLWWWQUGZBzBGLUWLvUWWQQQQQQQQQQQQQ",
"WQQQQQQQQQLGLLZhGLULQULBzhvGUUUWWGGWQQQQQQQQUZWWQULLGGZGvzBLUUWQQQWLGGULvZLLGLLGBGGLLGZGUQWGGUWUUUZBzdvZGUWLZUWWQQQQQQQQQQQQQ",
"QQQQQQQQQQLZZZviBLWLUUUGGzdvUWUULUUWQQQQQQQQLvWUQLZGGZZZzBvGLUUWQQWGZZGZzBLLLLUZBGLLLGZGWQWZBGULGGvzdivBZUULZUUQQQQQQQQQQQQQQ",
"WQQQQQQQQQULULzhBZUUUWWWLvBvBLWLGUWQWQQQQQWQQGZWWLZBBvhBhZvvLUQWQUUBzBvzdvGUUULZZGGGLZvLWUULBvZLvZvz0ehGZLLGZLUWQQQQQQQQQQWQQ",
"UQQQQQQQQQULULzzvvLUUWQQWGZBvGWLZUWQQQQQQQWWQGGWWGBzvzidzZvBLUWWWLLzdhddhvGUWULGBZGGGZvGQWWLvhvvzvzveizZGLUGGGUWQQQQQQWWWUUWW",
"WQQQQQQQQQQLULvBBBLLUQQQQUUBhBLUGUWQUQQWWWWUWGLWWLBhzzidvZZZLUULLLLhdzhzvBGUUULGBZGGLZzBUUULvzzvhhhheihBGLULGGUWQQWWWLGGZZLUU",
"LQQQQQQQQQWLULBZGZLLUWQQQUUBdBLUGUWQUWUUUUULWULWWLBhzvhdvZZZUULGGGGzhZZZBBZGUULGZGLLLBhhLUULZBZZvhdd0idvLUULGGUWWWULLGBzzBGUU"
};
