/* XPM */
static char *_9d4958018e049559e4cf28347a53c85[] = {
/* columns rows colors chars-per-pixel */
"126 100 3 1 ",
"  c black",
". c #BCBCBC",
"X c gray100",
/* pixels */
"                         .XXXXXXXXXXXXXXXXXXXXXXXX.                        .XXXXXXXXXXXXXXXXXXXXXXXX.                         ",
"                         .XXXXXXXXXXXXXXXXXXXXXXXX.                        .XXXXXXXXXXXXXXXXXXXXXXXX.                         ",
"                         .XXXXXXXXXXXXXXXXXXXXXXXX.                        .XXXXXXXXXXXXXXXXXXXXXXXX.                         ",
"                         .XXXXXXXXXXXXXXXXXXXXXXXX.                        .XXXXXXXXXXXXXXXXXXXXXXXX.                         ",
"                         .XXXXXXXXXXXXXXXXXXXXXXXX.                        .XXXXXXXXXXXXXXXXXXXXXXXX.                         ",
"                         .XXXXXXXXXXXXXXXXXXXXXXXX.                        .XXXXXXXXXXXXXXXXXXXXXXXX.                         ",
"                         .XXXXXXXXXXXXXXXXXXXXXXXX.                        .XXXXXXXXXXXXXXXXXXXXXXXX.                         ",
"                         .XXXXXXXXXXXXXXXXXXXXXXXX.                        .XXXXXXXXXXXXXXXXXXXXXXXX.                         ",
"                         .XXXXXXXXXXXXXXXXXXXXXXXX.                        .XXXXXXXXXXXXXXXXXXXXXXXX.                         ",
"                         .XXXXXXXXXXXXXXXXXXXXXXXX.                        .XXXXXXXXXXXXXXXXXXXXXXXX.                         ",
"                         .XXXXXXXXXXXXXXXXXXXXXXXX.                        .XXXXXXXXXXXXXXXXXXXXXXXX.                         ",
"                         .XXXXXXXXXXXXXXXXXXXXXXXX.                        .XXXXXXXXXXXXXXXXXXXXXXXX.                         ",
"                         .XXXXXXXXXXXXXXXXXXXXXXXX.                        .XXXXXXXXXXXXXXXXXXXXXXXX.                         ",
"                         .XXXXXXXXXXXXXXXXXXXXXXXX.                        .XXXXXXXXXXXXXXXXXXXXXXXX.                         ",
"                         .XXXXXXXXXXXXXXXXXXXXXXXX.                        .XXXXXXXXXXXXXXXXXXXXXXXX.                         ",
"                         .XXXXXXXXXXXXXXXXXXXXXXXX.                        .XXXXXXXXXXXXXXXXXXXXXXXX.                         ",
"                         .XXXXXXXXXXXXXXXXXXXXXXXX.                        .XXXXXXXXXXXXXXXXXXXXXXXX.                         ",
"                         .XXXXXXXXXXXXXXXXXXXXXXXX.                        .XXXXXXXXXXXXXXXXXXXXXXXX.                         ",
"                         .XXXXXXXXXXXXXXXXXXXXXXXX.                        .XXXXXXXXXXXXXXXXXXXXXXXX.                         ",
"                         .XXXXXXXXXXXXXXXXXXXXXXXX.                        .XXXXXXXXXXXXXXXXXXXXXXXX.                         ",
"XXXXXXXXXXXXXXXXXXXXXXXXX.                        .XXXXXXXXXXXXXXXXXXXXXXXX.                        .XXXXXXXXXXXXXXXXXXXXXXXXX",
"XXXXXXXXXXXXXXXXXXXXXXXXX.                        .XXXXXXXXXXXXXXXXXXXXXXXX.                        .XXXXXXXXXXXXXXXXXXXXXXXXX",
"XXXXXXXXXXXXXXXXXXXXXXXXX.                        .XXXXXXXXXXXXXXXXXXXXXXXX.                        .XXXXXXXXXXXXXXXXXXXXXXXXX",
"XXXXXXXXXXXXXXXXXXXXXXXXX.                        .XXXXXXXXXXXXXXXXXXXXXXXX.                        .XXXXXXXXXXXXXXXXXXXXXXXXX",
"XXXXXXXXXXXXXXXXXXXXXXXXX.                        .XXXXXXXXXXXXXXXXXXXXXXXX.                        .XXXXXXXXXXXXXXXXXXXXXXXXX",
"XXXXXXXXXXXXXXXXXXXXXXXXX.                        .XXXXXXXXXXXXXXXXXXXXXXXX.                        .XXXXXXXXXXXXXXXXXXXXXXXXX",
"XXXXXXXXXXXXXXXXXXXXXXXXX.                        .XXXXXXXXXXXXXXXXXXXXXXXX.                        .XXXXXXXXXXXXXXXXXXXXXXXXX",
"XXXXXXXXXXXXXXXXXXXXXXXXX.                        .XXXXXXXXXXXXXXXXXXXXXXXX.                        .XXXXXXXXXXXXXXXXXXXXXXXXX",
"XXXXXXXXXXXXXXXXXXXXXXXXX.                        .XXXXXXXXXXXXXXXXXXXXXXXX.                        .XXXXXXXXXXXXXXXXXXXXXXXXX",
"XXXXXXXXXXXXXXXXXXXXXXXXX.                        .XXXXXXXXXXXXXXXXXXXXXXXX.                        .XXXXXXXXXXXXXXXXXXXXXXXXX",
"XXXXXXXXXXXXXXXXXXXXXXXXX.                        .XXXXXXXXXXXXXXXXXXXXXXXX.                        .XXXXXXXXXXXXXXXXXXXXXXXXX",
"XXXXXXXXXXXXXXXXXXXXXXXXX.                        .XXXXXXXXXXXXXXXXXXXXXXXX.                        .XXXXXXXXXXXXXXXXXXXXXXXXX",
"XXXXXXXXXXXXXXXXXXXXXXXXX.                        .XXXXXXXXXXXXXXXXXXXXXXXX.                        .XXXXXXXXXXXXXXXXXXXXXXXXX",
"XXXXXXXXXXXXXXXXXXXXXXXXX.                        .XXXXXXXXXXXXXXXXXXXXXXXX.                        .XXXXXXXXXXXXXXXXXXXXXXXXX",
"XXXXXXXXXXXXXXXXXXXXXXXXX.                        .XXXXXXXXXXXXXXXXXXXXXXXX.                        .XXXXXXXXXXXXXXXXXXXXXXXXX",
"XXXXXXXXXXXXXXXXXXXXXXXXX.                        .XXXXXXXXXXXXXXXXXXXXXXXX.                        .XXXXXXXXXXXXXXXXXXXXXXXXX",
"XXXXXXXXXXXXXXXXXXXXXXXXX.                        .XXXXXXXXXXXXXXXXXXXXXXXX.                        .XXXXXXXXXXXXXXXXXXXXXXXXX",
"XXXXXXXXXXXXXXXXXXXXXXXXX.                        .XXXXXXXXXXXXXXXXXXXXXXXX.                        .XXXXXXXXXXXXXXXXXXXXXXXXX",
"XXXXXXXXXXXXXXXXXXXXXXXXX.                        .XXXXXXXXXXXXXXXXXXXXXXXX.                        .XXXXXXXXXXXXXXXXXXXXXXXXX",
"XXXXXXXXXXXXXXXXXXXXXXXXX.                        .XXXXXXXXXXXXXXXXXXXXXXXX.                        .XXXXXXXXXXXXXXXXXXXXXXXXX",
"                         .XXXXXXXXXXXXXXXXXXXXXXXX.                        .XXXXXXXXXXXXXXXXXXXXXXXX.                         ",
"                         .XXXXXXXXXXXXXXXXXXXXXXXX.                        .XXXXXXXXXXXXXXXXXXXXXXXX.                         ",
"                         .XXXXXXXXXXXXXXXXXXXXXXXX.                        .XXXXXXXXXXXXXXXXXXXXXXXX.                         ",
"                         .XXXXXXXXXXXXXXXXXXXXXXXX.                        .XXXXXXXXXXXXXXXXXXXXXXXX.                         ",
"                         .XXXXXXXXXXXXXXXXXXXXXXXX.                        .XXXXXXXXXXXXXXXXXXXXXXXX.                         ",
"                         .XXXXXXXXXXXXXXXXXXXXXXXX.                        .XXXXXXXXXXXXXXXXXXXXXXXX.                         ",
"                         .XXXXXXXXXXXXXXXXXXXXXXXX.                        .XXXXXXXXXXXXXXXXXXXXXXXX.                         ",
"                         .XXXXXXXXXXXXXXXXXXXXXXXX.                        .XXXXXXXXXXXXXXXXXXXXXXXX.                         ",
"                         .XXXXXXXXXXXXXXXXXXXXXXXX.                        .XXXXXXXXXXXXXXXXXXXXXXXX.                         ",
"                         .XXXXXXXXXXXXXXXXXXXXXXXX.                        .XXXXXXXXXXXXXXXXXXXXXXXX.                         ",
"                         .XXXXXXXXXXXXXXXXXXXXXXXX.                        .XXXXXXXXXXXXXXXXXXXXXXXX.                         ",
"                         .XXXXXXXXXXXXXXXXXXXXXXXX.                        .XXXXXXXXXXXXXXXXXXXXXXXX.                         ",
"                         .XXXXXXXXXXXXXXXXXXXXXXXX.                        .XXXXXXXXXXXXXXXXXXXXXXXX.                         ",
"                         .XXXXXXXXXXXXXXXXXXXXXXXX.                        .XXXXXXXXXXXXXXXXXXXXXXXX.                         ",
"                         .XXXXXXXXXXXXXXXXXXXXXXXX.                        .XXXXXXXXXXXXXXXXXXXXXXXX.                         ",
"                         .XXXXXXXXXXXXXXXXXXXXXXXX.                        .XXXXXXXXXXXXXXXXXXXXXXXX.                         ",
"                         .XXXXXXXXXXXXXXXXXXXXXXXX.                        .XXXXXXXXXXXXXXXXXXXXXXXX.                         ",
"                         .XXXXXXXXXXXXXXXXXXXXXXXX.                        .XXXXXXXXXXXXXXXXXXXXXXXX.                         ",
"                         .XXXXXXXXXXXXXXXXXXXXXXXX.                        .XXXXXXXXXXXXXXXXXXXXXXXX.                         ",
"                         .XXXXXXXXXXXXXXXXXXXXXXXX.                        .XXXXXXXXXXXXXXXXXXXXXXXX.                         ",
"XXXXXXXXXXXXXXXXXXXXXXXXX.                        .XXXXXXXXXXXXXXXXXXXXXXXX.                        .XXXXXXXXXXXXXXXXXXXXXXXXX",
"XXXXXXXXXXXXXXXXXXXXXXXXX.                        .XXXXXXXXXXXXXXXXXXXXXXXX.                        .XXXXXXXXXXXXXXXXXXXXXXXXX",
"XXXXXXXXXXXXXXXXXXXXXXXXX.                        .XXXXXXXXXXXXXXXXXXXXXXXX.                        .XXXXXXXXXXXXXXXXXXXXXXXXX",
"XXXXXXXXXXXXXXXXXXXXXXXXX.                        .XXXXXXXXXXXXXXXXXXXXXXXX.                        .XXXXXXXXXXXXXXXXXXXXXXXXX",
"XXXXXXXXXXXXXXXXXXXXXXXXX.                        .XXXXXXXXXXXXXXXXXXXXXXXX.                        .XXXXXXXXXXXXXXXXXXXXXXXXX",
"XXXXXXXXXXXXXXXXXXXXXXXXX.                        .XXXXXXXXXXXXXXXXXXXXXXXX.                        .XXXXXXXXXXXXXXXXXXXXXXXXX",
"XXXXXXXXXXXXXXXXXXXXXXXXX.                        .XXXXXXXXXXXXXXXXXXXXXXXX.                        .XXXXXXXXXXXXXXXXXXXXXXXXX",
"XXXXXXXXXXXXXXXXXXXXXXXXX.                        .XXXXXXXXXXXXXXXXXXXXXXXX.                        .XXXXXXXXXXXXXXXXXXXXXXXXX",
"XXXXXXXXXXXXXXXXXXXXXXXXX.                        .XXXXXXXXXXXXXXXXXXXXXXXX.                        .XXXXXXXXXXXXXXXXXXXXXXXXX",
"XXXXXXXXXXXXXXXXXXXXXXXXX.                        .XXXXXXXXXXXXXXXXXXXXXXXX.                        .XXXXXXXXXXXXXXXXXXXXXXXXX",
"XXXXXXXXXXXXXXXXXXXXXXXXX.                        .XXXXXXXXXXXXXXXXXXXXXXXX.                        .XXXXXXXXXXXXXXXXXXXXXXXXX",
"XXXXXXXXXXXXXXXXXXXXXXXXX.                        .XXXXXXXXXXXXXXXXXXXXXXXX.                        .XXXXXXXXXXXXXXXXXXXXXXXXX",
"XXXXXXXXXXXXXXXXXXXXXXXXX.                        .XXXXXXXXXXXXXXXXXXXXXXXX.                        .XXXXXXXXXXXXXXXXXXXXXXXXX",
"XXXXXXXXXXXXXXXXXXXXXXXXX.                        .XXXXXXXXXXXXXXXXXXXXXXXX.                        .XXXXXXXXXXXXXXXXXXXXXXXXX",
"XXXXXXXXXXXXXXXXXXXXXXXXX.                        .XXXXXXXXXXXXXXXXXXXXXXXX.                        .XXXXXXXXXXXXXXXXXXXXXXXXX",
"XXXXXXXXXXXXXXXXXXXXXXXXX.                        .XXXXXXXXXXXXXXXXXXXXXXXX.                        .XXXXXXXXXXXXXXXXXXXXXXXXX",
"XXXXXXXXXXXXXXXXXXXXXXXXX.                        .XXXXXXXXXXXXXXXXXXXXXXXX.                        .XXXXXXXXXXXXXXXXXXXXXXXXX",
"XXXXXXXXXXXXXXXXXXXXXXXXX.                        .XXXXXXXXXXXXXXXXXXXXXXXX.                        .XXXXXXXXXXXXXXXXXXXXXXXXX",
"XXXXXXXXXXXXXXXXXXXXXXXXX.                        .XXXXXXXXXXXXXXXXXXXXXXXX.                        .XXXXXXXXXXXXXXXXXXXXXXXXX",
"XXXXXXXXXXXXXXXXXXXXXXXXX.                        .XXXXXXXXXXXXXXXXXXXXXXXX.                        .XXXXXXXXXXXXXXXXXXXXXXXXX",
"                         .XXXXXXXXXXXXXXXXXXXXXXXX.                        .XXXXXXXXXXXXXXXXXXXXXXXX.                         ",
"                         .XXXXXXXXXXXXXXXXXXXXXXXX.                        .XXXXXXXXXXXXXXXXXXXXXXXX.                         ",
"                         .XXXXXXXXXXXXXXXXXXXXXXXX.                        .XXXXXXXXXXXXXXXXXXXXXXXX.                         ",
"                         .XXXXXXXXXXXXXXXXXXXXXXXX.                        .XXXXXXXXXXXXXXXXXXXXXXXX.                         ",
"                         .XXXXXXXXXXXXXXXXXXXXXXXX.                        .XXXXXXXXXXXXXXXXXXXXXXXX.                         ",
"                         .XXXXXXXXXXXXXXXXXXXXXXXX.                        .XXXXXXXXXXXXXXXXXXXXXXXX.                         ",
"                         .XXXXXXXXXXXXXXXXXXXXXXXX.                        .XXXXXXXXXXXXXXXXXXXXXXXX.                         ",
"                         .XXXXXXXXXXXXXXXXXXXXXXXX.                        .XXXXXXXXXXXXXXXXXXXXXXXX.                         ",
"                         .XXXXXXXXXXXXXXXXXXXXXXXX.                        .XXXXXXXXXXXXXXXXXXXXXXXX.                         ",
"                         .XXXXXXXXXXXXXXXXXXXXXXXX.                        .XXXXXXXXXXXXXXXXXXXXXXXX.                         ",
"                         .XXXXXXXXXXXXXXXXXXXXXXXX.                        .XXXXXXXXXXXXXXXXXXXXXXXX.                         ",
"                         .XXXXXXXXXXXXXXXXXXXXXXXX.                        .XXXXXXXXXXXXXXXXXXXXXXXX.                         ",
"                         .XXXXXXXXXXXXXXXXXXXXXXXX.                        .XXXXXXXXXXXXXXXXXXXXXXXX.                         ",
"                         .XXXXXXXXXXXXXXXXXXXXXXXX.                        .XXXXXXXXXXXXXXXXXXXXXXXX.                         ",
"                         .XXXXXXXXXXXXXXXXXXXXXXXX.                        .XXXXXXXXXXXXXXXXXXXXXXXX.                         ",
"                         .XXXXXXXXXXXXXXXXXXXXXXXX.                        .XXXXXXXXXXXXXXXXXXXXXXXX.                         ",
"                         .XXXXXXXXXXXXXXXXXXXXXXXX.                        .XXXXXXXXXXXXXXXXXXXXXXXX.                         ",
"                         .XXXXXXXXXXXXXXXXXXXXXXXX.                        .XXXXXXXXXXXXXXXXXXXXXXXX.                         ",
"                         .XXXXXXXXXXXXXXXXXXXXXXXX.                        .XXXXXXXXXXXXXXXXXXXXXXXX.                         ",
"                         .XXXXXXXXXXXXXXXXXXXXXXXX.                        .XXXXXXXXXXXXXXXXXXXXXXXX.                         "
};
